<?xml version="1.0" encoding="utf-8"?>
<!-- Generator: Adobe Illustrator 15.0.2, SVG Export Plug-In . SVG Version: 6.00 Build 0)  -->
<!DOCTYPE svg PUBLIC "-//W3C//DTD SVG 1.1//EN" "http://www.w3.org/Graphics/SVG/1.1/DTD/svg11.dtd">
<svg version="1.1" id="Layer_1" xmlns="http://www.w3.org/2000/svg" xmlns:xlink="http://www.w3.org/1999/xlink" x="0px" y="0px"
	 width="678.5px" height="218.5px" viewBox="0 0 678.5 218.5" enable-background="new 0 0 678.5 218.5" xml:space="preserve">
<g id="Layer_2" display="none">
	<polygon display="inline" fill="#0054A6" points="119.568,153.427 697.633,153.427 406.396,442.34 	"/>
	<path display="inline" fill="#FFCE34" d="M381.39,149.101L337.667,149c0,0-1.333-5,3-7.667s10.274-5.501,7.274-13.835
		c0,0,4.485-1.612,10.818,7.721c0,0-1.141-6.465,0.761-13.881c1.757-6.85,5.516-9.128,5.516-9.128s2.662,5.515,7.605,9.888
		c6.002,5.31,8.357,6.235,9.357,15.568S381.39,149.101,381.39,149.101z"/>
	<path display="inline" fill="#FFCE34" d="M434.216,125.572c0,0,7.153-1.61,9.451-10.239c0,0,10.762,10.428,7.428,25.428
		c0,0,5.964-1.889,7.572-5.428c3.333-7.333,6.733-12.141,10.366-11.64c0,0-1.629,7.264,4.258,16.156
		c4.899,7.401,9.141,9.393,9.141,9.393l-94.765,0.091c0,0,2.333-10-0.333-17.333s-5.754-11.803-5.754-11.803
		c-0.333-2.667,0.753-8.53,3.42-11.53s6.133-9.604,6.258-14.781c0,0,7.545,6.192,12.742,24.781c0,0,1.7-9.039,7-14.333
		c2.798-2.795,6.106-3.99,6.106-3.99S420.321,112.372,434.216,125.572z"/>
	<path display="inline" fill="#FFCE34" d="M447.334,177h-30.667l-6,4l7,11.334c0,0,2.001-2.334,4.667-2.334s25,0.334,25,0.334V177z"
		/>
	<g display="inline">
		<path fill="#FFCE34" d="M369.333,177.334v13.333l24.333-0.333l60.667,91.333c0,0,1.667,2.334-1,2.667s-92,0-92,0s-3.333-1-1-4.667
			s44-63.333,44-63.333l-9-10.334L343,283c0,0-5.667,12.334,11.333,15.334L461.667,298c0,0,15.666-3,7.333-16.333L404.667,183
			c0,0-3-6-8-6S369.333,177.334,369.333,177.334z"/>
		<circle fill="#FFCE34" cx="380" cy="241.334" r="14.334"/>
		<circle fill="#FFCE34" cx="434.667" cy="241.334" r="14.334"/>
		<circle fill="#FFCE34" cx="408.833" cy="291.667" r="12.333"/>
		<circle fill="#FFCE34" cx="440.667" cy="291.667" r="12.333"/>
		<circle fill="#FFCE34" cx="377" cy="291.667" r="12.333"/>
	</g>
	<g display="inline">
		<path fill="#FFCE34" d="M380.024,363.562l18.685,0.699c0.393,2.938,0.604,3.346,1.807,4.885c1.959,2.492,4.761,3.737,8.398,3.737
			c2.715,0,4.809-0.637,6.277-1.911c1.471-1.272,2.205-2.75,2.205-4.43c0-1.596-0.699-3.023-2.101-4.283s-4.646-2.449-9.742-3.568
			c-8.342-1.875-14.292-4.367-17.846-7.476c-3.584-3.106-5.375-7.067-5.375-11.884c0-3.163,0.917-6.152,2.75-8.965
			c1.833-2.814,4.591-5.025,8.272-6.635c3.681-1.61,8.728-2.416,15.138-2.416c7.867,0,13.863,1.463,17.994,4.389
			c4.129,2.926,6.586,7.58,7.368,13.963l-18.481,0.26c-0.478-2.771-0.926-3.996-2.451-5.257c-1.524-1.26-3.631-1.89-6.317-1.89
			c-2.214,0-3.88,0.469-4.998,1.406c-1.119,0.938-1.681,2.078-1.681,3.422c0,0.98,0.463,1.863,1.388,2.646
			c0.895,0.812,3.022,1.568,6.383,2.268c8.313,1.793,14.27,3.604,17.867,5.438c3.596,1.834,6.215,4.108,7.852,6.824
			c1.639,2.716,2.457,5.753,2.457,9.112c0,3.947-1.092,7.586-3.275,10.918s-5.233,5.857-9.153,7.578
			c-3.92,1.724-8.859,2.584-14.822,2.584c-10.471,0-17.721-2.017-21.752-6.047C382.839,374.9,380.555,369.777,380.024,363.562z"/>
	</g>
	<path display="inline" fill="#FFCE34" d="M438.1-20.917c0,0,6.757-11.857,15.065-19.13c19.129-16.742,34.91-16.263,55.45,0.97
		L665.98,114.904c7.651,7.891,22,23.674,28.935,25.348c0,0-13.668,3.016-27.499-2.87c-11.136-4.738-24.63-19.369-24.63-19.369
		L521.496-4.129c0,0-2.918-3.619-6.16-0.711c-3.153,2.828,0.474,6.16,0.474,6.16l132.099,130.833c0,0,8.021,6.779,16.683,8.816
		c0,0-14.663,3.546-34.674-6.935c0,0-8.253-5.863-14.586-12.196S511.761,17.406,511.761,17.406s-2.952-2.45-5.556,0.302
		c-2.718,2.873,0.891,6.82,0.891,6.82l106.606,105.454c0,0,5.41,5.727,14.019,8.596c0,0-19.883,1.331-32.216-7.669
		c-12.334-9-96.711-94.677-96.711-94.677s-3.633-2.325-5.633,0.342c-2,2.666-0.325,5.335-0.325,5.335l82.339,79.846
		c0,0,7.031,6.78,16.835,11.801c0,0-16.174,1.435-32.673-9.086c-12.709-8.104-72.313-68.508-72.313-68.508s-3.722-4.87-7.216-1.066
		c-3.066,3.339,2.175,7.065,2.175,7.065s56.746,60.356,66.312,60.117c0,0-13.108,2.392-51.129-22.717
		c-29.596-19.545-40.651-41.128-40.651-41.128S462.491,29.06,438.1-20.917z"/>
	<path display="inline" fill="#FFCE34" d="M529.027,239.85c-10.123,0-11.968-7.992-11.968-16.517
		c0-11.722,4.209-17.718,11.218-17.718c6.235,0,10.198,3.648,10.795,9.96h18.889c-1.607-15.614-11.982-24.802-30.543-24.802
		c-16.941,0-30.26,12.24-30.26,31.877c0,19.742,12.139,32.05,32.219,32.05c16.006,0,27.23-9.441,28.992-25.127h-19.137
		C538.477,235.393,535.449,239.85,529.027,239.85z"/>
	<path display="inline" fill="#FFCE34" d="M279.421,192.55l-21.765,60.732h19.484l2.28-8.011h19.826l2.355,8.011h19.815
		l-21.764-60.732H279.421z M283.206,232.622l6.158-21.756l6.412,21.756H283.206z"/>
	<path display="inline" fill="#FFCE34" d="M461.169,75.243c0,0,1.725,4.979-6.311,8.415c-6.703,2.874-8.332,14.234-14.668,16.726
		c0,0-8.19-10.05-7.856-22.05c0.093-3.333,1.666-14,1.666-14s-7.333,0-16,4.667c-3.347,1.802-8.333,7-8.333,7s2.5-4.661,1.346-9.804
		c-3.241-14.441-10.609-16.799-10.609-16.799s0.265,4.271-5.069,10.604s-6.576,4.873-12.91,11.206s-11.09,21.127-11.09,21.127
		s-2.769-4.608-4.825-7.57c-4.706-6.781-9.509-7.43-9.509-7.43s4.244,7.008-6.036,15.101C342.027,99.47,348.667,113,348.667,113
		s-6.47-1.986-14.437-0.599c0,0-0.951-0.761-1.32-4.354c-0.247-2.396,2.09-5.38,2.09-5.38s-1.5-1.399-6.511,1.843
		c-3.808,2.463-5.306,5.305-10.489,17.824c-2.852,6.886-5.067,14.333-11,14.333c0,0-3.669-0.827-5.667-5.821
		c-2.358-5.895-0.667-9.846-0.667-9.846s-12.333,6.333-12.333,16s7,12,7,12l33.746-0.281c0-6.667,5.508-12.031,9.254-13.385
		c0.841-0.304,2.743-2.586,3-5.667c0.585-7.007-4-10.333-4-10.333c9.429-3.035,16.333,2.333,16.333,2.333
		c-0.333-4,1.443-7.806,4.02-12.039c3.715-6.101,11.143-5.57,11.143-5.57c-1.592,5.836,7.525,12.748,7.525,12.748
		c0-6.333,3.817-12.756,7.516-17.283c4.093-5.012,0.797-16.855,0.797-16.855c12.333,5,19.491,21.739,19.491,21.739
		c6.262-11.021,16.907-11.397,16.907-11.397s0.626,6.012,4.008,12.399c3.569,6.744,9.261,13.259,9.261,13.259
		c5.393-2.363,6.395-12.257,6.395-12.257s4.227-0.708,10.332,7.728c3.62,5,5.698,14.44,5.698,14.44s4.76-11.146,12.908-10.578
		c3.658,0.255,6.333,0.667,6.333,0.667s-2,2.625-2,8c0,11.667,16,23,16,23l35.66,0.23c0,0,5.6-2.947,5.6-10.905
		c0-13.76-9.926-17.326-9.926-17.326c1,11-6.667,11.667-6.667,11.667s-0.013-3.758-1.68-6.424s-5.01-4.585-8.653-7.576
		c-5.494-4.508-2.667-11-2.667-11c-9.9-1.76-9,14.333-9,14.333s-7.437-6.234-9.243-14.365c-1.592-7.162,4.774-7.958,4.774-7.958
		s-2.758-5.771-9.448-5.247c-6.325,0.495-12.083,8.237-12.083,8.237C471.221,87.611,461.169,75.243,461.169,75.243z"/>
	<path display="inline" fill="#FFCE34" d="M430.019-83.967c0,0-1.567,4.08-6.314,1.105c-2.627-1.646-3.257-5.179-3.257-5.179
		s3.402-0.678,6.651-0.107C429.311-87.765,430.553-85.595,430.019-83.967l11.495,0.137c0,0-2.848-12.169-17.181-13.169
		s-22-0.333-22-0.333s-5.333,0.667-8-3.667c-2.667-4.333-1.667-6-1.667-6s-8.333,5.333-8.333,15.333C384.333-85,389-80,389-80
		s-13,22-15.333,39.333c0,0,17.667,18.333,18.333,40.667h-4.667c-1.667-6.333,0.568-21.512-21.333-39.333
		c-23.226-18.899-47.851-7.921-61.385,4.108L145.487,126.508c0,0-12.566,14.732-20.847,15.496c0,0,14.835,2.806,28.667-3.08
		c11.135-4.738,24.166-18.717,24.166-18.717L296.641-0.856c0,0,2.908-3.198,5.803-0.195c2.737,2.838-0.117,5.644-0.117,5.644
		L171.218,133.769c0,0-5.732,6.497-14.395,8.535c0,0,22.979,0.667,33.505-6.852c0,0,8.005-5.451,14.338-11.785S308,20,308,20
		s3.502-1.625,5.169,1.042s-0.181,5.11-0.181,5.11L207.324,130.395c0,0-13.99,9.605-15.99,9.605c0,0,21.333,2,33.667-7
		s98.248-95.316,98.248-95.316s2.577-2.057,5.15,1.053c2.125,2.568-0.484,4.947-0.484,4.947l-83.247,81.65
		c0,0-13,10.333-16.667,10.333c0,0,22-1.667,34.667-9.667c12.745-8.049,77.667-74,77.667-74s2.259-2.289,4.833-0.037
		c2.968,2.597,0.537,5.47,0.537,5.47s-57.369,61.901-72.521,66.083c0,0,14.485,1.485,51.128-22.717
		c22.397-14.792,34.022-31.131,34.022-31.131s5,0.667,11,9.667c0,0,4.333-10.667,12.667-17s7-5,10.333-8.667
		s3.353-12.817,3.353-12.817s9.364,0.547,15.031,8.547s5.306,14.147,5.306,14.147s7.304-5.987,15.645-6.543
		c5-0.333,8.523-0.235,8.523-0.235S438.993,65,438.667,72c-0.667,14.333,2.667,18.333,2.667,18.333S454,72,451.667,46
		s-8.333-43.667-19-64s-10-20.667-10-29.333c0-9.667,0.999-19.667,20.666-20s21.334,6.667,21.334,6.667l-0.004-0.017
		c2.108-29.458-23.149-23.147-23.149-23.147L430.019-83.967z"/>
</g>
<g>
	<polygon fill-rule="evenodd" clip-rule="evenodd" fill="#0054A6" points="3.815,103.092 228.563,103.092 115.332,215.421 	"/>
	<path fill="#FFCE34" d="M105.609,101.41l-16.999-0.039c0,0-0.519-1.943,1.166-2.98c1.685-1.037,3.995-2.14,2.828-5.379
		c0,0,1.744-0.627,4.207,3.002c0,0-0.443-2.514,0.295-5.397c0.684-2.663,2.145-3.549,2.145-3.549s1.035,2.144,2.958,3.843
		c2.333,2.066,3.248,2.425,3.637,6.055C106.236,100.593,105.609,101.41,105.609,101.41z"/>
	<path fill="#FFCE34" d="M126.148,92.263c0,0,2.781-0.628,3.674-3.982c0,0,4.185,4.056,2.889,9.885c0,0,2.319-0.731,2.944-2.108
		c1.296-2.853,2.617-4.719,4.031-4.527c0,0-0.633,2.826,1.655,6.282c1.906,2.879,3.554,3.653,3.554,3.653L108.05,101.5
		c0,0,0.907-3.886-0.129-6.739c-1.038-2.852-2.237-4.589-2.237-4.589c-0.13-1.038,0.292-3.316,1.329-4.482
		c1.037-1.167,2.385-3.735,2.434-5.747c0,0,2.933,2.408,4.954,9.634c0,0,0.661-3.515,2.722-5.572
		c1.087-1.085,2.374-1.553,2.374-1.553S120.747,87.129,126.148,92.263z"/>
	<path fill="#FFCE34" d="M131.249,112.257h-11.923l-2.333,1.555l2.721,4.406c0,0,0.778-0.908,1.815-0.908
		c1.036,0,9.72,0.129,9.72,0.129V112.257z"/>
	<g>
		<path fill="#FFCE34" d="M100.923,112.387v5.184l9.46-0.132l23.587,35.512c0,0,0.648,0.909-0.389,1.037
			c-1.037,0.131-35.77,0-35.77,0s-1.296-0.39-0.389-1.815s17.108-24.622,17.108-24.622l-3.5-4.019L90.685,153.47
			c0,0-2.203,4.796,4.406,5.958l41.73-0.129c0,0,6.09-1.164,2.851-6.348l-25.012-38.362c0,0-1.167-2.332-3.11-2.332
			C109.605,112.257,100.923,112.387,100.923,112.387z"/>
		<circle fill="#FFCE34" cx="105.069" cy="137.27" r="5.573"/>
		<circle fill="#FFCE34" cx="126.324" cy="137.27" r="5.573"/>
		<path fill="#FFCE34" d="M111.485,156.84c0-2.651,2.147-4.798,4.795-4.798c2.648,0,4.795,2.146,4.795,4.798
			c0,2.646-2.146,4.794-4.795,4.794C113.632,161.634,111.485,159.485,111.485,156.84z"/>
		<path fill="#FFCE34" d="M123.861,156.84c0-2.651,2.146-4.798,4.795-4.798c2.648,0,4.794,2.146,4.794,4.798
			c0,2.646-2.146,4.794-4.794,4.794C126.008,161.634,123.861,159.485,123.861,156.84z"/>
		<path fill="#FFCE34" d="M99.108,156.84c0-2.651,2.147-4.798,4.795-4.798c2.649,0,4.794,2.146,4.794,4.798
			c0,2.646-2.146,4.794-4.794,4.794C101.255,161.634,99.108,159.487,99.108,156.84z"/>
	</g>
	<g>
		<path fill="#FFCE34" d="M105.078,184.79l7.266,0.273c0.152,1.143,0.234,1.303,0.702,1.898c0.761,0.969,1.851,1.453,3.266,1.453
			c1.055,0,1.869-0.245,2.44-0.742c0.572-0.497,0.857-1.069,0.857-1.723c0-0.621-0.272-1.178-0.816-1.667
			c-0.543-0.489-1.806-0.952-3.787-1.388c-3.244-0.729-5.557-1.697-6.938-2.905c-1.394-1.208-2.091-2.748-2.091-4.621
			c0-1.228,0.356-2.392,1.07-3.485c0.713-1.093,1.785-1.952,3.216-2.577c1.432-0.628,3.393-0.941,5.886-0.941
			c3.059,0,5.389,0.568,6.995,1.709c1.606,1.135,2.561,2.946,2.865,5.426l-7.186,0.101c-0.186-1.077-0.36-1.554-0.953-2.041
			c-0.593-0.491-1.412-0.736-2.457-0.736c-0.86,0-1.507,0.182-1.943,0.546c-0.435,0.366-0.653,0.81-0.653,1.333
			c0,0.382,0.18,0.725,0.54,1.027c0.348,0.316,1.176,0.607,2.481,0.881c3.233,0.699,5.548,1.4,6.946,2.113
			c1.398,0.715,2.417,1.6,3.052,2.655c0.637,1.055,0.956,2.235,0.956,3.544c0,1.532-0.425,2.948-1.273,4.245
			c-0.849,1.293-2.036,2.275-3.561,2.946c-1.523,0.669-3.443,1-5.762,1c-4.071,0-6.89-0.78-8.458-2.349
			C106.173,189.197,105.285,187.208,105.078,184.79z"/>
	</g>
	<path fill="#FFCE34" d="M127.658,35.308c0,0,2.627-4.609,5.857-7.438c7.438-6.509,13.573-6.323,21.56,0.377l61.183,59.867
		c2.975,3.067,8.554,9.205,11.249,9.856c0,0-5.314,1.171-10.691-1.119c-4.329-1.84-9.576-7.528-9.576-7.528l-47.157-47.489
		c0,0-1.134-1.407-2.394-0.276c-1.227,1.1,0.184,2.396,0.184,2.396L209.23,94.82c0,0,3.119,2.635,6.486,3.428
		c0,0-5.7,1.379-13.481-2.696c0,0-3.208-2.281-5.67-4.742c-2.462-2.461-40.268-40.603-40.268-40.603s-1.148-0.953-2.16,0.118
		c-1.057,1.118,0.346,2.652,0.346,2.652l41.449,40.999c0,0,2.103,2.226,5.449,3.343c0,0-7.73,0.518-12.525-2.982
		c-4.795-3.5-37.601-36.81-37.601-36.81s-1.413-0.904-2.19,0.133c-0.778,1.035-0.126,2.074-0.126,2.074l32.013,31.043
		c0,0,2.733,2.637,6.544,4.589c0,0-6.288,0.558-12.703-3.532c-4.941-3.152-28.115-26.636-28.115-26.636s-1.446-1.894-2.805-0.414
		c-1.193,1.296,0.845,2.747,0.845,2.747s22.063,23.464,25.781,23.373c0,0-5.096,0.93-19.878-8.833
		c-11.506-7.6-15.805-15.991-15.805-15.991S137.142,54.739,127.658,35.308z"/>
	<path fill-rule="evenodd" clip-rule="evenodd" fill="#FFCE34" d="M163.01,136.691c-3.936,0-4.652-3.109-4.652-6.422
		c0-4.556,1.636-6.889,4.362-6.889c2.424,0,3.964,1.42,4.196,3.873h7.344c-0.626-6.07-4.659-9.643-11.875-9.643
		c-6.587,0-11.766,4.758-11.766,12.396c0,7.674,4.72,12.458,12.528,12.458c6.222,0,10.586-3.669,11.271-9.768h-7.441
		C166.684,134.959,165.507,136.691,163.01,136.691z"/>
	<path fill-rule="evenodd" clip-rule="evenodd" fill="#FFCE34" d="M65.965,118.301l-8.462,23.613h7.575l0.887-3.114h7.708
		l0.916,3.114h7.704l-8.461-23.613H65.965z M67.437,133.882l2.394-8.457l2.494,8.457H67.437z"/>
	<path fill-rule="evenodd" clip-rule="evenodd" fill="#FFCE34" d="M136.627,72.695c0,0,0.671,1.935-2.453,3.271
		c-2.606,1.117-3.239,5.533-5.703,6.503c0,0-3.185-3.909-3.055-8.573c0.036-1.295,0.648-5.443,0.648-5.443s-2.852,0-6.221,1.815
		c-1.3,0.701-3.24,2.722-3.24,2.722s0.972-1.813,0.524-3.812c-1.261-5.616-4.125-6.532-4.125-6.532s0.103,1.661-1.971,4.122
		c-2.074,2.463-2.557,1.896-5.02,4.358c-2.462,2.462-4.311,8.213-4.311,8.213s-1.078-1.791-1.876-2.943
		c-1.83-2.634-3.698-2.887-3.698-2.887s1.65,2.724-2.346,5.87c-3.475,2.734-0.894,7.995-0.894,7.995s-2.515-0.773-5.612-0.233
		c0,0-0.37-0.294-0.514-1.692c-0.095-0.932,0.813-2.092,0.813-2.092s-0.584-0.543-2.531,0.717c-1.48,0.958-2.063,2.061-4.079,6.93
		c-1.109,2.677-1.97,5.572-4.277,5.572c0,0-1.427-0.323-2.203-2.264c-0.917-2.291-0.258-3.827-0.258-3.827s-4.796,2.461-4.796,6.22
		c0,3.757,2.722,4.666,2.722,4.666l13.121-0.109c0-2.593,2.141-4.679,3.597-5.204c0.327-0.119,1.066-1.005,1.167-2.205
		c0.227-2.724-1.555-4.016-1.555-4.016c3.666-1.179,6.35,0.908,6.35,0.908c-0.129-1.555,0.561-3.037,1.563-4.682
		c1.444-2.372,4.332-2.166,4.332-2.166c-0.619,2.27,2.927,4.957,2.927,4.957c0-2.462,1.484-4.96,2.921-6.719
		c1.591-1.949,0.31-6.554,0.31-6.554c4.796,1.945,7.579,8.452,7.579,8.452c2.433-4.285,6.574-4.432,6.574-4.432
		s0.243,2.337,1.558,4.821c1.388,2.622,3.6,5.155,3.6,5.155c2.096-0.92,2.486-4.767,2.486-4.767s1.643-0.273,4.017,3.007
		c1.407,1.944,2.216,5.612,2.216,5.612s1.85-4.333,5.017-4.112c1.423,0.099,2.463,0.259,2.463,0.259s-0.777,1.021-0.777,3.109
		c0,4.538,6.221,8.943,6.221,8.943l13.864,0.088c0,0,2.177-1.146,2.177-4.239c0-5.351-3.859-6.735-3.859-6.735
		c0.388,4.276-2.592,4.535-2.592,4.535s-0.005-1.461-0.653-2.498c-0.647-1.038-1.947-1.784-3.364-2.945
		c-2.136-1.754-1.037-4.276-1.037-4.276c-3.849-0.685-3.499,5.573-3.499,5.573s-2.892-2.426-3.594-5.586
		c-0.62-2.784,1.856-3.095,1.856-3.095s-1.072-2.242-3.673-2.038c-2.459,0.192-4.697,3.201-4.697,3.201
		C140.535,77.502,136.627,72.695,136.627,72.695z"/>
	<path fill-rule="evenodd" clip-rule="evenodd" fill="#FFCE34" d="M124.516,10.794c0,0-0.609,1.586-2.455,0.429
		c-1.021-0.64-1.266-2.013-1.266-2.013s1.323-0.263,2.586-0.042C124.241,9.318,124.724,10.162,124.516,10.794l4.469,0.053
		c0,0-1.106-4.73-6.679-5.12c-5.572-0.389-8.553-0.13-8.553-0.13s-2.073,0.259-3.111-1.426c-1.037-1.684-0.648-2.333-0.648-2.333
		s-3.24,2.074-3.24,5.961c0,2.591,1.814,4.536,1.814,4.536s-5.054,8.553-5.961,15.292c0,0,6.869,7.128,7.128,15.812h-1.814
		c-0.648-2.463,0.221-8.364-8.295-15.293c-9.029-7.348-18.604-3.08-23.866,1.598l-61.867,62.88c0,0-4.886,5.729-8.105,6.025
		c0,0,5.768,1.09,11.146-1.197c4.33-1.84,9.395-7.277,9.395-7.277L72.66,43.107c0,0,1.13-1.243,2.256-0.076
		c1.065,1.104-0.045,2.195-0.045,2.195L23.897,95.447c0,0-2.229,2.526-5.597,3.32c0,0,8.935,0.259,13.027-2.665
		c0,0,3.112-2.12,5.574-4.583c2.461-2.461,40.175-40.305,40.175-40.305s1.361-0.63,2.009,0.407c0.648,1.037-0.07,1.986-0.07,1.986
		l-41.082,40.53c0,0-5.439,3.734-6.217,3.734c0,0,8.294,0.779,13.089-2.723c4.795-3.5,38.199-37.056,38.199-37.056
		s1.001-0.801,2.002,0.408c0.827,0.998-0.188,1.923-0.188,1.923L52.453,92.168c0,0-5.055,4.018-6.481,4.018
		c0,0,8.555-0.648,13.479-3.76c4.955-3.128,30.197-28.769,30.197-28.769s0.878-0.89,1.878-0.016c1.154,1.01,0.208,2.126,0.208,2.126
		S69.43,89.836,63.54,91.462c0,0,5.631,0.576,19.878-8.833c8.708-5.75,13.228-12.103,13.228-12.103s1.944,0.259,4.277,3.758
		c0,0,1.684-4.146,4.924-6.61c3.24-2.462,2.721-1.944,4.018-3.368c1.296-1.426,1.304-4.984,1.304-4.984s3.64,0.214,5.844,3.324
		c2.203,3.109,2.062,5.5,2.062,5.5s2.84-2.327,6.083-2.545c1.943-0.129,3.314-0.091,3.314-0.091s-0.465,3.203-0.593,5.924
		c-0.259,5.573,1.037,7.126,1.037,7.126s4.924-7.126,4.017-17.235c-0.907-10.11-3.24-16.978-7.387-24.882
		c-4.146-7.906-3.888-8.036-3.888-11.405c0-3.759,0.388-7.647,8.035-7.777c7.646-0.129,8.295,2.593,8.295,2.593l-0.002-0.007
		c0.82-11.453-9-9-9-9L124.516,10.794z"/>
	<g>
		<path fill="#0054A6" d="M321.816,102.753l-7.443-21h-38.146l-7.441,21h-12.494l32.696-89.714h13.556l32.961,89.714H321.816z
			 M299.224,38.956c-1.595-4.385-2.791-8.372-3.854-12.227h-0.266c-1.064,3.854-2.26,7.842-3.723,12.094L279.42,72.052h31.765
			L299.224,38.956z"/>
		<path fill="#0054A6" d="M381.898,103.817c-28.843,0-40.805-18.343-40.805-43.729c0-27.378,13.56-47.847,43.863-47.847
			c6.911,0,14.218,0.93,20.6,2.791l-1.993,11.165c-6.246-2.126-13.157-3.455-19.935-3.455c-20.471,0-29.244,15.683-29.244,35.353
			c0,22.064,9.573,34.823,30.437,34.823c6.513,0,14.354-1.861,19.672-4.52l1.994,10.633
			C399.709,101.823,390.936,103.817,381.898,103.817z"/>
		<path fill="#0054A6" d="M439.714,103.949c-7.311,0-14.089-0.932-19.672-2.525l1.463-11.696c5.714,2.26,12.227,3.589,18.872,3.589
			c10.368,0,19.404-4.254,19.404-15.284c0-20.204-40.537-12.229-40.537-40.804c0-14.754,11.167-25.386,31.368-25.386
			c5.187,0,11.165,0.532,16.212,1.728l-1.461,10.766c-4.783-1.462-10.231-2.392-15.414-2.392c-12.229,0-18.077,5.449-18.077,13.955
			c0,19.404,41.071,12.361,41.071,40.537C472.943,92.518,459.781,103.949,439.714,103.949z"/>
	</g>
	<path fill="#0054A6" d="M274.416,176.196c-11.748,0-17.566-7.275-17.566-19.254c0-11.692,5.469-20.823,18.906-20.823
		c3.079,0,6.454,0.466,9.36,1.339l-0.695,3.43c-2.968-1.047-6.282-1.628-9.481-1.628c-10.062,0-14.076,7.853-14.076,17.043
		c0,10.525,4.653,16.634,14.657,16.634c3.199,0,6.862-0.929,9.423-2.21l0.755,3.198
		C282.618,175.264,278.661,176.196,274.416,176.196z"/>
	<path fill="#0054A6" d="M310.536,175.787v-18.729c0-4.827-1.34-7.68-5.874-7.68c-5.469,0-9.307,5.293-9.307,12.621v13.787h-3.665
		v-42.462h3.665v14.603c0,1.975-0.115,4.304-0.466,5.759l0.115,0.055c1.686-4.479,5.412-7.329,10.469-7.329
		c6.69,0,8.726,4.133,8.726,9.249v20.126H310.536z"/>
	<path fill="#0054A6" d="M343.63,160.137h-19.603c-0.348,9.191,3.199,12.972,9.944,12.972c2.795,0,5.701-0.578,8.146-1.686
		l0.697,3.084c-2.733,1.104-6.048,1.743-9.654,1.743c-8.433,0-13.029-4.651-13.029-14.831c0-8.61,4.654-15.007,12.506-15.007
		s11.109,5.411,11.109,11.632C343.746,158.451,343.746,159.152,343.63,160.137z M332.401,149.206c-4.302,0-7.386,3.079-8.14,8.146
		h15.585C339.965,152.463,337.113,149.206,332.401,149.206z"/>
	<path fill="#0054A6" d="M386.785,175.787v-18.729c0-4.654-1.107-7.68-5.584-7.68c-4.769,0-9.191,4.77-9.191,12.737v13.671h-3.664
		v-18.79c0-4.127-0.813-7.618-5.582-7.618c-5.061,0-9.135,5.234-9.135,12.737v13.671h-3.663v-28.906h3.722
		c0,2.032-0.173,4.881-0.523,6.744l0.12,0.062c1.628-4.424,5.465-7.274,10.35-7.274c6.866,0,8.087,5.061,8.087,7.154
		c0.989-2.732,4.13-7.154,10.178-7.154c5.41,0,8.552,2.794,8.552,9.306v20.069H386.785z"/>
	<path fill="#0054A6" d="M401.15,140.13c-1.455,0-2.618-1.162-2.618-2.618c0-1.45,1.163-2.615,2.618-2.615s2.617,1.106,2.617,2.615
		C403.768,138.909,402.605,140.13,401.15,140.13z M399.289,175.787v-28.906h3.662v28.906H399.289z"/>
	<path fill="#0054A6" d="M416.1,176.25c-2.213,0-4.653-0.232-6.457-0.754l0.523-3.488c1.862,0.692,4.363,1.101,6.572,1.101
		c4.304,0,7.445-2.032,7.445-5.288c0-7.506-14.657-2.737-14.657-13.148c0-4.77,3.779-8.26,10.936-8.26
		c1.859,0,4.072,0.233,5.815,0.639l-0.465,3.142c-1.802-0.525-3.84-0.871-5.876-0.871c-4.479,0-6.688,1.918-6.688,4.942
		c0,7.507,14.716,2.91,14.716,13.033C427.964,172.238,423.545,176.25,416.1,176.25z"/>
	<path fill="#0054A6" d="M442.855,176.196c-5.644,0-7.271-2.564-7.271-8.376v-18.033h-6.573v-2.906h6.573v-9.771l3.664-0.99v10.762
		h8.898v2.906h-8.898v16.228c0,5.523,0.989,6.922,4.596,6.922c1.51,0,2.906-0.174,4.012-0.467l0.523,3.142
		C446.809,175.961,444.657,176.196,442.855,176.196z"/>
	<path fill="#0054A6" d="M467.049,150.021c-6.574-1.047-9.716,4.188-9.716,14.249v11.517h-3.663v-28.906h3.725
		c0,2.032-0.23,5-0.755,7.56l0.116,0.058c1.102-4.306,4.126-8.841,10.469-8.025L467.049,150.021z"/>
	<path fill="#0054A6" d="M480.883,178.752c-3.371,8.84-6.628,12.097-13.025,12.097c-0.932,0-2.093-0.173-2.91-0.351l0.409-3.372
		c0.869,0.294,2.267,0.466,3.313,0.466c3.431,0,5.932-1.742,8.433-8.258l1.395-3.547l-11.162-28.906h4.303l6.513,17.798
		c0.99,2.672,1.569,4.592,2.21,6.687h0.061c0.462-1.744,1.687-5.293,2.906-8.78l5.584-15.704h4.012L480.883,178.752z"/>
	<path fill="#0054A6" d="M523.808,136.7c-1.512-0.466-3.201-0.639-4.711-0.639c-4.772,0-6.806,2.791-6.806,8.725v2.095h8.899v2.906
		h-8.899v26h-3.663v-26h-6.633v-2.906h6.633v-1.979c0-8.086,4.071-11.867,10.761-11.867c1.686,0,3.196,0.174,4.766,0.525
		L523.808,136.7z"/>
	<path fill="#0054A6" d="M533.403,176.25c-7.679,0-12.562-4.712-12.562-14.831c0-8.087,4.884-15.007,13.552-15.007
		c6.743,0,12.618,3.726,12.618,14.484C547.011,169.328,541.895,176.25,533.403,176.25z M533.985,149.379
		c-4.77,0-9.308,3.664-9.308,11.751c0,7.675,3.372,12.095,9.365,12.095c4.769,0,9.188-3.664,9.188-12.156
		C543.23,153.802,540.091,149.379,533.985,149.379z"/>
	<path fill="#0054A6" d="M581.561,175.787v-39.26h3.726V172.7h15.003v3.087H581.561z"/>
	<path fill="#0054A6" d="M605.817,140.13c-1.456,0-2.618-1.162-2.618-2.618c0-1.45,1.162-2.615,2.618-2.615
		c1.454,0,2.617,1.106,2.617,2.615C608.435,138.909,607.271,140.13,605.817,140.13z M603.954,175.787v-28.906h3.664v28.906H603.954z
		"/>
	<path fill="#0054A6" d="M633.034,136.7c-1.513-0.466-3.199-0.639-4.709-0.639c-4.773,0-6.805,2.791-6.805,8.725v2.095h8.896v2.906
		h-8.896v26h-3.664v-26h-6.636v-2.906h6.636v-1.979c0-8.086,4.069-11.867,10.758-11.867c1.686,0,3.198,0.174,4.771,0.525
		L633.034,136.7z"/>
	<path fill="#0054A6" d="M653.623,160.137h-19.601c-0.347,9.191,3.199,12.972,9.946,12.972c2.794,0,5.701-0.578,8.145-1.686
		l0.697,3.084c-2.737,1.104-6.048,1.743-9.657,1.743c-8.431,0-13.026-4.651-13.026-14.831c0-8.61,4.649-15.007,12.502-15.007
		s11.108,5.411,11.108,11.632C653.737,158.451,653.737,159.152,653.623,160.137z M642.398,149.206c-4.304,0-7.387,3.079-8.145,8.146
		h15.589C649.958,152.463,647.108,149.206,642.398,149.206z"/>
	<g>
		<path fill="#0054A6" d="M666.561,146.789c-4.76,0-8.398-3.719-8.398-8.398c0-4.639,3.759-8.438,8.398-8.438
			c4.759,0,8.438,3.68,8.438,8.438C674.999,142.95,671.12,146.789,666.561,146.789z M666.561,131.752c-3.6,0-6.519,2.92-6.519,6.559
			c0,3.6,2.919,6.68,6.519,6.68c3.64,0,6.519-2.92,6.519-6.56C673.079,134.832,670.2,131.752,666.561,131.752z M668.12,142.95
			l-2.56-4.079h-0.12v4.079h-1.6v-9.278h2.8c2.199,0,3.079,0.959,3.079,2.359c0,1.56-0.96,2.52-2.439,2.68
			c0.2,0.24,0.56,0.76,0.92,1.279l1.92,2.96H668.12z M666.48,134.951h-1.04v2.84h0.64c1.48,0,1.96-0.8,1.96-1.561
			C668.04,135.352,667.641,134.951,666.48,134.951z"/>
	</g>
	<path fill="#0054A6" d="M566.624,149.666c-6.623-1.05-9.786,4.225-9.786,14.363v11.607h-3.695v-29.129h3.756
		c0,2.046,0.19,5.032-0.336,7.613l-0.308,0.063c1.109-4.339,4.157-8.914,10.55-8.091L566.624,149.666z"/>
</g>
</svg>
