<?xml version="1.0" encoding="iso-8859-1"?>
<!-- Generator: Adobe Illustrator 18.0.0, SVG Export Plug-In . SVG Version: 6.00 Build 0)  -->
<!DOCTYPE svg PUBLIC "-//W3C//DTD SVG 1.1//EN" "http://www.w3.org/Graphics/SVG/1.1/DTD/svg11.dtd">
<svg version="1.1" xmlns="http://www.w3.org/2000/svg" xmlns:xlink="http://www.w3.org/1999/xlink" x="0px" y="0px"
	 viewBox="0 0 62 24.32" style="enable-background:new 0 0 62 24.32;" xml:space="preserve">
<g id="Assessiblity">
	<g>
		<defs>
			<rect id="SVGID_1_" x="0" y="0" width="62" height="24.32"/>
		</defs>
		<clipPath id="SVGID_2_">
			<use xlink:href="#SVGID_1_"  style="overflow:visible;"/>
		</clipPath>
		<path style="clip-path:url(#SVGID_2_);fill:#FFFFFF;" d="M11.004,23.627c-5.678,0-10.278-5.113-10.278-11.422
			c0-6.302,4.6-11.417,10.278-11.417h9.599c5.672,0,10.274,5.115,10.274,11.417c0,6.309-4.602,11.422-10.274,11.422H11.004z"/>
		<path style="clip-path:url(#SVGID_2_);fill:#FFFFFF;" d="M41.155,23.627c-5.68,0-10.28-5.113-10.28-11.422
			c0-6.302,4.6-11.417,10.28-11.417h9.436c5.674,0,10.276,5.115,10.276,11.417c0,6.309-4.602,11.422-10.276,11.422H41.155z"/>
		<path style="clip-path:url(#SVGID_2_);fill:#BAD8EB;" d="M11.054,23.625c-5.678,0-10.278-5.113-10.278-11.422
			c0-6.302,4.6-11.418,10.278-11.418h9.599c5.671,0,10.274,5.116,10.274,11.418c0,6.309-4.603,11.422-10.274,11.422H11.054z"/>
		<path style="clip-path:url(#SVGID_2_);fill:#BAD8EB;" d="M41.204,23.625c-5.68,0-10.28-5.113-10.28-11.422
			c0-6.302,4.6-11.418,10.28-11.418h9.437c5.673,0,10.275,5.116,10.275,11.418c0,6.309-4.602,11.422-10.275,11.422H41.204z"/>
		<path style="clip-path:url(#SVGID_2_);fill:#FFFFFF;" d="M37.558,11.675c0,3.618-2.936,6.553-6.555,6.553
			s-6.555-2.935-6.555-6.553c0-3.621,2.936-6.555,6.555-6.555S37.558,8.054,37.558,11.675"/>
	</g>
	<path style="fill:#FFFFFF;" d="M30.999,19.088h0.002H30.999z"/>
	<g>
		<defs>
			<rect id="SVGID_3_" x="0" y="0" width="62" height="24.32"/>
		</defs>
		<clipPath id="SVGID_4_">
			<use xlink:href="#SVGID_3_"  style="overflow:visible;"/>
		</clipPath>
		<path style="clip-path:url(#SVGID_4_);fill:#003764;" d="M18.493,15.835l-0.003-0.01c-0.571,1.846-1.986,3.376-3.918,3.971
			c-3.059,0.937-6.273-0.826-7.251-3.95l0.005-0.001c-0.271-0.857-0.36-1.789-0.226-2.741c0.29-2.062,1.55-3.732,3.233-4.584h-0.011
			c0.145-0.074,0.311-0.103,0.481-0.078c0.454,0.067,0.764,0.501,0.7,0.967c-0.045,0.312-0.246,0.559-0.51,0.668l-0.028,0.019
			c-1.137,0.625-1.98,1.782-2.18,3.2c-0.091,0.658-0.03,1.299,0.146,1.894l0.003,0.003c0.16,0.558,0.437,1.047,0.77,1.474
			c0.017,0.021,0.032,0.042,0.051,0.063c0.051,0.063,0.103,0.121,0.157,0.181c0.058,0.062,0.118,0.125,0.18,0.184
			c0.014,0.015,0.031,0.03,0.044,0.044c0.592,0.546,1.442,0.974,2.287,1.102h0.009L12.43,18.24c0.558,0.073,1.141,0.033,1.716-0.144
			c1.326-0.408,2.313-1.44,2.748-2.691l0.013-0.03c0.067-0.287,0.275-0.529,0.565-0.617c0.438-0.135,0.897,0.122,1.025,0.575
			C18.546,15.503,18.542,15.677,18.493,15.835"/>
		<path style="clip-path:url(#SVGID_4_);fill:#003764;" d="M24.039,17.233l-1.653,0.925c-0.013,0.006-0.028,0.006-0.041,0.013
			c-0.016,0.005-0.029,0.008-0.045,0.014c-0.085,0.034-0.169,0.047-0.255,0.044c-0.007-0.001-0.014-0.002-0.02-0.002
			c-0.049-0.004-0.098-0.005-0.145-0.02c-0.185-0.043-0.356-0.151-0.471-0.323l-2.307-3.48h-5.303c-0.078,0-0.134,0.002-0.211-0.006
			c-0.516-0.051-0.938-0.504-0.938-1.028v-5.97c0-0.56,0.461-1.012,1.027-1.012c0.567,0,1.026,0.452,1.026,1.012v1.887h3.168
			c0.454,0,0.823,0.405,0.823,0.907c0,0.503-0.369,0.909-0.823,0.909h-3.168v1.451h4.569c0.476,0.028,0.648,0.311,0.742,0.449
			l2.431,3.666l0.959-0.537c0.309-0.173,0.701-0.066,0.877,0.237C24.456,16.674,24.347,17.06,24.039,17.233"/>
		<path style="clip-path:url(#SVGID_4_);fill:#003764;" d="M42.041,12.869V5.147c0-0.061,0.046-0.111,0.105-0.111h8.97
			c0.059,0,0.102,0.05,0.102,0.111v7.722c0,0.061-0.043,0.112-0.102,0.112h-8.97C42.087,12.981,42.041,12.93,42.041,12.869
			 M40.391,14.903c0,0.074,0.051,0.136,0.115,0.136h12.179c0.063,0,0.114-0.062,0.114-0.136V3.439c0-0.076-0.051-0.136-0.114-0.136
			H40.506c-0.064,0-0.115,0.06-0.115,0.136V14.903z M47.22,18.355h-1.255c-0.076,0-0.137,0.06-0.137,0.135v1.255
			c0,0.075,0.061,0.134,0.137,0.134h1.255c0.076,0,0.137-0.059,0.137-0.134V18.49C47.357,18.415,47.296,18.355,47.22,18.355
			 M51.978,18.355h-1.257c-0.073,0-0.134,0.06-0.134,0.135v1.255c0,0.075,0.061,0.134,0.134,0.134h1.257
			c0.074,0,0.134-0.059,0.134-0.134V18.49C52.112,18.415,52.052,18.355,51.978,18.355 M44.842,18.355h-1.256
			c-0.075,0-0.134,0.06-0.134,0.135v1.255c0,0.075,0.059,0.134,0.134,0.134h1.256c0.076,0,0.137-0.059,0.137-0.134V18.49
			C44.979,18.415,44.918,18.355,44.842,18.355 M49.598,18.355h-1.255c-0.074,0-0.135,0.06-0.135,0.135v1.255
			c0,0.075,0.061,0.134,0.135,0.134h1.255c0.076,0,0.136-0.059,0.136-0.134V18.49C49.734,18.415,49.674,18.355,49.598,18.355
			 M49.6,17.903h1.256c0.074,0,0.134-0.061,0.134-0.136v-1.255c0-0.075-0.06-0.135-0.134-0.135H49.6
			c-0.076,0-0.134,0.06-0.134,0.135v1.255C49.466,17.842,49.524,17.903,49.6,17.903 M47.222,17.903h1.255
			c0.075,0,0.135-0.061,0.135-0.136v-1.255c0-0.075-0.06-0.135-0.135-0.135h-1.255c-0.076,0-0.134,0.06-0.134,0.135v1.255
			C47.088,17.842,47.146,17.903,47.222,17.903 M42.466,17.903h1.253c0.077,0,0.138-0.061,0.138-0.136v-1.255
			c0-0.075-0.061-0.135-0.138-0.135h-1.253c-0.077,0-0.137,0.06-0.137,0.135v1.255C42.329,17.842,42.389,17.903,42.466,17.903
			 M42.463,18.355h-1.254c-0.077,0-0.136,0.06-0.136,0.135v1.255c0,0.075,0.059,0.134,0.136,0.134h1.254
			c0.076,0,0.137-0.059,0.137-0.134V18.49C42.6,18.415,42.539,18.355,42.463,18.355 M44.843,17.903h1.256
			c0.073,0,0.134-0.061,0.134-0.136v-1.255c0-0.075-0.061-0.135-0.134-0.135h-1.256c-0.075,0-0.137,0.06-0.137,0.135v1.255
			C44.706,17.842,44.768,17.903,44.843,17.903 M53.11,20.49c0,0.086-0.069,0.155-0.155,0.155H40.237
			c-0.084,0-0.156-0.069-0.156-0.155v-4.643c0-0.086,0.072-0.155,0.156-0.155h12.718c0.086,0,0.155,0.069,0.155,0.155V20.49z"/>
	</g>
	<polygon style="fill:#FFFFFF;" points="30.353,21.773 30.353,22.049 30.836,22.049 30.836,23.403 31.165,23.403 31.165,22.049 
		31.647,22.049 31.647,21.773 	"/>
	<polygon style="fill:#FFFFFF;" points="31.293,21.773 31,22.884 30.705,21.773 30.214,21.773 30.214,23.403 30.518,23.403 
		30.518,22.12 30.84,23.403 31.157,23.403 31.481,22.12 31.481,23.403 31.786,23.403 31.786,21.773 	"/>
	<g>
		<defs>
			<rect id="SVGID_5_" x="0" y="0" width="62" height="24.32"/>
		</defs>
		<clipPath id="SVGID_6_">
			<use xlink:href="#SVGID_5_"  style="overflow:visible;"/>
		</clipPath>
		<path style="clip-path:url(#SVGID_6_);fill:none;stroke:#FFFFFF;stroke-width:1.35;" d="M11.014,23.645
			c-5.712,0-10.339-5.142-10.339-11.488c0-6.338,4.627-11.482,10.339-11.482h9.491c5.706,0,10.334,5.144,10.334,11.482
			c0,6.346-4.628,11.488-10.334,11.488H11.014z"/>
		<path style="clip-path:url(#SVGID_6_);fill:none;stroke:#FFFFFF;stroke-width:1.35;" d="M41.5,23.645
			c-5.712,0-10.339-5.142-10.339-11.488c0-6.338,4.627-11.482,10.339-11.482h9.491c5.706,0,10.334,5.144,10.334,11.482
			c0,6.346-4.628,11.488-10.334,11.488H41.5z"/>
	</g>
	<polygon style="fill:#003764;" points="33.668,11.678 28.332,17.014 28.332,6.336 	"/>
</g>
<g id="Layer_1">
</g>
</svg>
