<?xml version="1.0" encoding="iso-8859-1"?>
<!-- Generator: Adobe Illustrator 18.0.0, SVG Export Plug-In . SVG Version: 6.00 Build 0)  -->
<!DOCTYPE svg PUBLIC "-//W3C//DTD SVG 1.1//EN" "http://www.w3.org/Graphics/SVG/1.1/DTD/svg11.dtd">
<svg version="1.1" xmlns="http://www.w3.org/2000/svg" xmlns:xlink="http://www.w3.org/1999/xlink" x="0px" y="0px"
	 viewBox="0 0 14.368 40" style="enable-background:new 0 0 14.368 40;" xml:space="preserve">
<g id="Layer_1_1_">
	<g>
		<defs>
			<rect id="SVGID_1_" x="0" width="14.367" height="40"/>
		</defs>
		<clipPath id="SVGID_2_">
			<use xlink:href="#SVGID_1_"  style="overflow:visible;"/>
		</clipPath>
		<path style="clip-path:url(#SVGID_2_);fill:#123C64;" d="M14.368,0H9.453c0,0-2.786,0-2.786,3v9c0,0,0,2-1.6,3.2l-4,3
			c0,0-2.4,1.8,0,3.6l4,3c0,0,1.6,1.2,1.6,3.2v8c0,0-0.214,4,3,4h3.915c-4,0-4.129-4-4.129-4v-6c0-5-2.017-6.471-2.017-6.471
			L3.73,20.618c-0.786-0.618,0-1.236,0-1.236l4.223-3.529C9.453,14.5,9.453,11,9.453,11V4C9.453,0,14.368,0,14.368,0"/>
	</g>
</g>
<g id="Layer_1">
</g>
</svg>
