<?xml version="1.0" encoding="utf-8"?>
<!-- Generator: Adobe Illustrator 18.0.0, SVG Export Plug-In . SVG Version: 6.00 Build 0)  -->
<!DOCTYPE svg PUBLIC "-//W3C//DTD SVG 1.1//EN" "http://www.w3.org/Graphics/SVG/1.1/DTD/svg11.dtd">
<svg version="1.1" id="Layer_1" xmlns="http://www.w3.org/2000/svg" xmlns:xlink="http://www.w3.org/1999/xlink" x="0px" y="0px"
	 viewBox="0 94.7 600 410.6" enable-background="new 0 94.7 600 410.6" xml:space="preserve">
<path fill="#FFF200" d="M108.2,461.2L4.6,342l12.8-145.9l122.6-97.4l455.3,39.9l-31.7,362.5L108.2,461.2z M44.7,291.1
	c9,0.8,17-5.8,17.8-14.8c0.8-9-5.8-17-14.8-17.8c-9-0.8-17,5.8-17.8,14.8C29.3,282.3,35.9,290.3,44.7,291.1z"/>
<g>
	<path d="M13.8,193.9L0.6,343.2L106.2,465l460.7,40.3L599.4,135L138.7,94.7L13.8,193.9z M141.1,102.5L591,142l-31.1,354.9L110,457.4
		L8.6,340.6l12.6-142.5L141.1,102.5z"/>
	<path d="M33.3,259.6c-4.2,3.4-6.6,8.4-7.2,13.8c0,0.6-0.8,9.6,4.8,14.8c3.4,4.2,8.4,6.6,13.8,7.2c5.4,0.4,10.6-1.2,14.8-4.6
		c4.2-3.4,6.6-8.4,7.2-13.8c0.4-5.4-1.2-10.6-4.6-14.8c-3.4-4.2-8.4-6.6-13.8-7.2C42.7,254.4,37.5,256,33.3,259.6z M45.3,287.5
		L45.3,287.5c-3.4-0.2-6.4-1.8-8.6-4.4c-2.2-2.6-3.2-5.8-2.8-9.2c0.2-3.4,1.8-6.4,4.4-8.6c2.6-2.2,5.8-3.2,9.2-2.8
		c3.4,0.2,6.4,1.8,8.6,4.4c2.2,2.6,3.2,5.8,2.8,9.2c-0.2,3.4-1.8,6.4-4.4,8.6C51.7,286.5,48.5,287.7,45.3,287.5z M44.3,294.9
		L44.3,294.9L44.3,294.9z"/>
</g>
<g>
	<path fill="none" d="M174.1,331.8c1.6-9.6-21.4-9.6-21.4-9.6l-1.4,15.6C151.3,337.8,173.5,342.4,174.1,331.8z"/>
	<path fill="none" d="M149.1,360.8l-1.4,18c0,0,27.7,4.4,29.1-6.6C177.6,360.6,149.1,360.8,149.1,360.8z"/>
	<path fill="none" d="M162.7,207.7c0.8-10.4-21.4-9.6-21.4-9.6l-1.4,15.6C139.9,213.7,162.1,218.3,162.7,207.7z"/>
	<path fill="none" d="M165.1,248.2c0.6-11.8-27.7-11.4-27.7-11.4l-1.4,18C136.1,254.8,164.3,259.2,165.1,248.2z"/>
	<path fill="none" d="M537.7,332.2l-0.2,2.2c0,0,3.2,0.8,3.2-1.2C541.1,332.2,537.7,332.2,537.7,332.2z"/>
	<path fill="none" d="M558.7,333l-0.4,6c0.2,0,4,0.4,4.4-2.8C562.9,332.8,559.1,333,558.7,333z"/>
	<path fill="none" d="M539.1,329.8c-2.6-0.2-4.8,1.6-5,4.2c-0.2,2.6,1.6,4.8,4.2,5c2.6,0.2,4.8-1.6,5-4.2
		C543.5,332.2,541.9,330,539.1,329.8z M541.3,337.8h-1l-1.6-2.8h-1.2l-0.2,2.8h-0.8l0.4-6.2c0,0,3.6,0.2,4,0.6
		c0.4,0.2,0.6,0.8,0.6,1.4c0,1.2-0.8,1.6-1.8,1.6L541.3,337.8z"/>
	<path d="M449.9,350.8l-16.2-30.1l-114-9.8l-5.4,60.5c-0.6,8.6-1.8,16-16,14.8c-14.2-1.4-14-8.8-13.2-17.4l5.4-60.5l-53.3-4.6
		l-5.6,64.3c-2.8,31.7,23,48.5,64.1,51.9c41.1,3.6,69.3-8.6,71.9-40.3l5.4-62.5l46.3,64.3l-4.2,46.9l53.9,4.8l4.2-46.9l57.5-57.3
		l-62.1-5.4L449.9,350.8z"/>
	<path d="M203,353.4c0,0,19.1-2.2,22-21c2.2-25.1-27.5-32.7-57.1-35.3l-64.3-5.6L94,399.7l75.2,6.6c26.7,2.4,56.5-2.8,58.3-25.1
		C228.9,368.4,219.2,359,203,353.4z M152.7,322.3c0,0,23,0,21.4,9.6c-0.8,10.6-22.8,6-22.8,6L152.7,322.3z M147.7,378.7l1.4-18
		c0,0,28.5-0.2,27.7,11.4C175.4,383.1,147.7,378.7,147.7,378.7z"/>
	<polygon points="325,268.4 276.6,264.2 277.6,253.4 320.4,257.2 322.6,228.8 280,225 281,214.9 327.7,218.7 330.1,189.1 
		227.9,180.1 218.4,288.9 322.4,298.1 	"/>
	<path d="M373.9,260.8c0,0,23.4,3,22.6,9.6c-5.2,18-50.9-9.6-50.9-9.6l-19.2,29.5c16.6,7.8,38.5,13.6,57.5,15.2
		c32.9,2.8,67.1-7.2,69.3-33.1c1.6-18.6-14.6-28.7-37.7-34.7c0,0-23-3.4-22.8-9.6c1.6-12.6,34.5,0.6,43.5,6.2l17.4-26.5
		c-14.4-7.8-30.1-12.2-47.5-13.8c-33.1-2.8-67.3,8.6-69.5,34.5C335.3,245.4,352.5,256,373.9,260.8z"/>
	<polygon points="457.7,200.1 454.5,235.4 484.8,237.2 478.2,311.5 533.7,316.3 540.3,242 570.9,245.6 573.9,210.3 	"/>
	<path d="M216.2,257.2c1.2-13-8.6-22.4-24.8-28.1c0,0,20.5-6,22-21c2.2-25.1-27.5-32.7-57.1-35.3L92,167.2l-9.6,108.4l75.2,6.6
		C184.4,284.7,214.2,279.5,216.2,257.2z M141.3,198.1c0,0,22.4-0.8,21.4,9.6c-0.6,10.4-22.8,6-22.8,6L141.3,198.1z M136.1,254.8
		l1.4-18c0,0,28.3-0.4,27.7,11.4C164.3,259.2,136.1,254.8,136.1,254.8z"/>
	<path d="M541.5,333.6c0-0.6-0.2-1.2-0.6-1.4c-0.4-0.4-4-0.6-4-0.6l-0.4,6.2h0.8l0.2-2.8h1.2l1.6,2.8h1l-1.6-2.6
		C540.5,335.2,541.5,334.8,541.5,333.6z M540.7,333.2c0,2-3.2,1.2-3.2,1.2l0.2-2.2C537.7,332.2,541.1,332.2,540.7,333.2z"/>
	<path d="M539.3,329c-3-0.2-5.6,2-5.8,5c-0.4,3,2,5.6,5,5.8c3,0.2,5.6-2,5.8-5C544.5,331.8,542.3,329.2,539.3,329z M538.3,339
		c-2.6-0.2-4.4-2.4-4.2-5c0.2-2.6,2.4-4.4,5-4.2c2.6,0.2,4.4,2.4,4.2,5C543.1,337.4,541.1,339.2,538.3,339z"/>
	<path d="M552.1,337.8l-1.6-6.2h-1l-1.2,7.4h1c0,0,0.8-5.4,0.8-6.4c0.2,1,1.6,6.6,1.6,6.6h0.8c0,0,2.4-5.6,2.8-6.4l-0.4,6.4h1
		l0.2-7.4h-1.2C554.7,332,552.3,337,552.1,337.8z"/>
	<path d="M559.7,332.4c-0.6,0-1.4,0-2,0l-0.6,7.2c0,0,0.6,0.2,1.2,0.2c2,0,5-1,5.2-3.6C563.7,333.2,561.1,332.6,559.7,332.4z
		 M558.3,339l0.4-6c0.4,0,4.2-0.2,4,3.2C562.5,339.4,558.5,339,558.3,339z"/>
</g>
</svg>
