<?xml version="1.0" encoding="iso-8859-1"?>
<!-- Generator: Adobe Illustrator 18.0.0, SVG Export Plug-In . SVG Version: 6.00 Build 0)  -->
<!DOCTYPE svg PUBLIC "-//W3C//DTD SVG 1.1//EN" "http://www.w3.org/Graphics/SVG/1.1/DTD/svg11.dtd">
<svg version="1.1" xmlns="http://www.w3.org/2000/svg" xmlns:xlink="http://www.w3.org/1999/xlink" x="0px" y="0px"
	 viewBox="0 0 23.99 23.99" style="enable-background:new 0 0 23.99 23.99;" xml:space="preserve">
<g id="Twitter">
	<g>
		<defs>
			<rect id="SVGID_1_" y="0" width="23.99" height="23.99"/>
		</defs>
		<clipPath id="SVGID_2_">
			<use xlink:href="#SVGID_1_"  style="overflow:visible;"/>
		</clipPath>
		<path style="clip-path:url(#SVGID_2_);fill:#65CDF0;" d="M11.995,23.99c6.625,0,11.995-5.37,11.995-11.995
			C23.99,5.371,18.62,0,11.995,0S0,5.371,0,11.995C0,18.62,5.37,23.99,11.995,23.99"/>
		<path style="clip-path:url(#SVGID_2_);fill:#FFFFFF;" d="M18.013,8.853c-0.442,0.196-0.917,0.329-1.416,0.388
			c0.51-0.305,0.901-0.788,1.084-1.363c-0.477,0.282-1.003,0.487-1.566,0.597c-0.448-0.479-1.09-0.778-1.799-0.778
			c-1.361,0-2.464,1.104-2.464,2.465c0,0.194,0.021,0.381,0.063,0.561C9.866,10.62,8.051,9.64,6.834,8.147
			C6.622,8.513,6.5,8.936,6.5,9.388c0,0.854,0.435,1.609,1.097,2.052c-0.404-0.013-0.784-0.125-1.117-0.308v0.03
			c0,1.195,0.849,2.191,1.978,2.417c-0.207,0.058-0.425,0.087-0.65,0.087c-0.159,0-0.314-0.015-0.463-0.044
			c0.313,0.979,1.223,1.692,2.302,1.711c-0.844,0.662-1.907,1.056-3.061,1.056c-0.199,0-0.396-0.011-0.589-0.034
			c1.091,0.698,2.387,1.107,3.779,1.107c4.535,0,7.014-3.756,7.014-7.014c0-0.107-0.002-0.214-0.007-0.319
			C17.265,9.781,17.684,9.347,18.013,8.853"/>
	</g>
</g>
<g id="Layer_1">
</g>
</svg>
