<?xml version="1.0" encoding="utf-8"?>
<!-- Generator: Adobe Illustrator 19.2.1, SVG Export Plug-In . SVG Version: 6.00 Build 0)  -->
<svg version="1.1" id="Layer_1" xmlns="http://www.w3.org/2000/svg" xmlns:xlink="http://www.w3.org/1999/xlink" x="0px" y="0px"
	 viewBox="0 0 60 60" style="enable-background:new 0 0 60 60;" xml:space="preserve">
<style type="text/css">
	.st0{fill:#FFFFFF;}
	.st1{fill:none;stroke:#000000;stroke-linecap:round;stroke-linejoin:round;stroke-miterlimit:10;}
	.st2{fill:#D1D1D1;}
	.st3{fill:none;stroke:#000000;stroke-width:1.5;stroke-linecap:round;stroke-linejoin:round;stroke-miterlimit:10;}
	.st4{fill:none;stroke:#000000;stroke-width:1.5;stroke-linejoin:round;stroke-miterlimit:10;}
</style>
<g>
	<path d="M18.763,12.487C9.106,12.487,1.25,20.343,1.25,30s7.856,17.513,17.513,17.513S36.276,39.657,36.276,30
		S28.42,12.487,18.763,12.487z M18.763,46.013C9.934,46.013,2.75,38.83,2.75,30s7.184-16.013,16.013-16.013S34.776,21.17,34.776,30
		S27.593,46.013,18.763,46.013z"/>
	<path d="M21.674,30.29c1.322-0.923,2.192-2.45,2.192-4.181c0-2.814-2.289-5.103-5.103-5.103s-5.103,2.289-5.103,5.103
		c0,1.731,0.87,3.258,2.192,4.181c-2.784,1.149-4.749,3.889-4.749,7.082c0,0.414,0.336,0.75,0.75,0.75h13.82
		c0.414,0,0.75-0.336,0.75-0.75C26.423,34.179,24.458,31.439,21.674,30.29z M15.16,26.109c0-1.987,1.616-3.603,3.603-3.603
		s3.603,1.616,3.603,3.603s-1.616,3.603-3.603,3.603S15.16,28.096,15.16,26.109z M12.648,36.622c0.371-3.044,2.972-5.41,6.115-5.41
		s5.744,2.366,6.115,5.41H12.648z"/>
	<path d="M44.826,16.076c-3.284,0-6.473,1.165-8.979,3.281c-0.316,0.268-0.356,0.741-0.089,1.057
		c0.268,0.317,0.741,0.356,1.057,0.089c2.235-1.888,5.081-2.927,8.011-2.927c6.851,0,12.424,5.574,12.424,12.424
		s-5.574,12.424-12.424,12.424c-2.93,0-5.776-1.04-8.012-2.928c-0.316-0.267-0.79-0.227-1.057,0.089
		c-0.267,0.316-0.227,0.79,0.089,1.057c2.506,2.116,5.695,3.282,8.979,3.282c7.678,0,13.924-6.247,13.924-13.924
		S52.503,16.076,44.826,16.076z"/>
	<path d="M39.571,34.748c0,0.414,0.336,0.75,0.75,0.75h9.01c0.414,0,0.75-0.336,0.75-0.75c0-2.042-1.183-3.797-2.889-4.666
		c0.744-0.658,1.222-1.608,1.222-2.677c0-1.979-1.609-3.588-3.588-3.588s-3.588,1.609-3.588,3.588c0,1.069,0.479,2.019,1.222,2.677
		C40.754,30.951,39.571,32.705,39.571,34.748z M42.738,27.405c0-1.151,0.937-2.088,2.088-2.088s2.088,0.937,2.088,2.088
		s-0.937,2.088-2.088,2.088S42.738,28.556,42.738,27.405z M44.826,30.993c1.813,0,3.331,1.292,3.68,3.005h-7.359
		C41.495,32.285,43.012,30.993,44.826,30.993z"/>
</g>
</svg>
