<?xml version="1.0" encoding="utf-8"?>
<!-- Generator: Adobe Illustrator 19.2.1, SVG Export Plug-In . SVG Version: 6.00 Build 0)  -->
<svg version="1.1" id="Layer_1" xmlns="http://www.w3.org/2000/svg" xmlns:xlink="http://www.w3.org/1999/xlink" x="0px" y="0px"
	 viewBox="0 0 60 60" style="enable-background:new 0 0 60 60;" xml:space="preserve">
<style type="text/css">
	.st0{clip-path:url(#SVGID_2_);fill:url(#SVGID_3_);}
	.st1{fill:none;stroke:#000000;stroke-width:1.5;stroke-linecap:round;stroke-linejoin:round;stroke-miterlimit:10;}
	.st2{fill:#282828;}
	.st3{fill:#FFFFFF;stroke:#000000;stroke-width:1.5;stroke-linecap:round;stroke-linejoin:round;stroke-miterlimit:10;}
	.st4{fill:none;stroke:#000000;stroke-width:1.5;stroke-miterlimit:10;}
	.st5{fill:#FFFFFF;}
</style>
<path d="M48.3,55.8H11.7c-0.4,0-0.8-0.3-0.8-0.8V5c0-0.4,0.3-0.8,0.8-0.8h36.5C48.7,4.2,49,4.6,49,5v50C49,55.4,48.7,55.8,48.3,55.8
	z M12.5,54.2h35V5.8h-35V54.2z"/>
<g>
	<path d="M30,23.6c-3.5,0-6.4,2.9-6.4,6.4s2.9,6.4,6.4,6.4s6.4-2.9,6.4-6.4S33.5,23.6,30,23.6z M30,34.9v-9.8c2.7,0,4.9,2.2,4.9,4.9
		S32.7,34.9,30,34.9z"/>
	<rect x="29.2" y="19.9" width="1.5" height="4.3"/>
	<rect x="23.6" y="22.3" transform="matrix(0.707 -0.7072 0.7072 0.707 -10.1033 24.3972)" width="1.5" height="4.3"/>
	<rect x="19.9" y="29.2" width="4.3" height="1.5"/>
	<rect x="22.3" y="34.9" transform="matrix(0.7071 -0.7071 0.7071 0.7071 -18.0348 27.6769)" width="4.3" height="1.5"/>
	<rect x="29.2" y="35.8" width="1.5" height="4.3"/>
	<rect x="34.9" y="33.5" transform="matrix(0.707 -0.7072 0.7072 0.707 -14.7495 35.6166)" width="1.5" height="4.3"/>
	<rect x="35.8" y="29.2" width="4.3" height="1.5"/>
	<rect x="33.5" y="23.6" transform="matrix(0.7071 -0.7071 0.7071 0.7071 -6.818 32.3231)" width="4.3" height="1.5"/>
</g>
</svg>
