<?xml version="1.0" encoding="utf-8"?>
<!-- Generator: Adobe Illustrator 19.2.1, SVG Export Plug-In . SVG Version: 6.00 Build 0)  -->
<svg version="1.1" id="Layer_1" xmlns="http://www.w3.org/2000/svg" xmlns:xlink="http://www.w3.org/1999/xlink" x="0px" y="0px"
	 viewBox="0 0 60 60" style="enable-background:new 0 0 60 60;" xml:space="preserve">
<style type="text/css">
	.st0{fill:#FFFFFF;}
	.st1{fill:none;stroke:#000000;stroke-linecap:round;stroke-linejoin:round;stroke-miterlimit:10;}
	.st2{fill:#D1D1D1;}
	.st3{fill:none;stroke:#000000;stroke-width:1.5;stroke-linecap:round;stroke-linejoin:round;stroke-miterlimit:10;}
	.st4{fill:none;stroke:#000000;stroke-width:1.5;stroke-linejoin:round;stroke-miterlimit:10;}
</style>
<g>
	<rect x="41.939" y="12.134" width="4" height="8.87"/>
</g>
<g>
	<rect x="33.5" y="12.134" width="4" height="8.87"/>
</g>
<g>
	<rect x="25.061" y="12.134" width="4" height="8.87"/>
</g>
<path d="M55.334,52.429h-3.491V6.935c0-0.414-0.336-0.75-0.75-0.75H20.737c-0.215,0-0.419,0.092-0.562,0.253L8.545,19.591
	c-0.121,0.138-0.188,0.314-0.188,0.497v32.341H3.334c-0.414,0-0.75,0.336-0.75,0.75s0.336,0.75,0.75,0.75h52
	c0.414,0,0.75-0.336,0.75-0.75S55.749,52.429,55.334,52.429z M9.857,20.372L21.075,7.685h29.268v44.679H9.857V20.372z"/>
</svg>
