<svg 
	version="1.1" 
	xmlns="http://www.w3.org/2000/svg" 
	xmlns:xlink="http://www.w3.org/1999/xlink" 
	x="0px" 
	y="0px"
	width="100%" 
	height="100%" 
	viewBox="0 -5 85 85" 
	enable-background="new 0 0 85 85" 
	xml:space="preserve">
<g>
	<defs>
		<rect id="SVGID_1_" width="75" height="75"/>
	</defs>
	<clipPath id="SVGID_2_">
		<use xlink:href="#SVGID_1_"  overflow="visible"/>
	</clipPath>
	<path clip-path="url(#SVGID_2_)" d="M29.001,58.998c-2.763,0-5.001,2.238-5.001,5s2.238,5,5.001,5
		c2.761,0,4.999-2.238,4.999-5S31.762,58.998,29.001,58.998"/>
	<path clip-path="url(#SVGID_2_)" d="M61,58.998c-2.764,0-5,2.238-5,5S58.236,69,61,69c2.761,0,5-2.24,5-5.002
		S63.761,58.998,61,58.998"/>
	<path clip-path="url(#SVGID_2_)" d="M28.609,17c-1.112-3-4.466-6-8.308-6H11v5h9.301C22.272,16,24,17.612,24,19.452
		v28.517C24,52.546,27.569,56,32.301,56H66v-5H32.301C30.296,51,29,49.809,29,47.969V21.99h35.598
		c-0.385,5-0.951,11.887-1.216,13.64c-0.274,1.808-1.979,3.139-4.451,3.477C56.135,39.49,41.588,41.164,35,41.962v5.036
		c6.273-0.759,21.651-2.535,24.609-2.939c4.686-0.642,8.106-3.658,8.716-7.687c0.426-2.811,1.421-16.121,1.464-16.687l0.2-2.685
		H28.609z"/>
</g>
</svg>
