<?xml version="1.0" encoding="utf-8"?>
<!-- Generator: Adobe Illustrator 18.1.1, SVG Export Plug-In . SVG Version: 6.00 Build 0)  -->
<!DOCTYPE svg PUBLIC "-//W3C//DTD SVG 1.1//EN" "http://www.w3.org/Graphics/SVG/1.1/DTD/svg11.dtd">
<svg version="1.1" id="Laag_1" xmlns="http://www.w3.org/2000/svg" xmlns:xlink="http://www.w3.org/1999/xlink" x="0px" y="0px"
	 viewBox="574.7 400 41.2 41.9" enable-background="new 574.7 400 41.2 41.9" xml:space="preserve">
<g>
	<path id="The_Sharpness" opacity="0.12" fill-rule="evenodd" clip-rule="evenodd" fill="#420000" d="M592.4,416.7l6.7,4.5l0.9-0.5
		L592.4,416.7z"/>
	<g id="Lozenge">
		<g>
			<path fill="#007398" d="M609.1,415.3c0,0-0.3-1.9-1.1-2.8c-1.1-1.1-2.3-1.1-2.8-1.2c-4-0.3-9.9-0.3-9.9-0.3h0c0,0-5.9,0-9.9,0.3
				c-0.6,0.1-1.8,0.1-2.8,1.2c-0.8,0.9-1.1,2.8-1.1,2.8s-0.3,2.3-0.3,4.6v2.1c0,2.3,0.3,4.6,0.3,4.6s0.3,1.9,1.1,2.8
				c1.1,1.1,2.5,1.1,3.1,1.2c2.3,0.2,9.6,0.3,9.6,0.3s5.9,0,9.9-0.3c0.6-0.1,1.8-0.1,2.8-1.2c0.8-0.9,1.1-2.8,1.1-2.8
				s0.3-2.3,0.3-4.6v-2.1C609.4,417.6,609.1,415.3,609.1,415.3z M592.4,424.6l0-7.9l7.6,4L592.4,424.6z"/>
		</g>
	</g>
</g>
</svg>
