<?xml version="1.0" encoding="UTF-8"?>
<svg width="115px" height="46px" viewBox="0 0 115 46" version="1.1" xmlns="http://www.w3.org/2000/svg" xmlns:xlink="http://www.w3.org/1999/xlink">
    <!-- Generator: Sketch 42 (36781) - http://www.bohemiancoding.com/sketch -->
    <title>Media Temple</title>
    <desc>Created with Sketch.</desc>
    <defs>
        <polygon id="path-1" points="7.90550684e-21 0.179967521 7.90550684e-21 44.9422752 11.879557 44.9422752 11.879557 0.179967521 0 0.179967521"></polygon>
        <polygon id="path-3" points="0.254737349 45.042735 12.1329527 45.042735 12.1329527 0.278538462 0.254737349 0.278538462 0.254737349 45.042735"></polygon>
        <polygon id="path-5" points="0 45.153453 114.214731 45.153453 114.214731 0.290598291 0 0.290598291"></polygon>
    </defs>
    <g id="Page-1" stroke="none" stroke-width="1" fill="none" fill-rule="evenodd">
        <g id="Homepage-Copy" transform="translate(-386.000000, -1924.000000)">
            <g id="Media-Temple" transform="translate(386.000000, 1924.000000)">
                <path d="M23.0267513,13.9247726 L23.0267513,16.6180376 L23.1909569,16.6180376 C28.0462496,13.7030462 33.0610813,13.4723111 36.0587804,13.4723111 C44.1488933,13.4723111 46.90043,15.7732684 47.9530372,16.6180376 C49.8126723,15.5448581 53.8571454,13.4723111 60.7327789,13.4723111 C74.493379,13.4723111 74.493379,18.8812171 74.493379,21.0679692 L74.493379,33.8104137 L63.4067336,33.8104137 L63.4067336,22.4593538 C63.4067336,20.1089949 63.4067336,17.5008752 57.4970837,17.5008752 C54.5868831,17.5008752 51.5915172,18.3837128 50.5424099,19.6879179 C49.5697181,20.8014906 49.163725,21.7985333 49.163725,24.2540889 L49.163725,33.8104137 L38.0782462,33.8104137 L38.0782462,22.9097812 C38.0782462,19.5330291 38.1569949,17.5008752 32.3348436,17.5008752 C29.420268,17.5008752 26.429277,18.2695077 25.2947129,19.4188239 C24.4054363,20.3016615 23.8343627,21.2225675 23.8343627,24.1465675 L23.8343627,33.8104137 L12.7541338,33.8104137 L12.7541338,13.9247726 L23.0267513,13.9247726 Z" id="Fill-1" fill="#FFFFFF"></path>
                <path d="M101.223126,18.3277436 L93.1790956,18.3277436 L93.1790956,26.2953675 C93.1790956,29.1095214 93.1790956,30.0304274 96.4667065,30.0304274 C98.0273884,30.0304274 99.408115,29.8488034 100.878965,29.5709915 L101.223126,29.5332137 L102.258525,33.5774701 C98.3715492,34.2967009 94.1302044,34.3728376 92.9224332,34.3728376 C89.2929948,34.3728376 84.6176573,33.8349402 82.8907283,32.3560855 C81.4198782,31.1326667 81.2445895,29.9519658 81.2445895,26.9407863 L81.2445895,18.3277436 L75.7978068,18.3277436 L75.7978068,14.1713162 L81.2445895,14.1713162 L81.2445895,10.2435897 L93.1790956,7.15801709 L93.1790956,14.1713162 L101.223126,14.1713162 L101.223126,18.3277436 Z" id="Fill-3" fill="#FFFFFF"></path>
                <g id="Group-7" transform="translate(0.000000, 0.110718)">
                    <mask id="mask-2" fill="white">
                        <use xlink:href="#path-1"></use>
                    </mask>
                    <g id="Clip-6"></g>
                    <path d="M7.33225905,44.9422752 C2.9223338,38.3151812 -0.000116664689,30.4417111 -0.000116664689,22.5168051 C-0.000116664689,13.1621556 3.69144576,5.53511282 7.42442415,0.179967521 L11.879557,0.179967521 C8.57357134,7.48444615 6.32369281,13.6843607 6.32369281,22.7094718 C6.32369281,33.0588393 10.0073804,41.0346 11.6861852,44.6528393 C11.7346011,44.7045658 11.8323078,44.8951983 11.8323078,44.9422752 L7.33225905,44.9422752 Z" id="Fill-5" fill="#FFFFFF" mask="url(#mask-2)"></path>
                </g>
                <g id="Group-10" transform="translate(102.081603, 0.110718)">
                    <mask id="mask-4" fill="white">
                        <use xlink:href="#path-3"></use>
                    </mask>
                    <g id="Clip-9"></g>
                    <path d="M4.80728518,0.278538462 C9.21166886,6.91086325 12.1329527,14.7889829 12.1329527,22.7092393 C12.1329527,32.0618547 8.44693182,39.687735 4.7119118,45.0428803 L0.254737349,45.0428803 C3.56043132,37.7328803 5.81351812,31.5309316 5.81351812,22.5165726 C5.81351812,12.1581966 2.1257473,4.19289744 0.44460913,0.563034188 C0.398526578,0.518282051 0.303153195,0.325615385 0.303153195,0.278538462 L4.80728518,0.278538462 Z" id="Fill-8" fill="#FFFFFF" mask="url(#mask-4)"></path>
                </g>
                <path d="M13.9687299,38.9697248 L15.2683745,38.9697248 L15.2683745,39.549759 L15.3010406,39.549759 C15.7609912,39.1804085 16.6176017,38.8709214 17.8522057,38.8709214 C19.0710601,38.8709214 19.9259206,39.1240325 20.272998,39.6058444 C20.5690347,39.3794684 21.3086888,38.8709214 22.9055367,38.8709214 C25.5389504,38.8709214 25.5558668,39.9754855 25.5558668,40.2756735 L25.5558668,43.1412632 L24.1063081,43.1412632 L24.1063081,40.5066991 C24.1063081,40.1053829 24.1063081,39.4849556 22.5747923,39.4849556 C21.9518029,39.4849556 21.2109821,39.6372291 20.8647797,39.9194 C20.586826,40.1524598 20.4835778,40.4055709 20.4835778,40.7173829 L20.4835778,43.1412632 L19.0398523,43.1412632 L19.0398523,40.4262034 C19.0398523,40.0292462 18.9567287,39.4849556 17.539836,39.4849556 C16.7663491,39.4849556 16.0418614,39.6819812 15.7787825,39.9688017 C15.4687461,40.3070581 15.4168303,40.6116051 15.4168303,40.974853 L15.4168303,43.1412632 L13.9687299,43.1412632 L13.9687299,38.9697248 Z" id="Fill-11" fill="#FFFFFF"></path>
                <path d="M32.7632363,41.7996581 C32.5821144,42.0391111 32.1370386,42.6595385 30.5086912,42.6595385 C29.2245046,42.6595385 28.0237333,42.233812 27.9082353,41.2327009 L34.2924187,41.2327009 C34.4259998,38.9759145 31.152097,38.8710085 30.4264426,38.8710085 C27.825695,38.8710085 26.4268854,39.8142906 26.4268854,41.0868205 C26.4268854,42.3750427 27.8598194,43.2401538 30.5086912,43.2401538 C32.6156555,43.2401538 33.8155518,42.6755214 34.2463362,41.8888718 L32.7632363,41.7996581 Z M27.9913589,40.6544103 C28.0733158,40.1054701 28.8129699,39.4533675 30.4264426,39.4533675 C31.4644667,39.4533675 32.2852027,39.7625641 32.5821144,40.121453 C32.7483616,40.3251624 32.7801527,40.499812 32.8148604,40.6544103 L27.9913589,40.6544103 L27.9913589,40.6544103 Z" id="Fill-13" fill="#FFFFFF"></path>
                <path d="M40.7622924,43.1414085 L42.1103529,43.1414085 L42.1103529,37.3730325 L40.6631274,37.3730325 L40.6631274,39.4441265 L40.630753,39.4441265 C40.1853855,39.1128444 39.3780659,38.8710667 38.3111673,38.8710667 C36.1712452,38.8710667 34.7047701,39.6934598 34.7047701,41.0531692 C34.7047701,42.3910838 36.3512005,43.240212 38.3773745,43.240212 C38.6888692,43.240212 39.9558477,43.240212 40.7307929,42.6107761 L40.7622924,42.6107761 L40.7622924,43.1414085 Z M36.1890366,41.0531692 C36.1890366,40.7506564 36.2847016,39.4534256 38.4584564,39.4534256 C40.2192183,39.4534256 40.7946668,40.3069128 40.7946668,41.1202974 C40.7946668,42.5523658 38.9843225,42.6595966 38.523497,42.6595966 C37.6846779,42.6595966 36.1890366,42.3660923 36.1890366,41.0531692 L36.1890366,41.0531692 Z" id="Fill-15" fill="#FFFFFF"></path>
                <mask id="mask-6" fill="white">
                    <use xlink:href="#path-5"></use>
                </mask>
                <g id="Clip-18"></g>
                <path d="M43.5439286,38.1796752 L44.9934873,38.1796752 L44.9934873,37.3729744 L43.5439286,37.3729744 L43.5439286,38.1796752 Z M43.5439286,43.1413504 L44.9934873,43.1413504 L44.9934873,38.969812 L43.5439286,38.969812 L43.5439286,43.1413504 Z" id="Fill-17" fill="#FFFFFF" mask="url(#mask-6)"></path>
                <path d="M47.5593813,40.2490547 C47.7413783,39.9017897 47.9697494,39.4533966 49.7821353,39.4533966 C51.9039744,39.4533966 51.8882246,40.0406957 51.8546835,40.4908325 C51.0313225,40.634388 49.4697656,40.7172085 49.253936,40.734935 C48.3150769,40.7886957 45.8974928,40.9302171 45.8974928,42.0391402 C45.8974928,42.7316359 46.9340586,43.2401829 48.8097351,43.2401829 C49.7316779,43.2401829 50.7358692,43.1346957 51.9515152,42.6261487 C51.9873896,42.7316359 52.0174308,42.924012 52.2481352,43.1413795 L53.7636095,43.1413795 C53.3016173,42.7383197 53.3016173,42.4648667 53.3016173,41.3960462 L53.3016173,40.4437556 C53.3016173,39.717841 53.3016173,38.8710376 49.9938817,38.8710376 C46.7024792,38.8710376 46.3090275,39.7893282 46.144822,40.1639094 L47.5593813,40.2490547 Z M51.8546835,41.3042171 C51.8546835,41.6538068 51.7893513,41.9830547 51.2136111,42.2899265 C50.5366642,42.641841 49.5674723,42.684559 49.1562293,42.684559 C47.852793,42.684559 47.4435916,42.3189863 47.4435916,42.0231573 C47.4435916,41.4585248 48.5801974,41.3780291 49.4697656,41.3132256 C50.2242945,41.2571402 51.294693,41.1519436 51.8546835,41.0487812 L51.8546835,41.3042171 L51.8546835,41.3042171 Z" id="Fill-19" fill="#FFFFFF" mask="url(#mask-6)"></path>
                <path d="M58.6829511,39.8455009 L57.1540604,39.8455009 L57.1540604,41.5330051 C57.1540604,42.1266974 57.1540604,42.3190735 57.7799664,42.3190735 C58.0748364,42.3190735 58.3379153,42.2786803 58.6190772,42.2231761 L58.6829511,42.2185265 L58.8841977,43.0723043 C58.1401687,43.2219624 57.3372239,43.2402701 57.1033112,43.2402701 C56.4129479,43.2402701 55.5268796,43.1237402 55.1952602,42.8122188 C54.9164316,42.5521333 54.8837655,42.3036718 54.8837655,41.6675521 L54.8837655,39.8455009 L53.8469081,39.8455009 L53.8469081,38.9696376 L54.8837655,38.9696376 L54.8837655,38.1393983 L57.1540604,37.4872957 L57.1540604,38.9696376 L58.6829511,38.9696376 L58.6829511,39.8455009 Z" id="Fill-20" fill="#FFFFFF" mask="url(#mask-6)"></path>
                <path d="M64.1647332,41.8149726 C64.0498185,42.0056051 63.7844063,42.3909385 62.7320908,42.3909385 C61.4481959,42.3909385 60.9059968,41.8690239 60.8736223,41.3718103 L66.5339014,41.3718103 C66.5843589,40.1367675 65.6959572,38.8709214 62.487095,38.8709214 C59.7883491,38.8709214 58.5694947,39.9534 58.5694947,41.0823744 C58.5694947,41.4249897 58.7001592,41.8353145 59.0799027,42.2430239 C59.9887207,43.1929897 61.9586039,43.2400667 62.6985497,43.2400667 C65.5297101,43.2400667 66.2378647,42.2587162 66.4224866,41.9989214 L64.1647332,41.8149726 Z M60.9240798,40.6947162 C60.9059968,40.1481009 61.5479442,39.7177248 62.6174678,39.7177248 C62.9639619,39.7177248 64.2490234,39.7831094 64.2974393,40.6947162 L60.9240798,40.6947162 L60.9240798,40.6947162 Z" id="Fill-21" fill="#FFFFFF" mask="url(#mask-6)"></path>
                <path d="M69.2155559,38.9697248 L69.2155559,39.5317419 L69.2514303,39.5317419 C70.2387052,38.9179983 71.2574796,38.8709214 71.865886,38.8709214 C73.5128997,38.8709214 74.0728903,39.3550581 74.2866783,39.5317419 C74.6664219,39.3056564 75.4897829,38.8709214 76.8874259,38.8709214 C79.6859201,38.8709214 79.6859201,40.0089043 79.6859201,40.466306 L79.6859201,43.1412632 L77.4305,43.1412632 L77.4305,40.7574855 C77.4305,40.266665 77.4305,39.7177248 76.2273954,39.7177248 C75.6347388,39.7177248 75.0277907,39.9016735 74.8160443,40.1791949 C74.6150894,40.4102205 74.5340074,40.6162547 74.5340074,41.136135 L74.5340074,43.1412632 L72.277129,43.1412632 L72.277129,40.8539641 C72.277129,40.1481009 72.2955037,39.7177248 71.1090238,39.7177248 C70.5175339,39.7177248 69.9102941,39.8790068 69.6787147,40.1213658 C69.4967178,40.3070581 69.3829698,40.5000154 69.3829698,41.1140496 L69.3829698,43.1412632 L67.126383,43.1412632 L67.126383,38.9697248 L69.2155559,38.9697248 Z" id="Fill-22" fill="#FFFFFF" mask="url(#mask-6)"></path>
                <path d="M80.77236,38.9697248 L80.77236,44.7276393 L83.0277801,44.7276393 L83.0277801,42.6594513 C83.3547329,42.8434 84.1296781,43.2400667 85.5104047,43.2400667 C87.4062059,43.2400667 89.1007605,42.5705282 89.1007605,41.0957419 C89.1007605,39.5968359 87.3714982,38.8709214 85.5284877,38.8709214 C85.0192464,38.8709214 83.7834757,38.9583915 82.9131571,39.5831778 L82.8749494,39.5831778 L82.8749494,38.9697248 L80.77236,38.9697248 Z M83.0099888,41.1521179 C83.0099888,40.5470923 83.2255268,40.2445795 83.7697676,39.9821692 C84.1792606,39.789212 84.6739189,39.7467846 84.9854136,39.7467846 C85.7556922,39.7467846 86.7788415,40.0135538 86.7788415,41.048665 C86.7788415,41.5147846 86.5630119,42.3909385 84.9043317,42.3909385 C83.8485162,42.3909385 83.0099888,41.9989214 83.0099888,41.1521179 L83.0099888,41.1521179 Z" id="Fill-23" fill="#FFFFFF" mask="url(#mask-6)"></path>
                <polygon id="Fill-24" fill="#FFFFFF" mask="url(#mask-6)" points="89.8067277 43.1413504 92.0633145 43.1413504 92.0633145 37.3729744 89.8067277 37.3729744"></polygon>
                <path d="M98.3005296,41.8149726 C98.1838649,42.0056051 97.9193277,42.3909385 96.8646789,42.3909385 C95.5831173,42.3909385 95.0397515,41.8690239 95.0073771,41.3718103 L100.668531,41.3718103 C100.71928,40.1367675 99.828837,38.8709214 96.6217247,38.8709214 C93.9197705,38.8709214 92.7044161,39.9534 92.7044161,41.0823744 C92.7044161,41.4249897 92.8371222,41.8353145 93.2148241,42.2430239 C94.1189755,43.1929897 96.0935253,43.2400667 96.8334711,43.2400667 C99.6634648,43.2400667 100.372786,42.2587162 100.555075,41.9989214 L98.3005296,41.8149726 Z M95.0543346,40.6947162 C95.0397515,40.1481009 95.681699,39.7177248 96.7544308,39.7177248 C97.0962583,39.7177248 98.3804449,39.7831094 98.4297357,40.6947162 L95.0543346,40.6947162 L95.0543346,40.6947162 Z" id="Fill-25" fill="#FFFFFF" mask="url(#mask-6)"></path>
                <polygon id="Fill-26" fill="#FFFFFF" mask="url(#mask-6)" points="83.7607552 43.9995744 83.5011763 43.9995744 83.5011763 43.8583436 84.1994144 43.8583436 84.1994144 43.9995744 83.9340023 43.9995744 83.9340023 44.6760872 83.7607552 44.6760872"></polygon>
                <polygon id="Fill-27" fill="#FFFFFF" mask="url(#mask-6)" points="84.3096042 43.8582564 84.5715165 43.8582564 84.7322221 44.4162051 84.8897194 43.8582564 85.1574649 43.8582564 85.1574649 44.676 84.9932593 44.676 84.9932593 44.0331966 84.817679 44.676 84.6490985 44.676 84.4770181 44.0331966 84.4735181 44.0331966 84.4735181 44.676 84.3096042 44.676"></polygon>
            </g>
        </g>
    </g>
</svg>