<?xml version="1.0" encoding="utf-8"?>
<!-- Generator: Adobe Illustrator 16.0.4, SVG Export Plug-In . SVG Version: 6.00 Build 0)  -->
<!DOCTYPE svg PUBLIC "-//W3C//DTD SVG 1.1//EN" "http://www.w3.org/Graphics/SVG/1.1/DTD/svg11.dtd">
<svg version="1.1" id="Layer_3" xmlns="http://www.w3.org/2000/svg" xmlns:xlink="http://www.w3.org/1999/xlink" x="0px" y="0px"
	 width="678.5px" height="218.5px" viewBox="0 0 678.5 218.5" enable-background="new 0 0 678.5 218.5" xml:space="preserve">
<g>
	<path fill="#FFFFFF" d="M104.903,101.181l-17.128-0.035c0,0-0.523-1.961,1.173-3.006c1.697-1.045,4.026-2.154,2.851-5.418
		c0,0,1.759-0.632,4.239,3.028c0,0-0.447-2.538,0.297-5.444c0.688-2.68,2.16-3.575,2.16-3.575s1.045,2.161,2.982,3.877
		c2.354,2.077,3.275,2.444,3.668,6.097C105.536,100.359,104.903,101.181,104.903,101.181z"/>
	<path fill="#FFFFFF" d="M125.603,91.965c0,0,2.803-0.631,3.702-4.014c0,0,4.217,4.089,2.91,9.961c0,0,2.336-0.737,2.969-2.121
		c1.303-2.878,2.635-4.756,4.061-4.563c0,0-0.641,2.844,1.667,6.33c1.921,2.901,3.579,3.678,3.579,3.678l-37.125,0.037
		c0,0,0.915-3.917-0.13-6.79c-1.046-2.873-2.255-4.623-2.255-4.623c-0.131-1.048,0.295-3.345,1.339-4.515
		c1.046-1.179,2.404-3.771,2.452-5.792c0,0,2.957,2.422,4.993,9.707c0,0,0.663-3.538,2.741-5.612
		c1.095-1.101,2.394-1.567,2.394-1.567S120.157,86.792,125.603,91.965z"/>
	<path fill="#FFFFFF" d="M127.122,34.572c0,0,2.65-4.645,5.905-7.493c7.493-6.563,13.676-6.374,21.721,0.38l61.656,60.328
		c2.998,3.09,8.619,9.274,11.335,9.933c0,0-5.354,1.179-10.772-1.128c-4.362-1.854-9.647-7.59-9.647-7.59L159.795,41.15
		c0,0-1.142-1.417-2.413-0.279c-1.235,1.106,0.185,2.415,0.185,2.415l51.754,51.26c0,0,3.146,2.652,6.535,3.45
		c0,0-5.742,1.39-13.583-2.717c0,0-3.23-2.298-5.715-4.779c-2.478-2.478-40.576-40.915-40.576-40.915s-1.155-0.957-2.176,0.121
		c-1.065,1.128,0.347,2.671,0.347,2.671l41.769,41.315c0,0,2.12,2.245,5.49,3.367c0,0-7.785,0.522-12.616-3.007
		c-4.838-3.524-37.893-37.094-37.893-37.094s-1.423-0.904-2.208,0.138c-0.785,1.041-0.127,2.092-0.127,2.092l32.258,31.281
		c0,0,2.758,2.654,6.595,4.626c0,0-6.333,0.56-12.8-3.56c-4.979-3.178-28.331-26.844-28.331-26.844s-1.457-1.906-2.825-0.416
		c-1.203,1.303,0.851,2.767,0.851,2.767s22.233,23.647,25.98,23.554c0,0-5.134,0.938-20.032-8.905
		c-11.593-7.655-15.926-16.114-15.926-16.114S136.679,54.153,127.122,34.572z"/>
	<path fill-rule="evenodd" clip-rule="evenodd" fill="#FFFFFF" d="M136.159,72.248c0,0,0.677,1.949-2.47,3.298
		c-2.624,1.125-3.265,5.575-5.747,6.55c0,0-3.209-3.942-3.078-8.64c0.035-1.306,0.653-5.485,0.653-5.485s-2.875,0-6.268,1.829
		c-1.312,0.706-3.266,2.742-3.266,2.742s0.979-1.824,0.526-3.839c-1.268-5.655-4.157-6.585-4.157-6.585s0.103,1.676-1.986,4.157
		c-2.088,2.478-2.574,1.912-5.056,4.39c-2.482,2.479-4.344,8.277-4.344,8.277s-1.087-1.807-1.891-2.966
		c-1.845-2.655-3.728-2.907-3.728-2.907s1.664,2.745-2.363,5.913c-3.503,2.758-0.901,8.059-0.901,8.059s-2.533-0.783-5.657-0.236
		c0,0-0.371-0.299-0.515-1.704c-0.097-0.939,0.819-2.108,0.819-2.108s-0.589-0.55-2.55,0.722c-1.492,0.963-2.079,2.074-4.11,6.986
		c-1.12,2.695-1.985,5.615-4.31,5.615c0,0-1.438-0.327-2.219-2.286c-0.925-2.31-0.261-3.855-0.261-3.855s-4.834,2.478-4.834,6.265
		c0,3.79,2.745,4.706,2.745,4.706l13.22-0.111c0-2.616,2.157-4.717,3.625-5.243c0.332-0.121,1.077-1.014,1.178-2.226
		c0.229-2.741-1.568-4.044-1.568-4.044c3.695-1.188,6.401,0.914,6.401,0.914c-0.133-1.568,0.563-3.06,1.574-4.714
		c1.455-2.394,4.362-2.186,4.362-2.186c-0.621,2.282,2.95,4.993,2.95,4.993c0-2.484,1.495-4.993,2.944-6.771
		c1.605-1.961,0.312-6.601,0.312-6.601c4.833,1.956,7.636,8.516,7.636,8.516c2.452-4.318,6.623-4.467,6.623-4.467
		s0.249,2.355,1.572,4.858c1.399,2.644,3.628,5.196,3.628,5.196c2.113-0.926,2.505-4.807,2.505-4.807s1.657-0.274,4.046,3.035
		c1.422,1.956,2.235,5.655,2.235,5.655s1.866-4.369,5.057-4.148c1.434,0.099,2.481,0.265,2.481,0.265s-0.783,1.029-0.783,3.133
		c0,4.577,6.269,9.011,6.269,9.011l13.97,0.087c0,0,2.194-1.154,2.194-4.27c0-5.387-3.888-6.786-3.888-6.786
		c0.391,4.312-2.614,4.569-2.614,4.569s-0.004-1.477-0.657-2.514c-0.653-1.048-1.964-1.798-3.391-2.969
		c-2.15-1.764-1.047-4.313-1.047-4.313c-3.875-0.688-3.525,5.621-3.525,5.621s-2.913-2.443-3.619-5.632
		c-0.626-2.805,1.867-3.116,1.867-3.116s-1.079-2.261-3.699-2.055c-2.478,0.192-4.733,3.226-4.733,3.226
		C140.1,77.092,136.159,72.248,136.159,72.248z"/>
	<path fill-rule="evenodd" clip-rule="evenodd" fill="#FFFFFF" d="M123.956,9.868c0,0-0.612,1.602-2.473,0.435
		c-1.03-0.644-1.276-2.027-1.276-2.027s1.332-0.264,2.605-0.043C123.681,8.381,124.164,9.234,123.956,9.868l4.504,0.056
		c0,0-1.114-4.766-6.729-5.161c-5.617-0.389-8.62-0.128-8.62-0.128s-2.089,0.259-3.134-1.439c-1.047-1.698-0.654-2.351-0.654-2.351
		s-3.266,2.096-3.266,6.006c0,2.611,1.831,4.577,1.831,4.577s-5.095,8.616-6.008,15.408c0,0,6.919,7.179,7.185,15.935h-1.83
		c-0.654-2.484,0.223-8.433-8.36-15.416c-9.099-7.405-18.746-3.103-24.05,1.61L12.481,92.332c0,0-4.925,5.774-8.169,6.072
		c0,0,5.812,1.101,11.233-1.206c4.36-1.857,9.465-7.335,9.465-7.335l46.69-47.432c0,0,1.138-1.253,2.274-0.078
		c1.073,1.113-0.046,2.214-0.046,2.214l-51.366,50.61c0,0-2.247,2.542-5.642,3.345c0,0,9.004,0.258,13.128-2.686
		c0,0,3.135-2.136,5.618-4.618c2.479-2.484,40.484-40.616,40.484-40.616s1.372-0.638,2.024,0.413c0.653,1.04-0.07,2-0.07,2
		L36.707,93.852c0,0-5.481,3.766-6.264,3.766c0,0,8.359,0.787,13.188-2.742c4.833-3.525,38.496-37.339,38.496-37.339
		s1.007-0.812,2.017,0.408c0.833,1.01-0.19,1.943-0.19,1.943L51.337,91.873c0,0-5.092,4.047-6.531,4.047
		c0,0,8.622-0.653,13.583-3.787c4.993-3.153,30.427-28.989,30.427-28.989s0.888-0.901,1.894-0.019
		c1.163,1.018,0.212,2.14,0.212,2.14S68.444,89.522,62.511,91.159c0,0,5.674,0.582,20.03-8.903
		c8.777-5.792,13.332-12.194,13.332-12.194s1.959,0.258,4.31,3.79c0,0,1.697-4.181,4.963-6.662c3.262-2.484,2.742-1.961,4.046-3.395
		c1.307-1.44,1.312-5.021,1.312-5.021s3.67,0.215,5.893,3.346c2.221,3.137,2.077,5.544,2.077,5.544s2.861-2.344,6.129-2.565
		c1.957-0.131,3.34-0.091,3.34-0.091s-0.467,3.224-0.597,5.967c-0.26,5.618,1.043,7.181,1.043,7.181s4.964-7.181,4.05-17.363
		c-0.916-10.188-3.266-17.112-7.444-25.075c-4.18-7.966-3.917-8.095-3.917-11.494c0-3.787,0.391-7.704,8.096-7.837
		c7.706-0.128,8.36,2.614,8.36,2.614l-0.004-0.006c0.827-11.541-9.069-9.069-9.069-9.069L123.956,9.868z"/>
	<g>
		<path fill="#FFFFFF" d="M322.776,102.539l-7.498-21.167h-38.441l-7.499,21.167h-12.591l32.95-90.405h13.661l33.213,90.405H322.776
			z M300.012,38.247c-1.608-4.418-2.811-8.435-3.887-12.321h-0.268c-1.069,3.887-2.275,7.903-3.752,12.188L280.052,71.6h32.011
			L300.012,38.247z"/>
		<path fill="#FFFFFF" d="M383.321,103.612c-29.062,0-41.119-18.484-41.119-44.068c0-27.589,13.664-48.215,44.203-48.215
			c6.964,0,14.323,0.936,20.757,2.811l-2.009,11.252c-6.293-2.146-13.256-3.479-20.091-3.479c-20.626,0-29.467,15.797-29.467,35.623
			c0,22.239,9.65,35.085,30.674,35.085c6.56,0,14.459-1.869,19.823-4.549l2.009,10.714
			C401.268,101.6,392.428,103.612,383.321,103.612z"/>
		<path fill="#FFFFFF" d="M441.582,103.742c-7.365,0-14.196-0.939-19.823-2.546l1.474-11.786c5.762,2.278,12.321,3.615,19.018,3.615
			c10.447,0,19.556-4.287,19.556-15.399c0-20.364-40.853-12.325-40.853-41.12c0-14.865,11.255-25.575,31.613-25.575
			c5.227,0,11.248,0.531,16.335,1.734l-1.471,10.851c-4.821-1.477-10.313-2.413-15.532-2.413c-12.328,0-18.22,5.491-18.22,14.066
			c0,19.552,41.392,12.458,41.392,40.847C475.07,92.223,461.806,103.742,441.582,103.742z"/>
	</g>
	<path fill="#FFFFFF" d="M275.009,176.544c-11.839,0-17.697-7.328-17.697-19.401c0-11.779,5.509-20.982,19.049-20.982
		c3.103,0,6.504,0.469,9.433,1.345l-0.7,3.464c-2.991-1.056-6.33-1.644-9.558-1.644c-10.135,0-14.182,7.913-14.182,17.174
		c0,10.608,4.688,16.759,14.767,16.759c3.228,0,6.918-0.931,9.496-2.223l0.762,3.223
		C283.276,175.608,279.287,176.544,275.009,176.544z"/>
	<path fill="#FFFFFF" d="M311.41,176.137v-18.876c0-4.865-1.349-7.741-5.92-7.741c-5.509,0-9.377,5.335-9.377,12.722v13.896h-3.693
		v-42.79h3.693v14.711c0,1.994-0.119,4.338-0.472,5.807l0.118,0.051c1.698-4.51,5.454-7.383,10.552-7.383
		c6.74,0,8.789,4.162,8.789,9.324v20.28H311.41z"/>
	<path fill="#FFFFFF" d="M344.757,160.364h-19.751c-0.351,9.262,3.224,13.065,10.02,13.065c2.816,0,5.746-0.579,8.209-1.692
		l0.703,3.105c-2.757,1.113-6.096,1.757-9.729,1.757c-8.497,0-13.13-4.685-13.13-14.948c0-8.675,4.688-15.119,12.604-15.119
		c7.91,0,11.193,5.453,11.193,11.72C344.876,158.667,344.876,159.369,344.757,160.364z M333.44,149.346
		c-4.334,0-7.443,3.107-8.202,8.208h15.708C341.068,152.632,338.19,149.346,333.44,149.346z"/>
	<path fill="#FFFFFF" d="M388.246,176.137v-18.876c0-4.693-1.119-7.741-5.627-7.741c-4.807,0-9.261,4.809-9.261,12.841v13.776
		h-3.694v-18.936c0-4.161-0.817-7.682-5.625-7.682c-5.099,0-9.206,5.276-9.206,12.841v13.776h-3.69v-29.129h3.75
		c0,2.046-0.174,4.915-0.529,6.793l0.125,0.063c1.639-4.459,5.507-7.332,10.428-7.332c6.921,0,8.149,5.097,8.149,7.206
		c0.998-2.751,4.162-7.206,10.256-7.206c5.453,0,8.618,2.813,8.618,9.381v20.224H388.246z"/>
	<path fill="#FFFFFF" d="M402.723,140.202c-1.469,0-2.638-1.166-2.638-2.638c0-1.464,1.169-2.632,2.638-2.632
		c1.466,0,2.635,1.112,2.635,2.632C405.357,138.975,404.188,140.202,402.723,140.202z M400.845,176.137v-29.129h3.693v29.129
		H400.845z"/>
	<path fill="#FFFFFF" d="M417.786,176.6c-2.23,0-4.692-0.233-6.508-0.759l0.529-3.514c1.877,0.693,4.395,1.103,6.622,1.103
		c4.339,0,7.505-2.041,7.505-5.325c0-7.563-14.774-2.756-14.774-13.25c0-4.803,3.812-8.322,11.021-8.322
		c1.874,0,4.103,0.238,5.86,0.643l-0.466,3.171c-1.815-0.536-3.874-0.882-5.926-0.882c-4.512,0-6.738,1.935-6.738,4.987
		c0,7.558,14.831,2.929,14.831,13.129C429.743,172.558,425.288,176.6,417.786,176.6z"/>
	<path fill="#FFFFFF" d="M444.751,176.544c-5.69,0-7.332-2.584-7.332-8.439v-18.172h-6.622v-2.925h6.622v-9.853l3.693-0.995v10.848
		h8.971v2.925h-8.971v16.354c0,5.565,0.999,6.971,4.633,6.971c1.521,0,2.929-0.174,4.041-0.467l0.528,3.165
		C448.733,176.311,446.563,176.544,444.751,176.544z"/>
	<path fill="#FFFFFF" d="M469.125,150.166c-6.623-1.05-9.786,4.225-9.786,14.363v11.607h-3.695v-29.129h3.756
		c0,2.046-0.233,5.032-0.76,7.613l0.116,0.063c1.109-4.339,4.157-8.914,10.55-8.091L469.125,150.166z"/>
	<path fill="#FFFFFF" d="M483.066,179.12c-3.396,8.908-6.676,12.188-13.123,12.188c-0.942,0-2.108-0.175-2.933-0.351l0.41-3.401
		c0.877,0.299,2.286,0.473,3.34,0.473c3.456,0,5.976-1.758,8.499-8.32l1.406-3.571l-11.248-29.129h4.333l6.562,17.93
		c1,2.694,1.584,4.629,2.229,6.74h0.057c0.467-1.756,1.704-5.329,2.932-8.846l5.627-15.824h4.045L483.066,179.12z"/>
	<path fill="#FFFFFF" d="M526.326,136.744c-1.525-0.469-3.229-0.644-4.751-0.644c-4.808,0-6.856,2.813-6.856,8.792v2.115h8.97v2.925
		h-8.97v26.204h-3.69v-26.204h-6.685v-2.925h6.685v-1.996c0-8.149,4.104-11.961,10.842-11.961c1.701,0,3.221,0.174,4.803,0.532
		L526.326,136.744z"/>
	<path fill="#FFFFFF" d="M535.995,176.6c-7.742,0-12.661-4.747-12.661-14.948c0-8.146,4.919-15.119,13.655-15.119
		c6.796,0,12.716,3.752,12.716,14.594C549.705,169.626,544.551,176.6,535.995,176.6z M536.579,149.52
		c-4.807,0-9.377,3.693-9.377,11.847c0,7.731,3.396,12.183,9.439,12.183c4.802,0,9.255-3.689,9.255-12.242
		C545.896,153.975,542.734,149.52,536.579,149.52z"/>
	<path fill="#FFFFFF" d="M584.52,176.137v-39.567h3.756v36.451h15.121v3.116H584.52z"/>
	<path fill="#FFFFFF" d="M608.964,140.202c-1.464,0-2.637-1.166-2.637-2.638c0-1.464,1.173-2.632,2.637-2.632
		c1.467,0,2.64,1.112,2.64,2.632C611.604,138.975,610.431,140.202,608.964,140.202z M607.088,176.137v-29.129h3.691v29.129H607.088z
		"/>
	<path fill="#FFFFFF" d="M636.392,136.744c-1.522-0.469-3.221-0.644-4.744-0.644c-4.81,0-6.859,2.813-6.859,8.792v2.115h8.968v2.925
		h-8.968v26.204h-3.692v-26.204h-6.685v-2.925h6.685v-1.996c0-8.149,4.104-11.961,10.844-11.961c1.701,0,3.221,0.174,4.806,0.532
		L636.392,136.744z"/>
	<path fill="#FFFFFF" d="M657.139,160.364h-19.752c-0.348,9.262,3.228,13.065,10.023,13.065c2.817,0,5.748-0.579,8.207-1.692
		l0.704,3.105c-2.763,1.113-6.094,1.757-9.732,1.757c-8.497,0-13.13-4.685-13.13-14.948c0-8.675,4.686-15.119,12.601-15.119
		c7.917,0,11.197,5.453,11.197,11.72C657.257,158.667,657.257,159.369,657.139,160.364z M645.83,149.346
		c-4.337,0-7.448,3.107-8.207,8.208h15.709C653.447,152.632,650.574,149.346,645.83,149.346z"/>
	<path opacity="0.74" fill="#FFCE34" d="M107.323,132.48"/>
	<path fill-rule="evenodd" clip-rule="evenodd" fill="#FFFFFF" d="M2.326,102.881h226.483L114.7,216.074L2.326,102.881z
		 M107.051,191.23c1.579,1.58,4.42,2.367,8.522,2.367c2.338,0,4.271-0.341,5.806-1.012c1.538-0.677,2.732-1.662,3.588-2.966
		c0.853-1.312,1.281-2.735,1.281-4.277c0-1.326-0.32-2.513-0.959-3.573c-0.644-1.067-1.67-1.956-3.078-2.678
		c-1.411-0.717-3.742-1.426-7-2.126c-1.317-0.276-2.151-0.57-2.5-0.889c-0.363-0.306-0.546-0.653-0.546-1.035
		c0-0.525,0.219-0.976,0.658-1.346c0.439-0.364,1.093-0.552,1.958-0.552c1.054,0,1.878,0.251,2.477,0.743
		c0.599,0.494,0.773,0.974,0.96,2.057l7.24-0.102c-0.306-2.499-1.269-4.322-2.888-5.465c-1.616-1.15-3.966-1.722-7.046-1.722
		c-2.514,0-4.49,0.313-5.934,0.948c-1.442,0.628-2.52,1.498-3.241,2.596c-0.718,1.101-1.078,2.275-1.078,3.516
		c0,1.883,0.702,3.436,2.108,4.651c1.389,1.216,3.721,2.196,6.989,2.928c1.996,0.441,3.269,0.905,3.819,1.398
		c0.546,0.489,0.821,1.049,0.821,1.681c0,0.662-0.288,1.234-0.865,1.737c-0.575,0.502-1.396,0.747-2.458,0.747
		c-1.426,0-2.522-0.492-3.291-1.461c-0.471-0.6-0.557-0.767-0.708-1.915l-7.321-0.276
		C104.578,187.643,105.472,189.647,107.051,191.23z M162.747,136.739c-3.965,0-4.688-3.138-4.688-6.478
		c0-4.589,1.649-6.939,4.393-6.939c2.445,0,3.995,1.43,4.23,3.908h7.4c-0.629-6.121-4.694-9.721-11.968-9.721
		c-6.637,0-11.855,4.794-11.855,12.487c0,7.732,4.756,12.559,12.626,12.559c6.27,0,10.668-3.696,11.359-9.843h-7.5
		C166.447,134.992,165.263,136.739,162.747,136.739z M72.881,118.203l8.528,23.795h-7.764l-0.924-3.139h-7.766l-0.895,3.139h-7.634
		l8.528-23.795H72.881z M71.362,133.904l-2.514-8.521l-2.412,8.521H71.362z M130.738,112.115h-12.013l-2.351,1.566l2.744,4.439
		c0,0,0.782-0.918,1.83-0.918c1.041,0,9.79,0.135,9.79,0.135V112.115z M100.002,112.244v5.221l9.531-0.127l11.302,17.014
		l-0.665,1.529l-0.174,1.089l0.011,0.845l0.1,0.668l0.201,0.718l0.242,0.569l0.285,0.522l0.281,0.401l0.463,0.539l0.396,0.369
		l0.355,0.28l0.427,0.277l0.536,0.279l0.716,0.263l0.597,0.146l0.616,0.075l0.378,0.015l0.567-0.035l0.322-0.039l6.816,10.261
		l0.188,0.446l-0.172,0.445l-0.408,0.149h-1.082l-0.884-0.909l-0.48-0.341l-0.596-0.309l-0.542-0.195l-0.923-0.18h-0.902
		l-0.746,0.127l-0.752,0.261l-0.687,0.373l-0.636,0.485l-0.308,0.311l-0.31,0.377h-4.706l-0.429-0.504l-0.51-0.451l-0.586-0.388
		l-0.773-0.349l-0.765-0.194l-0.819-0.072l-0.81,0.07l-0.771,0.196l-0.721,0.315l-0.573,0.369l-0.526,0.447l-0.48,0.56h-4.708
		l-1.046-1.036l-0.694-0.419l-0.561-0.236l-0.766-0.196l-0.816-0.07l-0.873,0.079l-0.76,0.209l-0.706,0.319l-0.664,0.438
		l-0.505,0.463l-0.376,0.449h-2.256l-0.551-0.398l-0.139-0.354v-0.616l0.334-0.539l0.764-1.072l0.671-0.99l5.116-7.399l0.85,0.136
		l0.674-0.009l0.762-0.127l0.761-0.221l0.762-0.365l0.673-0.447l0.72-0.628l0.673-0.896l0.401-0.719l0.315-0.984l0.134-0.942
		l-0.044-0.942l-0.135-0.771l-0.224-0.71l-0.232-0.459l-0.163-0.286l4.725-6.924l-3.478-4.023l-5.651,8.241l-0.585-0.014
		l-0.973,0.116l-0.757,0.217l-0.641,0.274l-0.681,0.414l-0.828,0.715l-0.58,0.712l-0.403,0.698l-0.321,0.803l-0.221,1.089
		l-0.011,1.026l0.104,0.728l0.151,0.566l0.282,0.692l-9.188,13.518l-0.433,0.891l-0.174,0.741v0.811l0.137,0.715l0.352,0.838
		l0.585,0.743l0.675,0.54l0.704,0.395l0.728,0.294l0.8,0.237l0.813,0.171h4.818l0.423,0.561l0.577,0.558l0.602,0.426l0.685,0.333
		l0.792,0.244l0.681,0.089h0.612l1.034-0.18l0.708-0.266l0.697-0.404l0.793-0.689l0.525-0.671l4.312-0.057l0.499,0.668l0.476,0.464
		l0.573,0.417l0.784,0.398l0.952,0.264l0.81,0.065l1.003-0.106l0.751-0.223l0.649-0.313l0.791-0.566l0.491-0.505l0.425-0.582
		l4.242-0.019l0.501,0.682l0.453,0.447l0.544,0.407l0.661,0.361l0.801,0.274l0.891,0.133l0.912-0.033l1.019-0.252l0.831-0.398
		l0.703-0.516l0.527-0.539l0.417-0.587l4.087-0.012l0.765-0.222l0.876-0.364l0.635-0.371l0.561-0.449l0.501-0.588l0.387-0.858
		l0.098-0.642l-0.039-0.668l-0.195-0.77l-0.294-0.709l-0.421-0.758l-8.537-13.094l0.284-0.593l0.256-0.79l0.113-0.604l0.049-0.728
		l-0.081-0.922l-0.191-0.8l-0.309-0.752l-0.23-0.417l-0.387-0.567l-0.457-0.519l-0.482-0.456l-0.631-0.403l-0.671-0.362
		l-0.627-0.221l-0.718-0.136l-0.628-0.089l-0.404,0.042h-0.314l-11.24-17.25l-0.44-0.7l-0.39-0.474l-0.395-0.381l-0.438-0.325
		l-0.695-0.341l-0.531-0.129L100.002,112.244z"/>
	<g>
		<path fill="#FFFFFF" d="M670.062,147.289c-4.76,0-8.398-3.719-8.398-8.398c0-4.639,3.759-8.438,8.398-8.438
			c4.759,0,8.438,3.68,8.438,8.438C678.5,143.45,674.621,147.289,670.062,147.289z M670.062,132.252c-3.6,0-6.519,2.92-6.519,6.559
			c0,3.6,2.919,6.68,6.519,6.68c3.64,0,6.519-2.92,6.519-6.56C676.58,135.332,673.701,132.252,670.062,132.252z M671.621,143.45
			l-2.56-4.079h-0.12v4.079h-1.6v-9.278h2.8c2.199,0,3.079,0.959,3.079,2.359c0,1.56-0.96,2.52-2.439,2.68
			c0.2,0.24,0.56,0.76,0.92,1.279l1.92,2.96H671.621z M669.981,135.451h-1.04v2.84h0.64c1.48,0,1.96-0.8,1.96-1.561
			C671.541,135.852,671.142,135.451,669.981,135.451z"/>
	</g>
	<path fill="#FFFFFF" d="M569.125,150.166c-6.623-1.05-9.786,4.225-9.786,14.363v11.607h-3.695v-29.129h3.756
		c0,2.046,0.19,5.032-0.336,7.613l-0.308,0.063c1.109-4.339,4.157-8.914,10.55-8.091L569.125,150.166z"/>
</g>
</svg>
