<?xml version="1.0" encoding="iso-8859-1"?>
<!-- Generator: Adobe Illustrator 18.0.0, SVG Export Plug-In . SVG Version: 6.00 Build 0)  -->
<!DOCTYPE svg PUBLIC "-//W3C//DTD SVG 1.1//EN" "http://www.w3.org/Graphics/SVG/1.1/DTD/svg11.dtd">
<svg version="1.1" xmlns="http://www.w3.org/2000/svg" xmlns:xlink="http://www.w3.org/1999/xlink" x="0px" y="0px"
	 viewBox="0 0 23.99 23.99" style="enable-background:new 0 0 23.99 23.99;" xml:space="preserve">
<g id="Facebook">
	<g>
		<defs>
			<rect id="SVGID_1_" x="0" y="0" width="23.99" height="23.99"/>
		</defs>
		<clipPath id="SVGID_2_">
			<use xlink:href="#SVGID_1_"  style="overflow:visible;"/>
		</clipPath>
		<path style="clip-path:url(#SVGID_2_);fill:#517CBE;" d="M11.995,23.99c6.625,0,11.995-5.37,11.995-11.995
			C23.99,5.371,18.62,0,11.995,0S0,5.371,0,11.995C0,18.62,5.37,23.99,11.995,23.99"/>
		<path style="clip-path:url(#SVGID_2_);fill:#FFFFFF;" d="M9.101,9.964h1.24V8.759c0-0.532,0.013-1.351,0.399-1.859
			c0.407-0.537,0.965-0.903,1.926-0.903c1.564,0,2.223,0.223,2.223,0.223l-0.31,1.838c0,0-0.517-0.15-0.999-0.15
			c-0.483,0-0.914,0.173-0.914,0.655v1.401h1.977l-0.138,1.794h-1.839v6.235h-2.325v-6.235h-1.24V9.964z"/>
	</g>
</g>
<g id="Layer_1">
</g>
</svg>
