<?xml version="1.0" encoding="iso-8859-1"?>
<!-- Generator: Adobe Illustrator 18.0.0, SVG Export Plug-In . SVG Version: 6.00 Build 0)  -->
<!DOCTYPE svg PUBLIC "-//W3C//DTD SVG 1.1//EN" "http://www.w3.org/Graphics/SVG/1.1/DTD/svg11.dtd">
<svg version="1.1" xmlns="http://www.w3.org/2000/svg" xmlns:xlink="http://www.w3.org/1999/xlink" x="0px" y="0px"
	 viewBox="0 0 23.99 23.99" style="enable-background:new 0 0 23.99 23.99;" xml:space="preserve">
<g id="Instagram">
	<g>
		<g>
			<defs>
				<rect id="SVGID_1_" y="0" width="23.99" height="23.99"/>
			</defs>
			<clipPath id="SVGID_2_">
				<use xlink:href="#SVGID_1_"  style="overflow:visible;"/>
			</clipPath>
			<path style="clip-path:url(#SVGID_2_);fill:#FFFFFF;" d="M11.995,20.77c4.846,0,8.775-3.929,8.775-8.775S16.841,3.22,11.995,3.22
				S3.22,7.149,3.22,11.995S7.149,20.77,11.995,20.77"/>
			<path style="clip-path:url(#SVGID_2_);" d="M11.993,14.395c1.324,0,2.402-1.076,2.402-2.401c0-0.522-0.17-1.005-0.453-1.4
				c-0.437-0.603-1.146-1-1.949-1c-0.8,0-1.51,0.394-1.946,1c-0.286,0.395-0.453,0.878-0.455,1.4
				C9.592,13.319,10.67,14.395,11.993,14.395"/>
		</g>
		<polygon points="17.238,9.057 17.238,6.745 16.936,6.745 14.924,6.752 14.933,9.064 		"/>
		<g>
			<defs>
				<rect id="SVGID_3_" y="0" width="23.99" height="23.99"/>
			</defs>
			<clipPath id="SVGID_4_">
				<use xlink:href="#SVGID_3_"  style="overflow:visible;"/>
			</clipPath>
			<path style="clip-path:url(#SVGID_4_);" d="M18.816,10.595v5.586c0,1.454-1.182,2.636-2.638,2.636h-8.37
				c-1.453,0-2.635-1.182-2.635-2.636v-8.37c0-1.455,1.182-2.637,2.635-2.637h8.37c1.456,0,2.638,1.182,2.638,2.637V10.595z
				 M11.993,0C5.381,0,0,5.382,0,11.994C0,18.609,5.381,23.99,11.993,23.99c6.615,0,11.996-5.381,11.996-11.996
				C23.99,5.382,18.608,0,11.993,0"/>
			<path style="clip-path:url(#SVGID_4_);" d="M15.726,11.994c0,2.057-1.672,3.732-3.732,3.732c-2.057,0-3.73-1.675-3.73-3.732
				c0-0.493,0.099-0.967,0.274-1.399H6.502v5.586c0,0.722,0.585,1.305,1.307,1.305h8.37c0.722,0,1.307-0.583,1.307-1.305v-5.586
				H15.45C15.625,11.027,15.726,11.501,15.726,11.994"/>
		</g>
	</g>
</g>
<g id="Layer_1">
</g>
</svg>
