<?xml version="1.0" encoding="iso-8859-1"?>
<!-- Generator: Adobe Illustrator 18.0.0, SVG Export Plug-In . SVG Version: 6.00 Build 0)  -->
<!DOCTYPE svg PUBLIC "-//W3C//DTD SVG 1.1//EN" "http://www.w3.org/Graphics/SVG/1.1/DTD/svg11.dtd">
<svg version="1.1" xmlns="http://www.w3.org/2000/svg" xmlns:xlink="http://www.w3.org/1999/xlink" x="0px" y="0px"
	 viewBox="0 0 24 24" style="enable-background:new 0 0 24 24;" xml:space="preserve">
<g id="Pinterest">
	<g>
		<defs>
			<rect id="SVGID_1_" width="24" height="24"/>
		</defs>
		<clipPath id="SVGID_2_">
			<use xlink:href="#SVGID_1_"  style="overflow:visible;"/>
		</clipPath>
		<path style="clip-path:url(#SVGID_2_);fill:#FFFFFF;" d="M12,24c6.627,0,12-5.373,12-12S18.627,0,12,0S0,5.373,0,12
			S5.373,24,12,24"/>
		<path style="clip-path:url(#SVGID_2_);fill:#CF2027;" d="M11.996,0C5.371,0,0,5.373,0,11.999c0,4.915,2.953,9.136,7.18,10.992
			c-0.035-0.839-0.007-1.844,0.207-2.755c0.232-0.975,1.545-6.54,1.545-6.54S8.55,12.93,8.55,11.798c0-1.779,1.03-3.106,2.312-3.106
			c1.092,0,1.618,0.82,1.618,1.801c0,1.097-0.699,2.739-1.058,4.258c-0.3,1.273,0.638,2.312,1.892,2.312
			c2.273,0,3.804-2.921,3.804-6.38c0-2.63-1.771-4.598-4.991-4.598c-3.64,0-5.905,2.714-5.905,5.746c0,1.046,0.307,1.782,0.79,2.353
			c0.221,0.263,0.253,0.369,0.172,0.669c-0.058,0.221-0.189,0.753-0.245,0.963c-0.079,0.304-0.325,0.412-0.6,0.301
			c-1.676-0.686-2.456-2.52-2.456-4.584c0-3.41,2.874-7.497,8.572-7.497c4.58,0,7.596,3.315,7.596,6.874
			c0,4.707-2.617,8.225-6.474,8.225c-1.295,0-2.513-0.701-2.93-1.497c0,0-0.697,2.766-0.843,3.299
			c-0.255,0.924-0.753,1.85-1.208,2.571C9.674,23.826,10.815,24,11.996,24c6.625,0,11.994-5.373,11.994-12.001
			C23.99,5.373,18.621,0,11.996,0"/>
	</g>
</g>
<g id="Layer_1">
</g>
</svg>
