<?xml version="1.0" encoding="iso-8859-1"?>
<!-- Generator: Adobe Illustrator 18.0.0, SVG Export Plug-In . SVG Version: 6.00 Build 0)  -->
<!DOCTYPE svg PUBLIC "-//W3C//DTD SVG 1.1//EN" "http://www.w3.org/Graphics/SVG/1.1/DTD/svg11.dtd">
<svg version="1.1" xmlns="http://www.w3.org/2000/svg" xmlns:xlink="http://www.w3.org/1999/xlink" x="0px" y="0px"
	 viewBox="0 0 23.99 23.99" style="enable-background:new 0 0 23.99 23.99;" xml:space="preserve">
<g id="Plugin">
	<g>
		<defs>
			<rect id="SVGID_1_" x="0" y="0" width="23.99" height="23.99"/>
		</defs>
		<clipPath id="SVGID_2_">
			<use xlink:href="#SVGID_1_"  style="overflow:visible;"/>
		</clipPath>
		<path style="clip-path:url(#SVGID_2_);fill:#FFFFFF;" d="M11.373,20.771c4.846,0,8.775-3.929,8.775-8.775
			s-3.929-8.775-8.775-8.775S2.598,7.15,2.598,11.996S6.527,20.771,11.373,20.771"/>
		<path style="clip-path:url(#SVGID_2_);fill:#ECC11C;" d="M17.524,15.221c0.16-0.281,0.08-0.641-0.2-0.762
			c-0.802-0.48-4.207-2.444-4.207-2.444s3.045-1.762,4.207-2.444c0.28-0.16,0.36-0.52,0.2-0.761c-0.16-0.28-0.521-0.36-0.761-0.2
			c-0.802,0.481-4.207,2.404-4.207,2.404V6.166c0-0.321-0.24-0.561-0.561-0.561c-0.32,0-0.561,0.24-0.561,0.561v4.848
			c0,0-3.045-1.763-4.207-2.404c-0.28-0.16-0.641-0.08-0.801,0.2c-0.16,0.281-0.08,0.641,0.2,0.761
			c0.802,0.481,4.207,2.444,4.207,2.444s-3.045,1.763-4.207,2.444c-0.28,0.161-0.36,0.521-0.2,0.762c0.16,0.28,0.521,0.36,0.801,0.2
			c0.802-0.481,4.207-2.404,4.207-2.404v4.848c0,0.32,0.241,0.561,0.561,0.561c0.321,0,0.561-0.241,0.561-0.561v-4.848
			c0,0,3.045,1.763,4.207,2.404C17.043,15.581,17.404,15.501,17.524,15.221 M16.001,11.935c0,0,1.203,0.681,2.044,1.162
			c0.961,0.561,1.282,1.763,0.721,2.725c-0.561,0.961-1.763,1.282-2.724,0.721c-1.122-0.641-2.044-1.162-2.044-1.162v2.364
			c0,1.122-0.881,2.003-2.003,2.003s-2.003-0.881-2.003-2.003v-2.364c0,0-1.202,0.681-2.044,1.162
			c-0.961,0.561-2.203,0.24-2.724-0.721c-0.561-0.842-0.24-2.084,0.721-2.645c1.122-0.641,2.044-1.162,2.044-1.162
			s-1.202-0.681-2.044-1.161c-0.961-0.561-1.282-1.763-0.721-2.725c0.561-0.962,1.763-1.282,2.724-0.721
			C9.07,8.049,9.992,8.61,9.992,8.61V6.246c0-1.122,0.881-2.003,2.003-2.003s2.003,0.881,2.003,2.003V8.53
			c0,0,1.202-0.681,2.044-1.202c0.961-0.561,2.203-0.241,2.724,0.721c0.561,0.962,0.24,2.204-0.721,2.724
			C16.923,11.414,16.001,11.935,16.001,11.935 M23.99,11.995C23.99,5.371,18.62,0,11.995,0C5.369,0,0,5.371,0,11.995
			C0,18.62,5.369,23.99,11.995,23.99C18.62,23.99,23.99,18.62,23.99,11.995"/>
	</g>
</g>
<g id="Layer_1">
</g>
</svg>
