<?xml version="1.0" encoding="iso-8859-1"?>
<!-- Generator: Adobe Illustrator 18.0.0, SVG Export Plug-In . SVG Version: 6.00 Build 0)  -->
<!DOCTYPE svg PUBLIC "-//W3C//DTD SVG 1.1//EN" "http://www.w3.org/Graphics/SVG/1.1/DTD/svg11.dtd">
<svg version="1.1" xmlns="http://www.w3.org/2000/svg" xmlns:xlink="http://www.w3.org/1999/xlink" x="0px" y="0px"
	 viewBox="0 0 46 19.834" style="enable-background:new 0 0 46 19.834;" xml:space="preserve">
<g id="Visa_EN">
	<g>
		<defs>
			<rect id="SVGID_1_" y="0" width="46" height="19.834"/>
		</defs>
		<clipPath id="SVGID_2_">
			<use xlink:href="#SVGID_1_"  style="overflow:visible;"/>
		</clipPath>
		<path style="clip-path:url(#SVGID_2_);fill:#134A89;" d="M18.603,10.585l-2.305,6.217l-0.246-1.263
			c-0.575-1.549-1.818-3.174-3.265-3.833l2.109,7.984l2.493-0.001l3.708-9.104H18.603z"/>
	</g>
	<polygon style="fill:#134A89;" points="22.054,10.577 20.58,19.699 22.934,19.699 24.409,10.577 	"/>
	<g>
		<defs>
			<rect id="SVGID_3_" y="0" width="46" height="19.834"/>
		</defs>
		<clipPath id="SVGID_4_">
			<use xlink:href="#SVGID_3_"  style="overflow:visible;"/>
		</clipPath>
		<path style="clip-path:url(#SVGID_4_);fill:#134A89;" d="M31.479,10.802c-0.465-0.184-1.2-0.384-2.111-0.384
			c-2.33,0-3.967,1.238-3.981,3.01c-0.015,1.312,1.17,2.044,2.061,2.48c0.92,0.446,1.227,0.732,1.225,1.132
			c-0.009,0.611-0.736,0.889-1.412,0.889c-0.941,0-1.443-0.137-2.215-0.476l-0.306-0.146l-0.33,2.042
			c0.552,0.254,1.569,0.474,2.626,0.485c2.473,0,4.082-1.224,4.101-3.115c0.01-1.041-0.619-1.829-1.98-2.479
			c-0.821-0.423-1.328-0.703-1.321-1.132c0.001-0.378,0.426-0.784,1.35-0.784c0.771-0.013,1.326,0.164,1.762,0.351l0.21,0.104
			L31.479,10.802z"/>
		<path style="clip-path:url(#SVGID_4_);fill:#134A89;" d="M34.615,16.464c0.196-0.523,0.939-2.549,0.939-2.549
			c-0.015,0.024,0.193-0.528,0.313-0.87l0.157,0.787c0,0,0.452,2.177,0.547,2.632H34.615z M37.52,10.586H35.7
			c-0.564,0-0.987,0.161-1.236,0.757l-3.496,8.359h2.473c0,0,0.405-1.125,0.497-1.372c0.269,0,2.672,0.006,3.015,0.006
			c0.073,0.318,0.287,1.366,0.287,1.366h2.187L37.52,10.586z"/>
		<path style="clip-path:url(#SVGID_4_);fill:#F09720;" d="M14.159,10.581H10.36l-0.022,0.157c2.954,0.755,4.903,2.61,5.714,4.804
			l-0.826-4.193C15.084,10.773,14.671,10.601,14.159,10.581"/>
	</g>
	<polygon style="fill:#134A89;" points="0,0.566 1.732,8.376 3.235,8.376 7.46,0.369 5.865,0.369 2.846,6.401 1.661,0.289 	"/>
	<g>
		<defs>
			<rect id="SVGID_5_" y="0" width="46" height="19.834"/>
		</defs>
		<clipPath id="SVGID_6_">
			<use xlink:href="#SVGID_5_"  style="overflow:visible;"/>
		</clipPath>
		<path style="clip-path:url(#SVGID_6_);fill:#134A89;" d="M8.938,3.605c-0.555,0-1.073,0.438-1.317,1.351h2.218
			C9.88,4.09,9.608,3.605,8.938,3.605 M11.046,5.823H7.464c-0.098,1.086,0.407,1.56,1.262,1.56c0.716,0,1.347-0.266,2.025-0.693
			l-0.006,1.086C10.081,8.192,9.312,8.457,8.41,8.457c-1.559,0-2.589-0.889-2.28-2.9c0.279-1.814,1.534-2.911,2.99-2.911
			c1.675,0,2.233,1.259,1.989,2.842C11.091,5.603,11.058,5.742,11.046,5.823"/>
		<path style="clip-path:url(#SVGID_6_);fill:#134A89;" d="M13.381,5.141l-0.493,3.201h-1.386l0.859-5.581h1.178l0.001,1.121
			c0.47-0.648,1.108-1.19,1.981-1.237l0.008,1.375C14.654,4.078,13.866,4.54,13.381,5.141"/>
		<path style="clip-path:url(#SVGID_6_);fill:#134A89;" d="M17.219,1.825c-0.462,0-0.782-0.323-0.711-0.785
			c0.073-0.474,0.494-0.809,0.956-0.809c0.451,0,0.769,0.335,0.696,0.809C18.089,1.502,17.67,1.825,17.219,1.825 M15.511,8.342
			l0.859-5.581h1.386l-0.858,5.581H15.511z"/>
		<path style="clip-path:url(#SVGID_6_);fill:#134A89;" d="M21.596,1.236c-0.474,0-0.76,0.208-0.837,0.705l-0.126,0.82h1.063
			l-0.001,1.132h-1.236l-0.685,4.449h-1.375l0.685-4.449h-0.809l0.174-1.132h0.809l0.148-0.959c0.19-1.236,1.047-1.698,2.191-1.698
			c0.243,0,0.424,0.023,0.559,0.046l0.011,1.132C22.031,1.259,21.827,1.236,21.596,1.236"/>
		<path style="clip-path:url(#SVGID_6_);fill:#134A89;" d="M23.319,1.825c-0.462,0-0.782-0.323-0.711-0.785
			c0.073-0.474,0.494-0.809,0.956-0.809c0.451,0,0.769,0.335,0.696,0.809C24.189,1.502,23.77,1.825,23.319,1.825 M21.611,8.342
			l0.859-5.581h1.387l-0.859,5.581H21.611z"/>
		<path style="clip-path:url(#SVGID_6_);fill:#134A89;" d="M27.124,3.605c-0.555,0-1.073,0.438-1.317,1.351h2.218
			C28.066,4.09,27.794,3.605,27.124,3.605 M29.233,5.823H25.65c-0.098,1.086,0.407,1.56,1.262,1.56c0.716,0,1.347-0.266,2.025-0.693
			l-0.006,1.086c-0.665,0.416-1.433,0.681-2.335,0.681c-1.56,0-2.589-0.889-2.28-2.9c0.279-1.814,1.534-2.911,2.99-2.911
			c1.675,0,2.233,1.259,1.989,2.842C29.277,5.603,29.244,5.742,29.233,5.823"/>
		<path style="clip-path:url(#SVGID_6_);fill:#134A89;" d="M33.802,4.055c-0.321-0.162-0.575-0.242-1.048-0.242
			c-0.728,0-1.351,0.589-1.539,1.814c-0.167,1.086,0.217,1.594,0.829,1.594c0.509,0,0.948-0.3,1.388-0.762L33.802,4.055z
			 M33.339,8.342l0.004-0.774c-0.466,0.474-1.073,0.89-1.847,0.89c-1.168,0-1.97-0.867-1.68-2.751c0.32-2.079,1.606-3.004,2.9-3.004
			c0.532,0,0.945,0.093,1.262,0.208l0.415-2.692L35.813,0l-1.284,8.342H33.339z"/>
		<path style="clip-path:url(#SVGID_6_);fill:#134A89;" d="M39.552,4.955c-0.351,0-0.702,0.237-1.013,0.552l-0.295,1.916
			c0.207,0.079,0.35,0.114,0.648,0.114c0.665,0,1.13-0.402,1.278-1.365C40.295,5.358,40.024,4.955,39.552,4.955 M38.777,8.395
			c-0.656,0-1.192-0.105-1.69-0.28l0.912-5.925l1.076-0.167l-0.394,2.565c0.314-0.28,0.751-0.561,1.285-0.561
			c0.892,0,1.49,0.666,1.272,2.084C40.998,7.668,40.037,8.395,38.777,8.395"/>
		<path style="clip-path:url(#SVGID_6_);fill:#134A89;" d="M43.712,8.569c-0.537,1.041-1.068,1.365-1.882,1.365
			c-0.184,0-0.286-0.017-0.378-0.043l-0.007-0.867c0.135,0.035,0.28,0.061,0.481,0.061c0.306,0,0.573-0.14,0.751-0.446l0.14-0.28
			l-0.891-4.166l1.116-0.14l0.517,3.011l1.399-2.95H46L43.712,8.569z"/>
	</g>
</g>
<g id="Layer_1">
</g>
</svg>
