<?xml version="1.0" encoding="iso-8859-1"?>
<!-- Generator: Adobe Illustrator 18.0.0, SVG Export Plug-In . SVG Version: 6.00 Build 0)  -->
<!DOCTYPE svg PUBLIC "-//W3C//DTD SVG 1.1//EN" "http://www.w3.org/Graphics/SVG/1.1/DTD/svg11.dtd">
<svg version="1.1" xmlns="http://www.w3.org/2000/svg" xmlns:xlink="http://www.w3.org/1999/xlink" x="0px" y="0px"
	 viewBox="0 0 23.991 23.99" style="enable-background:new 0 0 23.991 23.99;" xml:space="preserve">
<g id="Youtube">
	<g>
		<defs>
			<rect id="SVGID_1_" y="0" width="23.991" height="23.99"/>
		</defs>
		<clipPath id="SVGID_2_">
			<use xlink:href="#SVGID_1_"  style="overflow:visible;"/>
		</clipPath>
		<path style="clip-path:url(#SVGID_2_);fill:#ED6C52;" d="M11.995,23.99c6.625,0,11.996-5.371,11.996-11.995
			C23.991,5.37,18.62,0,11.995,0S0,5.37,0,11.995C0,18.619,5.37,23.99,11.995,23.99"/>
		<path style="clip-path:url(#SVGID_2_);fill:#FFFFFF;" d="M17.993,14.139V9.851c0,0,0-2.067-2.068-2.067H8.064
			c0,0-2.066,0-2.066,2.067v4.288c0,0,0,2.067,2.066,2.067h7.861C15.925,16.206,17.993,16.206,17.993,14.139 M14.324,12.001
			l-3.927,2.307V9.694L14.324,12.001z"/>
	</g>
</g>
<g id="Layer_1">
</g>
</svg>
