<svg xmlns="http://www.w3.org/2000/svg" viewBox="0 0 518.036 150.729"><g fill="#FFF"><path d="M383.401 141.49h90.575l.287-6.702h-91.02zM144.314 16.045c2.119 0 3.844-1.731 3.844-3.858a3.852 3.852 0 0 0-3.844-3.85 3.86 3.86 0 0 0-3.862 3.85 3.865 3.865 0 0 0 3.862 3.858zM322.006 93.777l184.598-.002c1.422 0 3.31.07 5.215.532l-1.428-2.571a6.574 6.574 0 0 0-1.558-1.236c-.803-.478-2.369-.648-3.228-.648H322.744c-.752 0-2.395.131-3.229.627a6.702 6.702 0 0 0-1.613 1.283l-1.417 2.552c.349-.082.709-.152 1.083-.211a32.795 32.795 0 0 1 4.438-.326zM322.891 84.231h8.635l21.92-46.156h-1.797c-3.472 0-4.307 1.191-5.114 2.342-.577.832-1.273 2.07-1.28 2.083l-23.176 41.742a13.213 13.213 0 0 1 .812-.011z"/><path d="M513.318 101.251c-1.571-1.645-4.382-1.856-6.655-1.856h-.003c-.289 0-.576.004-.861.011H322.595a25.097 25.097 0 0 0-4.188.256c-1.219.194-2.066.507-2.729 1.015-1.086.883-1.831 1.886-2.393 3.234-.578 1.223-1.033 2.499-1.452 4.06-1.112 4.47-1.612 8.937-1.521 13.639a76.37 76.37 0 0 0 .406 7.486c.479 4.635 1.389 8.885 2.707 12.633.491 1.38.997 2.56 1.547 3.604.723 1.482 1.543 2.61 2.674 3.687.201.182.498.401.842.619.691.421 1.579.697 2.78.86 1.139.15 2.257.227 3.318.227.185 0 .368-.002.55-.007l177.992-.001c.312.007.604.011.897.011 2.249 0 5.057-.212 6.818-1.864 2.034-1.885 3.244-4.808 4.072-7.144 1.327-3.657 2.207-7.781 2.695-12.615l.037-.372c.231-2.315.356-4.638.381-7.101.087-4.724-.418-9.206-1.547-13.711-.579-2.156-1.463-4.879-3.163-6.671zm-196.423 12.423a4.378 4.378 0 0 1 .224-1.594 4.253 4.253 0 0 1 .891-1.498c.862-.913 1.84-1.33 3.094-1.33h6.241c1.238 0 2.198.389 3.114 1.261.476.466.811.96 1.065 1.565.197.498.302.98.329 1.497a4.25 4.25 0 0 1-1.176 3.157 4.17 4.17 0 0 1-3.036 1.288h-6.221c-2.383.001-4.413-1.949-4.525-4.346zm14.139 30.513c-1.346 1.399-3.18 2.17-5.166 2.17a7.666 7.666 0 0 1-5.279-2.111c-1.46-1.383-2.312-3.218-2.401-5.169-.094-1.96.59-3.813 1.927-5.215 1.347-1.413 3.187-2.191 5.181-2.191 4.062 0 7.511 3.286 7.689 7.324.078 1.962-.615 3.804-1.951 5.192zm148.424 1.589c-.012.729-.637 1.335-1.393 1.335h-98.821a1.38 1.38 0 0 1-1.389-1.369l-.252-11.872a4.508 4.508 0 0 1 1.303-3.265 4.818 4.818 0 0 1 3.475-1.44h92.801c1.336 0 2.568.512 3.469 1.443a4.466 4.466 0 0 1 1.267 3.277l-.46 11.891zm18.052-27.598c-23.644.411-70.976 1.21-70.976 1.21h-12.482l-23.626-.402c-15.762-.268-31.528-.535-47.293-.809-2.515-.035-4.628-2.111-4.708-4.627a4.498 4.498 0 0 1 4.45-4.712c12.509-.209 25.028-.424 37.553-.64 11.205-.193 22.414-.386 33.625-.574h12.521c11.119.187 22.215.378 33.311.568 12.633.217 25.263.435 37.895.646a4.48 4.48 0 0 1 3.2 1.395 4.545 4.545 0 0 1 1.246 3.32c-.099 2.517-2.213 4.59-4.716 4.625zM505.501 84.23l.16-.001c.125 0 .321.002.57.013l-23.18-41.746c-.007-.013-.696-1.253-1.271-2.085-.806-1.146-1.644-2.337-5.106-2.337H359.669l-21.92 46.156h167.752zM72.015 36.817h144.759v77.115H72.015z"/><path d="M266.103 4.477C258.764 1.506 249.278 0 237.907 0H50.877C39.503 0 30.014 1.506 22.673 4.477 15.976 7.187 10.945 11.119 7.291 16.5.563 26.405 0 39.944 0 51.857l.017 42.43c0 9.178.549 16.225 1.729 22.18 1.448 7.312 3.887 13.172 7.457 17.917 8.275 10.998 23.233 16.344 45.73 16.344h178.92c22.485 0 37.439-5.346 45.717-16.344 3.572-4.746 6.013-10.606 7.463-17.917 1.181-5.959 1.732-13.007 1.732-22.18v-42.43c0-11.914-.563-25.455-7.285-35.358-3.654-5.38-8.684-9.312-15.377-12.022zM14.999 34.22c0-6.065 4.938-10.999 11.008-10.999 6.072 0 11.012 4.934 11.012 10.999 0 6.079-4.939 11.024-11.012 11.024-6.069 0-11.008-4.946-11.008-11.024zm35.905 36.313c0 .916-.74 1.662-1.649 1.662h-6.858c-.069.006-.177.066-.177.182v6.839c0 .915-.742 1.66-1.653 1.66h-5.57a1.66 1.66 0 0 1-1.657-1.66v-6.839c0-.087-.079-.182-.206-.182h-6.826a1.66 1.66 0 0 1-1.653-1.662v-5.564a1.66 1.66 0 0 1 1.653-1.663h6.826c.117 0 .206-.083.206-.193v-6.826c0-.909.743-1.648 1.657-1.648h5.57c.911 0 1.653.74 1.653 1.648v6.826c0 .112.085.193.201.193h6.834c.909 0 1.649.746 1.649 1.663v5.564zm56.801-63.738h73.37c2.652 0 4.81 2.47 4.81 5.507 0 3.021-2.157 5.479-4.81 5.479h-73.37c-2.649 0-4.806-2.458-4.806-5.479 0-3.037 2.157-5.507 4.806-5.507zm36.654 134.813a5.194 5.194 0 0 1-5.184-5.191 5.186 5.186 0 0 1 5.184-5.176c2.847 0 5.162 2.322 5.162 5.176 0 2.862-2.315 5.191-5.162 5.191zm78.414-21.675H66.015V30.817h156.759v89.116zm16.903-46.725c-3.1 0-5.622-2.52-5.622-5.617 0-3.1 2.522-5.622 5.622-5.622a5.63 5.63 0 0 1 5.627 5.622c0 3.097-2.525 5.617-5.627 5.617zm12.454 11.19c-3.109 0-5.64-2.521-5.64-5.619 0-3.1 2.53-5.622 5.64-5.622a5.63 5.63 0 0 1 5.626 5.622c0 3.099-2.524 5.619-5.626 5.619zm0-22.382c-3.109 0-5.64-2.519-5.64-5.614 0-3.102 2.53-5.626 5.64-5.626a5.632 5.632 0 0 1 5.626 5.626c0 3.095-2.524 5.614-5.626 5.614zm12.223 11.192a5.624 5.624 0 0 1-5.618-5.617c0-3.1 2.521-5.622 5.618-5.622 3.093 0 5.609 2.522 5.609 5.622 0 3.097-2.517 5.617-5.609 5.617zm-1.614-27.964c-6.069 0-11.007-4.946-11.007-11.024 0-6.065 4.938-10.999 11.007-10.999 6.072 0 11.012 4.934 11.012 10.999 0 6.078-4.939 11.024-11.012 11.024z"/></g></svg>
