<svg xmlns="http://www.w3.org/2000/svg" viewBox="0 0 550.036 172.728"><g fill="#FFF"><path d="M77.015 130.933h156.759V41.817H77.015v89.116zm6-83.116h144.759v77.115H83.015V47.817zM155.359 142.241c-2.858 0-5.184 2.322-5.184 5.176a5.193 5.193 0 0 0 5.184 5.191c2.847 0 5.162-2.329 5.162-5.191 0-2.853-2.315-5.176-5.162-5.176z"/><ellipse cx="250.677" cy="78.59" rx="5.625" ry="5.62"/><path d="M60.255 74.306h-6.834c-.116 0-.201-.081-.201-.193v-6.826c0-.909-.742-1.648-1.653-1.648h-5.57c-.914 0-1.657.74-1.657 1.648v6.826c0 .11-.089.193-.206.193h-6.826a1.66 1.66 0 0 0-1.653 1.663v5.564a1.66 1.66 0 0 0 1.653 1.662h6.826c.127 0 .206.095.206.182v6.839c0 .915.743 1.66 1.657 1.66h5.57c.911 0 1.653-.745 1.653-1.66v-6.839c0-.116.107-.176.177-.182h6.858c.909 0 1.649-.746 1.649-1.662v-5.564c0-.917-.74-1.663-1.649-1.663zM118.705 28.78h73.37c2.652 0 4.81-2.458 4.81-5.479 0-3.037-2.157-5.507-4.81-5.507h-73.37c-2.649 0-4.806 2.47-4.806 5.507 0 3.022 2.157 5.479 4.806 5.479zm36.609-9.443a3.852 3.852 0 0 1 3.844 3.85c0 2.127-1.725 3.858-3.844 3.858a3.864 3.864 0 0 1-3.862-3.858 3.86 3.86 0 0 1 3.862-3.85zM48.019 45.22c0-6.065-4.939-10.999-11.012-10.999-6.069 0-11.008 4.934-11.008 10.999 0 6.079 4.938 11.024 11.008 11.024 6.072 0 11.012-4.946 11.012-11.024zM263.13 84.157c-3.109 0-5.64 2.522-5.64 5.622 0 3.099 2.53 5.619 5.64 5.619 3.103 0 5.626-2.521 5.626-5.619a5.63 5.63 0 0 0-5.626-5.622zM273.739 34.221c-6.069 0-11.007 4.934-11.007 10.999 0 6.079 4.938 11.024 11.007 11.024 6.072 0 11.012-4.946 11.012-11.024 0-6.065-4.939-10.999-11.012-10.999z"/><path d="M301.579 21.322C291.84 6.974 274.611 0 248.907 0H61.877C36.168 0 18.934 6.974 9.191 21.319.71 33.807 0 49.308 0 62.857l.017 42.434c0 9.908.616 17.635 1.938 24.313 1.776 8.972 4.87 16.297 9.458 22.394 10.496 13.949 28.329 20.73 54.519 20.73h178.92c26.178 0 44.007-6.78 54.505-20.729 4.59-6.098 7.685-13.422 9.464-22.393 1.325-6.682 1.942-14.41 1.942-24.32v-42.43c0-13.548-.71-29.05-9.184-41.534zm-1.816 83.965c0 9.173-.55 16.221-1.732 22.18-1.45 7.311-3.891 13.172-7.463 17.917-8.278 10.998-23.232 16.344-45.717 16.344H65.932c-22.496 0-37.455-5.346-45.73-16.344-3.57-4.745-6.009-10.606-7.457-17.917-1.179-5.956-1.728-13.003-1.728-22.181L11 62.857c0-11.913.563-25.452 7.291-35.358 3.654-5.38 8.686-9.313 15.382-12.023C41.014 12.506 50.503 11 61.877 11h187.03c11.371 0 20.857 1.506 28.196 4.477 6.694 2.71 11.723 6.642 15.375 12.022 6.722 9.904 7.285 23.444 7.285 35.358v42.43z"/><path d="M263.13 61.776c-3.109 0-5.64 2.524-5.64 5.626 0 3.096 2.53 5.614 5.64 5.614 3.103 0 5.626-2.519 5.626-5.614a5.632 5.632 0 0 0-5.626-5.626z"/><ellipse cx="275.35" cy="78.59" rx="5.614" ry="5.62"/></g><g fill="#FFF"><path d="M549.052 120.454l-.001-.006-.029-.165c-1.317-7.523-4.538-16.267-4.674-16.636l-.265-.716-.371-.667-1.441-2.595-28.604-51.513c-.156-.281-.99-1.771-1.838-2.998l-.024-.034-.024-.034c-2.118-3.012-5.885-7.016-14.109-7.016H372.648c-8.242 0-12.007 4.012-14.122 7.029-.87 1.252-1.709 2.735-1.869 3.02l-28.222 50.831-1.843 3.319c-3.741 6.738-4.949 15.429-5.2 17.579a62.129 62.129 0 0 0-1.081 10.527l-.06.581.052.001a66.66 66.66 0 0 0 .009 1.787 87.19 87.19 0 0 0 .465 8.492c.565 5.477 1.666 10.574 3.27 15.136.662 1.86 1.352 3.47 2.12 4.946a23.319 23.319 0 0 0 4.894 6.664l.087.083.089.081a17.239 17.239 0 0 0 2.363 1.781l.073.046.074.045c2.02 1.231 4.324 2.009 7.044 2.377 1.649.218 185.896.33 186.233.33 2.268 0 7.164 0 12.323-4.822 3.761-3.497 5.675-7.964 6.921-11.475 1.631-4.506 2.705-9.486 3.284-15.221l.011-.111.009-.112c.043-.551.421-5.444.452-8.199a62.542 62.542 0 0 0-.972-12.335zM352.525 95.231h-8.635c-.043-.001-.123-.003-.235-.003-.127 0-.326.003-.577.013L366.254 53.5c.007-.012.703-1.252 1.28-2.083.807-1.152 1.642-2.343 5.114-2.343h1.797l-21.92 46.157zm145.148-46.157c3.463 0 4.301 1.192 5.106 2.337.575.832 1.264 2.072 1.271 2.085l23.18 41.746a12.88 12.88 0 0 0-.57-.013l-.159.002H358.748l21.92-46.156h117.005v-.001zm-154.667 55.703c-1.441.01-2.929.109-4.438.326-.373.059-.733.129-1.083.211l1.417-2.552a6.697 6.697 0 0 1 1.613-1.283c.833-.496 2.476-.627 3.229-.627h.071l182.735-.001h.054c.859 0 2.425.171 3.228.648a6.554 6.554 0 0 1 1.558 1.236l1.428 2.571c-1.906-.462-3.794-.532-5.215-.532l-184.597.003zm-6.328 6.9c.663-.507 1.51-.821 2.729-1.015a25.097 25.097 0 0 1 4.188-.256H526.798c.285-.006.572-.01.861-.01h.003c2.273 0 5.084.211 6.655 1.856 1.7 1.792 2.584 4.515 3.161 6.671 1.128 4.505 1.635 8.988 1.547 13.712a78.905 78.905 0 0 1-.381 7.1l-.037.372c-.488 4.834-1.368 8.958-2.695 12.615-.828 2.336-2.038 5.258-4.072 7.144-1.761 1.652-4.569 1.864-6.818 1.864-.293 0-.586-.004-.897-.011l-177.992.001a20.02 20.02 0 0 1-.55.007c-1.061 0-2.179-.077-3.318-.227-1.201-.163-2.089-.439-2.78-.86a6.578 6.578 0 0 1-.842-.619c-1.131-1.076-1.951-2.205-2.674-3.687-.55-1.044-1.056-2.225-1.547-3.605-1.318-3.748-2.228-7.997-2.707-12.633a76.388 76.388 0 0 1-.406-7.486c-.09-4.702.409-9.169 1.521-13.639.419-1.56.875-2.836 1.452-4.059.566-1.35 1.311-2.353 2.396-3.235z"/><path d="M346.296 142.671c-1.994 0-3.834.778-5.181 2.191-1.337 1.402-2.021 3.255-1.927 5.215.089 1.951.941 3.786 2.401 5.169a7.67 7.67 0 0 0 5.279 2.111c1.985 0 3.82-.771 5.166-2.17 1.335-1.388 2.028-3.23 1.951-5.192-.177-4.038-3.627-7.324-7.689-7.324zM342.419 129.021h6.221c1.161 0 2.24-.457 3.036-1.288a4.25 4.25 0 0 0 1.176-3.157 4.629 4.629 0 0 0-.329-1.496 4.613 4.613 0 0 0-1.065-1.565c-.916-.872-1.876-1.261-3.113-1.261h-6.241c-1.254 0-2.231.417-3.094 1.33a4.244 4.244 0 0 0-1.115 3.092c.112 2.395 2.142 4.345 4.524 4.345zM496.182 140.166h-92.801a4.819 4.819 0 0 0-3.475 1.441 4.508 4.508 0 0 0-1.303 3.265l.253 11.871a1.38 1.38 0 0 0 1.389 1.369h98.821c.755 0 1.38-.606 1.393-1.336l.459-11.89a4.466 4.466 0 0 0-1.267-3.277c-.901-.93-2.133-1.443-3.469-1.443zm-.919 5.622l-.288 6.702h-90.574l-.158-6.702h91.02zM364.133 129.178c15.765.274 31.531.541 47.293.809l23.626.402h12.483s47.332-.8 70.976-1.211c2.503-.035 4.618-2.108 4.715-4.624a4.545 4.545 0 0 0-1.246-3.32 4.48 4.48 0 0 0-3.2-1.395c-12.632-.211-25.263-.428-37.895-.646a83909.26 83909.26 0 0 0-33.311-.569h-12.521c-11.21.189-22.42.381-33.624.574-12.524.215-25.043.431-37.553.64a4.49 4.49 0 0 0-3.23 1.414 4.488 4.488 0 0 0-1.22 3.298c.079 2.517 2.192 4.593 4.707 4.628z"/></g></svg>
