<?xml version="1.0" encoding="utf-8"?>
<!-- Generator: Adobe Illustrator 19.2.1, SVG Export Plug-In . SVG Version: 6.00 Build 0)  -->
<svg version="1.1" xmlns="http://www.w3.org/2000/svg" xmlns:xlink="http://www.w3.org/1999/xlink" x="0px" y="0px"
	 viewBox="0 0 60 60" style="enable-background:new 0 0 60 60;" xml:space="preserve">
<g id="guide" style="display:none;">
	<rect style="display:inline;fill:#FF0000;" width="3" height="3"/>
	<rect x="57" style="display:inline;fill:#FF0000;" width="3" height="3"/>
	<rect y="57" style="display:inline;fill:#FF0000;" width="3" height="3"/>
	<rect x="57" y="57" style="display:inline;fill:#FF0000;" width="3" height="3"/>
</g>
<g id="Layer_2">
	<path d="M53.25,3.04199H6.75c-0.4140601,0-0.75,0.3359399-0.75,0.75v24.443409c0,0.4140015,0.3359399,0.75,0.75,0.75h18.9165001
		v14.7226009H16c-0.4140997,0-0.75,0.3358994-0.75,0.75s0.3359003,0.75,0.75,0.75h28c0.4141006,0,0.75-0.3358994,0.75-0.75
		s-0.3358994-0.75-0.75-0.75h-9.6669998V28.9853992H53.25c0.4141006,0,0.75-0.3359985,0.75-0.75V3.79199
		C54,3.3779299,53.6641006,3.04199,53.25,3.04199z M27.6627998,28.9853992l-0.4962997,0.4962006v-0.4962006H27.6627998z
		 M32.8330002,41.8349991l-1.8181,1.8730011h-1.6604004l3.4785004-3.4785995V41.8349991z M27.1665001,39.8959999
		l5.6665001-5.6665001v1.5849991l-5.6665001,5.6668015V39.8959999z M32.8330002,32.8154984l-5.6665001,5.6665001v-1.5859985
		l5.6665001-5.6665993V32.8154984z M27.1665001,30.8955994l1.9104996-1.9102001h1.5855007l-3.4960003,3.4960003V30.8955994z
		 M27.1665001,42.895401l5.6665001-5.6668015v1.5868988l-4.8924999,4.8925018h-0.7740002V42.895401z M32.4090996,43.7080002
		l0.4239006-0.4368019v0.4368019H32.4090996z M32.8330002,29.8155003l-5.6665001,5.6664982V33.895401l4.910099-4.9100018h0.7564011
		V29.8155003z M52.5,27.4853992h-45V4.5419898h45V27.4853992z"/>
	<path d="M52.3828011,41.9014015l-0.9326019,0.8902969v-9.3041992l0.9326019,0.8903999
		c0.1445007,0.1397018,0.3311005,0.2080002,0.5175972,0.2080002c0.1973,0,0.3955002-0.0780983,0.5420036-0.232399
		c0.2860985-0.2988014,0.2753983-0.7743988-0.0244026-1.0596008l-2.1869011-2.0877991c0,0-0.0011978-0.0011005-0.0018997-0.0018005
		l-0.0113983-0.0109005c-0.0139008-0.0133991-0.032402-0.0164986-0.0470009-0.0284996
		c-0.0631981-0.0522003-0.1308975-0.0972996-0.2090988-0.1266994c-0.0275993-0.009901-0.0559998-0.010601-0.0844002-0.0170002
		c-0.0583-0.0144997-0.1142998-0.0358009-0.1771011-0.0358009c-0.0167007,0-0.0305977,0.0084-0.0471001,0.0095005
		c-0.0037994,0.0002995-0.0074997-0.0016003-0.0112991-0.0012989c-0.2058983-0.0118008-0.4150009,0.0539989-0.5724983,0.2114983
		l-2.0996017,2.1005993c-0.2929001,0.2929001-0.2929001,0.7675018,0,1.0605011
		c0.1464996,0.1464996,0.3389015,0.2196999,0.5303001,0.2196999c0.1924019,0,0.3838005-0.0732002,0.5303001-0.2196999
		l0.919899-0.9202995v9.3875008l-0.919899-0.9202995c-0.2919998-0.2930031-0.7666016-0.2930031-1.0606003,0
		c-0.2929001,0.2929993-0.2929001,0.7675972,0,1.0604973l2.0996017,2.1006012
		c0.1464996,0.1464996,0.3378983,0.2196999,0.5303001,0.2196999c0.0172997,0,0.0337982-0.0087013,0.0510979-0.0098991
		c0.0167999,0.0011978,0.0326004,0.0098991,0.0494995,0.0098991c0.1865005,0,0.3730011-0.0692978,0.517601-0.2080002
		l2.2001991-2.1004982c0.2998009-0.285202,0.3105011-0.7607994,0.0244026-1.0596008
		C53.1571999,41.6240005,52.6796989,41.6161995,52.3828011,41.9014015z"/>
	<g style="enable-background:new    ;">
		<g>
			<g>
				<path d="M26.2832031,49.0839844v7.7773438h-1.2890625v-3.3730469h-3.1689453v3.3730469h-1.2890625v-7.7773438h1.2890625
					v3.2548828h3.1689453v-3.2548828H26.2832031z"/>
			</g>
		</g>
		<g>
			<g>
				<path d="M32.234375,55.0566406H29.3125l-0.5585938,1.8046875h-1.3535156l2.6748047-7.7773438h1.4072266l2.6748047,7.7773438
					h-1.3642578L32.234375,55.0566406z M31.8798828,53.9287109l-1.1171875-3.5878906L29.65625,53.9287109H31.8798828z"/>
			</g>
		</g>
		<g>
			<g>
				<path d="M35.8496094,56.8125c-0.4414062-0.1171875-0.8291016-0.2841797-1.1660156-0.4990234l0.4189453-1.03125
					c0.6806641,0.3867188,1.3789062,0.5800781,2.0947266,0.5800781c0.4794922,0,0.8417969-0.0898438,1.0849609-0.2685547
					s0.3652344-0.4404297,0.3652344-0.7841797c0-0.2861328-0.0878906-0.5205078-0.2626953-0.7041016
					c-0.1757812-0.1816406-0.453125-0.3232422-0.8330078-0.4238281l-0.8808594-0.2470703
					c-0.6660156-0.1865234-1.1494141-0.4511719-1.4501953-0.7949219s-0.4511719-0.8017578-0.4511719-1.375
					c0-0.7236328,0.2255859-1.2890625,0.6767578-1.6972656s1.0810547-0.6123047,1.890625-0.6123047
					c0.3867188,0,0.7861328,0.0449219,1.1982422,0.1347656c0.4111328,0.0888672,0.7998047,0.2158203,1.1650391,0.3808594
					l-0.4296875,1.03125c-0.7304688-0.2792969-1.3818359-0.4189453-1.9550781-0.4189453
					c-0.4228516,0-0.7451172,0.0820312-0.9667969,0.2470703s-0.3330078,0.4042969-0.3330078,0.7197266
					c0,0.2861328,0.0898438,0.5205078,0.2685547,0.7041016c0.1787109,0.1816406,0.4580078,0.3232422,0.8378906,0.4238281
					l0.8808594,0.2470703c0.6660156,0.1865234,1.1494141,0.453125,1.4501953,0.7998047
					c0.3007812,0.3476562,0.4511719,0.8076172,0.4511719,1.3808594c0,0.7519531-0.2382812,1.3378906-0.7148438,1.7558594
					c-0.4755859,0.4199219-1.1396484,0.6289062-1.9921875,0.6289062
					C36.7392578,56.9902344,36.2890625,56.9316406,35.8496094,56.8125z"/>
			</g>
		</g>
	</g>
</g>
</svg>
