<?xml version="1.0" encoding="utf-8"?>
<!-- Generator: Adobe Illustrator 19.2.1, SVG Export Plug-In . SVG Version: 6.00 Build 0)  -->
<svg version="1.1" id="Layer_1" xmlns="http://www.w3.org/2000/svg" xmlns:xlink="http://www.w3.org/1999/xlink" x="0px" y="0px"
	 viewBox="0 0 60 60" style="enable-background:new 0 0 60 60;" xml:space="preserve">
<style type="text/css">
	.st0{fill:none;stroke:#000000;stroke-linecap:round;stroke-linejoin:round;stroke-miterlimit:10;}
	.st1{fill:#D1D1D1;}
	.st2{fill:#FFFFFF;}
	.st3{fill:none;stroke:#000000;stroke-width:1.5;stroke-linecap:round;stroke-linejoin:round;stroke-miterlimit:10;}
	.st4{fill:none;stroke:#000000;stroke-width:1.5;stroke-linejoin:round;stroke-miterlimit:10;}
	.st5{fill:#6FA7C6;}
	.st6{fill:#FF6800;}
	.st7{fill:#00C3FD;}
	.st8{fill:#0160C2;}
	.st9{fill:#2ACA00;}
	.st10{fill:#FF871F;}
	.st11{fill:#026232;}
	.st12{fill:#EC6519;}
	.st13{fill:#0DB5EC;}
	.st14{fill:#015DAE;}
	.st15{fill:#6FB92C;}
	.st16{fill:#F57E16;}
	.st17{fill:#EF752A;}
	.st18{fill:#2C6737;}
	.st19{fill:#231917;}
	.st20{fill:#FFFFFF;stroke:#000000;stroke-width:3;stroke-linecap:round;stroke-linejoin:round;stroke-miterlimit:10;}
	.st21{fill:none;stroke:#000000;stroke-width:3;stroke-linecap:round;stroke-linejoin:round;stroke-miterlimit:10;}
	.st22{fill:#F23D3D;}
	.st23{fill:none;stroke:#282828;stroke-width:3;stroke-linecap:round;stroke-linejoin:round;stroke-miterlimit:10;}
	.st24{fill:none;stroke:#282828;stroke-width:3;stroke-linejoin:round;stroke-miterlimit:10;}
</style>
<g>
	<path d="M42.709,11.635H17.291c-0.414,0-0.75,0.336-0.75,0.75v35.23c0,0.414,0.336,0.75,0.75,0.75h25.419
		c0.414,0,0.75-0.336,0.75-0.75v-35.23C43.459,11.971,43.124,11.635,42.709,11.635z M41.959,46.865H18.041v-33.73h23.919V46.865z"/>
	<path d="M30,24.778c2.134,0,3.87-1.736,3.87-3.87s-1.736-3.87-3.87-3.87s-3.87,1.736-3.87,3.87S27.866,24.778,30,24.778z
		 M30,18.538c1.307,0,2.37,1.063,2.37,2.37s-1.063,2.37-2.37,2.37s-2.37-1.063-2.37-2.37S28.693,18.538,30,18.538z"/>
	<path d="M30,43.034c4.262,0,7.729-3.468,7.729-7.729S34.262,27.575,30,27.575s-7.729,3.468-7.729,7.729S25.738,43.034,30,43.034z
		 M30,29.075c3.435,0,6.229,2.795,6.229,6.229S33.435,41.534,30,41.534s-6.229-2.795-6.229-6.229S26.565,29.075,30,29.075z"/>
	<path d="M30,39.174c2.134,0,3.87-1.735,3.87-3.869s-1.736-3.87-3.87-3.87s-3.87,1.736-3.87,3.87S27.866,39.174,30,39.174z
		 M30,32.935c1.307,0,2.37,1.063,2.37,2.37s-1.063,2.369-2.37,2.369s-2.37-1.062-2.37-2.369S28.693,32.935,30,32.935z"/>
	<path d="M48.558,22.646c-0.353-0.215-0.814-0.108-1.032,0.245c-0.218,0.352-0.108,0.814,0.244,1.032
		c2.125,1.312,3.393,3.583,3.393,6.076s-1.268,4.766-3.393,6.076c-0.353,0.218-0.462,0.681-0.244,1.032
		c0.142,0.23,0.387,0.356,0.639,0.356c0.135,0,0.271-0.036,0.394-0.111c2.57-1.587,4.104-4.336,4.104-7.354
		S51.128,24.233,48.558,22.646z"/>
	<path d="M53.212,18.938c-0.331-0.248-0.8-0.181-1.05,0.149c-0.249,0.332-0.181,0.802,0.15,1.05
		c3.138,2.353,4.937,5.947,4.937,9.863s-1.799,7.511-4.937,9.863c-0.332,0.248-0.399,0.718-0.15,1.05
		c0.147,0.196,0.373,0.3,0.601,0.3c0.157,0,0.314-0.049,0.449-0.15c3.519-2.638,5.537-6.67,5.537-11.062
		S56.731,21.575,53.212,18.938z"/>
	<path d="M12.23,23.924c0.353-0.218,0.462-0.681,0.244-1.032c-0.218-0.354-0.68-0.46-1.032-0.245
		C8.872,24.233,7.337,26.982,7.337,30s1.534,5.767,4.104,7.354c0.123,0.075,0.259,0.111,0.394,0.111
		c0.251,0,0.497-0.126,0.639-0.356c0.218-0.352,0.108-0.814-0.244-1.032C10.105,34.766,8.837,32.493,8.837,30
		S10.106,25.235,12.23,23.924z"/>
	<path d="M2.75,30c0-3.916,1.799-7.511,4.937-9.863c0.332-0.248,0.399-0.718,0.15-1.05c-0.249-0.33-0.719-0.397-1.05-0.149
		C3.269,21.575,1.25,25.607,1.25,30s2.018,8.425,5.537,11.062c0.135,0.102,0.292,0.15,0.449,0.15c0.228,0,0.453-0.104,0.601-0.3
		c0.249-0.332,0.181-0.802-0.15-1.05C4.549,37.511,2.75,33.916,2.75,30z"/>
</g>
</svg>
