<?xml version="1.0" encoding="utf-8"?>
<!-- Generator: Adobe Illustrator 19.2.1, SVG Export Plug-In . SVG Version: 6.00 Build 0)  -->
<svg version="1.1" id="Layer_1" xmlns="http://www.w3.org/2000/svg" xmlns:xlink="http://www.w3.org/1999/xlink" x="0px" y="0px"
	 viewBox="0 0 60 60" style="enable-background:new 0 0 60 60;" xml:space="preserve">
<style type="text/css">
	.st0{fill:none;stroke:#000000;stroke-linecap:round;stroke-linejoin:round;stroke-miterlimit:10;}
	.st1{fill:#D1D1D1;}
	.st2{fill:#FFFFFF;}
	.st3{fill:none;stroke:#000000;stroke-width:1.5;stroke-linecap:round;stroke-linejoin:round;stroke-miterlimit:10;}
	.st4{fill:none;stroke:#000000;stroke-width:1.5;stroke-linejoin:round;stroke-miterlimit:10;}
	.st5{fill:#6FA7C6;}
	.st6{fill:#FF6800;}
	.st7{fill:#00C3FD;}
	.st8{fill:#0160C2;}
	.st9{fill:#2ACA00;}
	.st10{fill:#FF871F;}
	.st11{fill:#026232;}
	.st12{fill:#EC6519;}
	.st13{fill:#0DB5EC;}
	.st14{fill:#015DAE;}
	.st15{fill:#6FB92C;}
	.st16{fill:#F57E16;}
	.st17{fill:#EF752A;}
	.st18{fill:#2C6737;}
	.st19{fill:#231917;}
	.st20{fill:#FFFFFF;stroke:#000000;stroke-width:3;stroke-linecap:round;stroke-linejoin:round;stroke-miterlimit:10;}
	.st21{fill:none;stroke:#000000;stroke-width:3;stroke-linecap:round;stroke-linejoin:round;stroke-miterlimit:10;}
	.st22{fill:#F23D3D;}
	.st23{fill:none;stroke:#282828;stroke-width:3;stroke-linecap:round;stroke-linejoin:round;stroke-miterlimit:10;}
	.st24{fill:none;stroke:#282828;stroke-width:3;stroke-linejoin:round;stroke-miterlimit:10;}
</style>
<g>
	<path d="M56,19.43H4c-0.414,0-0.75,0.336-0.75,0.75v11.176c0,0.175,0.061,0.344,0.172,0.479l7.017,8.465
		c0.143,0.172,0.354,0.271,0.578,0.271h38.052c0.225,0,0.438-0.101,0.58-0.274l6.931-8.465c0.11-0.135,0.17-0.303,0.17-0.476V20.18
		C56.75,19.766,56.414,19.43,56,19.43z M55.25,31.088l-6.537,7.982H11.369l-6.62-7.985V20.93h50.5V31.088z"/>
	<path d="M15.571,33.514h28.857c0.414,0,0.75-0.336,0.75-0.75v-5.527c0-0.414-0.336-0.75-0.75-0.75H15.571
		c-0.414,0-0.75,0.336-0.75,0.75v5.527C14.821,33.178,15.157,33.514,15.571,33.514z"/>
</g>
</svg>
