<svg xmlns="http://www.w3.org/2000/svg" height="15px" version="1.1" xmlns:xlink="http://www.w3.org/1999/xlink" viewBox="0 0 564 107">
    <g fill-rule="evenodd" fill="none">
        <g id="Artboard-12" fill="#fff" transform="translate(-2 -3)">
            <path d="m2 108.03h71.905v-14.852h-48.593l48.593-54.917v-12.454h-70.24l0.0002 14.855h46.928l-48.593 54.917v12.451zm125.25 1.8c25.44 0 44.21-19.353 44.21-42.76v-0.3c0-23.558-18.62-42.613-43.9-42.613-25.43 0-44.206 19.506-44.206 42.913v0.3c0 23.407 18.616 42.46 43.896 42.46zm0.31-15.752c-15.14 0-26.04-12.304-26.04-27.008v-0.3c0-14.555 10.14-26.859 25.73-26.859 15.14 0 26.04 12.454 26.04 27.159v0.3c0 14.554-10.14 26.708-25.73 26.708zm60.01 13.952h18.16v-46.362c0-12.904 7.57-21.006 18.47-21.006s17.26 7.202 17.26 20.256v47.112h18.31v-46.512c0-13.504 7.72-20.856 18.32-20.856 10.9 0 17.41 7.202 17.41 20.556v46.812h18.17v-52.214c0-20.106-11.06-31.659-29.22-31.659-12.87 0-21.5 5.851-28.16 14.554-4.39-8.703-12.86-14.554-24.97-14.554-12.87 0-20.14 6.902-25.59 14.404v-12.754h-18.16v82.223zm174.9-11.551c-9.23 0-16.65-4.652-16.65-12.904v-0.3c0-8.703 7.42-14.105 19.98-14.105 7.87 0 14.54 1.501 19.53 3.302v6.001c0 10.654-9.84 18.006-22.86 18.006zm-4.84 13.201c12.87 0 21.65-5.4 27.25-12.151v10.501h17.71v-48.913c0-10.803-2.73-19.356-8.78-25.207-5.91-5.852-15.14-9.153-27.4-9.153-13.17 0-22.1 2.701-31.19 6.752l4.85 14.104c7.57-3.151 14.53-5.101 23.92-5.101 13.62 0 21.04 6.452 21.04 18.455v2.101c-6.51-2.101-13.32-3.451-22.71-3.451-20.28 0-34.36 8.703-34.36 26.408v0.3c0 16.505 14.08 25.355 29.67 25.355zm91.65-0.3c6.96 0 12.11-1.5 16.8-4.05v-14.853c-3.78 1.801-7.57 2.851-11.81 2.851-6.66 0-10.59-3.151-10.59-10.653v-41.263h22.7v-15.605h-22.7v-22.807h-18.17v22.807h-10.75v15.605h10.75v44.114c0 17.854 9.84 23.854 23.77 23.854zm70 0.45c25.43 0 44.2-19.353 44.2-42.76v-0.3c0-23.558-18.62-42.613-43.9-42.613-25.43 0-44.2 19.506-44.2 42.913v0.3c0 23.407 18.62 42.46 43.9 42.46zm0.3-15.752c-15.14 0-26.04-12.304-26.04-27.008v-0.3c0-14.555 10.15-26.859 25.74-26.859 15.14 0 26.03 12.454 26.03 27.159v0.3c0 14.554-10.14 26.708-25.73 26.708z"/>
        </g>
    </g>
</svg>
