<?xml version="1.0" encoding="utf-8"?>
<!-- Generator: Adobe Illustrator 16.0.3, SVG Export Plug-In . SVG Version: 6.00 Build 0)  -->
<!DOCTYPE svg PUBLIC "-//W3C//DTD SVG 1.1//EN" "http://www.w3.org/Graphics/SVG/1.1/DTD/svg11.dtd">
<svg version="1.1" id="PILLS" xmlns="http://www.w3.org/2000/svg" xmlns:xlink="http://www.w3.org/1999/xlink" x="0px" y="0px"
	 width="200px" height="136px" viewBox="0 0 200 136" enable-background="new 0 0 200 136" xml:space="preserve">
<path fill="#C9243F" d="M200,128c0,4.418-3.582,8-8,8H8c-4.418,0-8-3.582-8-8V8c0-4.418,3.582-8,8-8h184c4.418,0,8,3.582,8,8V128z"
	/>
<g>
	<path fill="none" d="M200,45.91V8c0-4.418-3.582-8-8-8H67.176c47.559,11.02,100.068,24.067,125.645,40.213
		C195.672,42.012,198.048,43.928,200,45.91z"/>
	<path fill="none" d="M8,0C3.582,0,0,3.582,0,8v23.662L29.457,0H8z"/>
	<path fill="none" d="M27.395,57.697L0,58.484V128.4c0,4.418,3.582,7.6,8,7.6h5.719C10.209,107,15.643,76.686,27.395,57.697z"/>
	<path fill="none" d="M190.409,81.367c2.493-4.83,0.104-9.367-10.481-9.367c-4.341,0-11.359,0-36.917,0
		c7.14,5,24.746,16.857,30.28,26.98c-7.27,10.664-23.471,20.644-49.855,20.981c4.39-5.245,1.131-8.962-8.767-8.962
		c-8.015,0-2.403,0-7.312,0c0,0-6.037,12-13.226,25H192c4.418,0,8-3.182,8-7.602V76.961
		C197.331,79.162,194.061,80.648,190.409,81.367z"/>
	<path fill="#BBC4CA" d="M41.859,51H0v7.484l27.395-0.787C15.643,76.686,10.209,107,13.719,136h7.658
		C18.243,106,25.105,73,41.859,51z"/>
	<path fill="#BBC4CA" d="M114.669,111c9.897,0,13.156,3.77,8.767,9.014c26.385-0.337,42.586-10.392,49.855-21.056
		C167.757,88.835,150.148,77,143.012,72c25.559,0,32.576,0,36.916,0c10.586,0,12.975,4.537,10.481,9.367
		c3.649-0.719,6.921-2.205,9.591-4.406v-4.775c-1.417,1.482-3.24,2.879-5.494,3.979C195.693,70.984,191.395,68,182.79,68
		c-3.78,0-58.552,0-58.552,0s34.132,16.741,44.453,31.159c-12.391,15.036-29.467,15.649-38.809,15.649
		c1.543-3.707-2.088-8.81-13.445-8.81c-2.916,0-13.685,0-13.685,0c-5.693,12-10.801,22-15.354,30h6.733
		c7.188-13,13.226-25,13.226-25C112.266,111,106.654,111,114.669,111z"/>
	<path fill="#BBC4CA" d="M188.605,42.23c4.968,2.788,8.812,6.22,11.395,9.863V45.91c-1.952-1.982-4.328-3.897-7.18-5.697
		C167.244,24.067,114.732,11.02,67.176,0H29.457L0,31.662v13.714L40.194,2.322C40.194,2.322,145.911,18.282,188.605,42.23z"/>
	<path fill="#FFFFFF" d="M23.372,129.039L81.5,83.171c0.144-0.487,0.296-0.967,0.452-1.452l-52.709,31.992
		c0.798-8.824,2.458-17.646,5.018-26.159l-5.452-3.085l62.038-20.676c0.276-0.423,0.557-0.845,0.839-1.261L39.613,73.174
		c2.812-6.268,6.164-12.166,10.103-17.708L44.892,51h62.276c0.173-1,0.346-0.773,0.516-1.11l-92.721-7.13l26.365-28.407
		l-4.123-5.257c0,0,113.721,16.662,149.626,36.357c7.978,4.376,11.849,9.546,13.169,14.193v-7.552
		c-2.581-3.644-6.426-7.076-11.395-9.863C145.911,18.282,40.194,2.322,40.194,2.322L0,45.376V51h41.859
		c-16.753,22-23.616,55-20.481,85h7.675c-0.151-2-0.259-3.801-0.321-5.818L23.372,129.039z"/>
	<path fill="#FFFFFF" d="M116.438,106c11.358,0,14.989,5.064,13.446,8.771c9.341,0,26.418-0.711,38.81-15.746
		C158.37,84.607,124.238,68,124.238,68s54.771,0,58.552,0c8.604,0,12.903,2.984,11.716,8.166c2.253-1.1,4.076-2.497,5.494-3.98
		v-5.154c-0.552,1.722-1.482,2.963-2.623,3.925c0.089-4.464-4.293-7.956-12.201-7.956c-6.085,0-77.165,0-77.199,0l8.299,4.421
		c0,0-19.021,38.579-34.429,68.579h5.552c4.554-8,9.662-18,15.354-30C102.754,106,113.521,106,116.438,106z M120.385,72.616
		l-1.078-3.195c0,0,37.737,18.463,45.071,29.66c-3.864,5.146-9.772,8.737-17.687,10.543c5.056-3.882,6.015-7.625,2.908-7.625
		c-1.443,0-6.154,0-11.187,0c-1.912,2-2.931,5.276-0.367,8.698c-4.325-0.94-8.489-4.299-8.813-8.698c-9.895,0-23.684,0-23.684,0
		C108.71,95.6,117.837,77.596,120.385,72.616z"/>
	<path fill="#FFFFFF" d="M80.169,103.043L52.043,136h6.702l21.688-31.725C80.336,103.832,80.249,103.486,80.169,103.043z"/>
	<path d="M138.046,110.698c-2.563-3.423-1.545-6.698,0.367-8.698c5.032,0,9.743,0,11.187,0c3.106,0,2.147,3.743-2.908,7.626
		c7.914-1.808,13.822-5.403,17.687-10.547c-7.334-11.197-45.071-29.656-45.071-29.656l1.078,3.192
		C117.837,77.596,108.71,95.6,105.549,102c0,0,13.79,0,23.684,0C129.557,106.4,133.721,109.758,138.046,110.698z M116.725,92.786
		l26.879,3.981c-0.207,0.414-0.416,0.832-0.633,1.232h-28.969L116.725,92.786z"/>
	<path d="M107.977,63c0.035,0,71.115,0,77.2,0c7.907,0,12.29,3.492,12.201,7.956c1.14-0.961,2.071-2.203,2.623-3.925v-7.385
		c-1.321-4.647-5.192-9.822-13.169-14.198C150.926,25.752,37.205,9.085,37.205,9.085l4.123,5.247L14.963,42.717l92.721,7.172
		c-0.17,0.337-0.343,0.11-0.516,1.11H44.892l4.824,4.465c-3.939,5.542-7.291,11.483-10.103,17.75L91.686,62.55
		c-0.282,0.417-0.563,0.828-0.839,1.251L28.809,84.473l5.452,3.082c-2.56,8.514-4.22,17.334-5.018,26.157l52.709-31.991
		c-0.155,0.483-0.308,0.963-0.452,1.45l-58.129,45.867l5.36,1.144c0.062,2.019,0.17,3.818,0.321,5.818h7.379
		c-0.223-2-0.408-3.552-0.544-5.449l35.287-29.895c0.012,0.541,0.032,0.936,0.059,1.479L40.745,136h11.298l28.126-32.957
		c0.08,0.443,0.167,0.789,0.264,1.232L58.745,136h10.782l7.885-11.688c0.234,0.443,0.475,0.787,0.721,1.23L72.984,136h8.864
		c15.408-30,34.429-68.579,34.429-68.579L107.977,63z M87.025,58.132l-37.099,6.627c1.446-2.463,3-4.844,4.672-7.138l33.413-0.76
		C87.679,57.281,87.351,57.707,87.025,58.132z M75.565,77.986L37.639,98.697c0.569-3.08,1.255-6.131,2.067-9.141l36.498-13.113
		C75.984,76.956,75.77,77.473,75.565,77.986z M187.309,54h-6.382c-2.516-4-9.806-10.146-9.806-10.146
		C175.068,45.172,183.949,50,187.309,54z M169.812,59.243c3.379-0.27,15.334-1.154,22.09-2.427l-0.991-4.316
		c6.922,3.531,7.771,10.371,6.848,13.004C197.132,63.577,194.157,60,187.1,60c-5.875,0-14.918,0-17.795,0
		C169.477,60,169.646,59.578,169.812,59.243z M39.114,31.778l7.528-8.153c41.448,6.405,91.023,16.529,116.191,23.861
		c-0.214,0.431-0.44,0.874-0.664,1.319L39.114,31.778z"/>
	<path fill="#FFFFFF" d="M197.759,65.537c0.923-2.634,0.074-9.572-6.848-13.103l0.991,4.447c-6.756,1.273-18.711,2.059-22.09,2.329
		c-0.166,0.335-0.336,0.79-0.51,0.79c2.879,0,11.92,0,17.795,0C194.157,60,197.131,63.61,197.759,65.537z"/>
	<path fill="#FFFFFF" d="M180.927,54h6.382c-3.359-4-12.24-8.828-16.188-10.146C171.121,43.854,178.411,50,180.927,54z"/>
	<path fill="#C9243F" d="M143.604,96.799l-26.879-4.043L114.001,98h28.97C143.188,97.6,143.395,97.212,143.604,96.799z"/>
	<path fill="#C9243F" d="M77.413,124.312L69.527,136h3.457l5.15-10.457C77.888,125.1,77.647,124.756,77.413,124.312z"/>
	<path fill="#C9243F" d="M71.174,100.756l-35.287,29.795c0.136,1.897,0.321,3.449,0.544,5.449h4.313l30.488-33.812
		C71.207,101.641,71.187,101.298,71.174,100.756z"/>
	<path fill="#C9243F" d="M162.833,47.486C137.665,40.154,88.09,30.031,46.642,23.625l-7.528,8.153L162.17,48.806
		C162.395,48.36,162.619,47.917,162.833,47.486z"/>
	<path fill="#C9243F" d="M37.639,98.697l37.926-20.711c0.205-0.514,0.419-1.03,0.639-1.543L39.707,89.559
		C38.895,92.566,38.208,95.618,37.639,98.697z"/>
	<path fill="#C9243F" d="M49.927,64.759l37.099-6.627c0.326-0.425,0.654-0.851,0.986-1.27l-33.413,0.76
		C52.927,59.915,51.373,62.296,49.927,64.759z"/>
</g>
</svg>
