<?xml version="1.0" encoding="utf-8"?>
<!-- Generator: Adobe Illustrator 16.0.3, SVG Export Plug-In . SVG Version: 6.00 Build 0)  -->
<!DOCTYPE svg PUBLIC "-//W3C//DTD SVG 1.1//EN" "http://www.w3.org/Graphics/SVG/1.1/DTD/svg11.dtd">
<svg version="1.1" id="PILLS" xmlns="http://www.w3.org/2000/svg" xmlns:xlink="http://www.w3.org/1999/xlink" x="0px" y="0px"
	 width="200px" height="136px" viewBox="0 0 200 136" enable-background="new 0 0 200 136" xml:space="preserve">
<path fill="#00295B" d="M200,128c0,4.418-3.582,8-8,8H8c-4.418,0-8-3.582-8-8V8c0-4.418,3.582-8,8-8h184c4.418,0,8,3.582,8,8V128z"
	/>
<g>
	<path fill="none" d="M9.956,69.661c-10.121-2.629-5.334-11.862-2.271-12.152c0,0-3.646,0.444-7.685,0.788v70.102
		C0,132.818,3.582,136,8,136h108.555C89.469,105,60.549,83.826,9.956,69.661z"/>
	<path fill="none" d="M200,13.381V8c0-4.418-3.582-8-8-8h-59.023C160.717,8.25,170.648,19.326,200,13.381z"/>
	<path fill="none" d="M182.203,88.006l-15.413,7.26l2.897,22.586l-10.108,4.68l-2.741,6.568c0.995,2.276,1.387,4.9,1.283,6.9H192
		c4.418,0,8-3.182,8-7.602V39.92C192.499,60.337,182.203,88.006,182.203,88.006z"/>
	<path fill="#FFFFFF" d="M12.737,63.579c21.965-2.188,39.223-11.932,74.464-8.108c-16.896-10.304-32.399-10.854-49.977-8.964
		L34.46,29.993c11.005-2.042,22.281-3.068,34.817-2.292c-11.403-5.188-23.416-6.803-36.182-6.365L29.983,2.063
		C36.769,1.173,43.716,0.476,50.86,0H8C3.835,0,0.417,3.184,0.038,7.25c8.601-1.814,17.359-3.418,26.391-4.697l3.561,18.937
		C20.434,22.053,10.457,23.684,0,25.766v12.871c10.605-2.932,20.977-5.913,31.718-8.058l2.946,16.247
		C24.097,48.071,12.782,50.068,0,51.267v7.03c4.038-0.344,7.685-0.688,7.685-0.688c-3.063,0.289-7.85,9.423,2.271,12.052
		C60.549,83.826,89.469,105,116.555,136h9.35C106.331,112,75.752,80.114,12.737,63.579z"/>
	<path fill="#FFFFFF" d="M156.838,129.1l2.741-6.668l10.108-4.631L166.79,95.24l15.413-7.247c0,0,10.296-27.656,17.797-48.073
		V13.381C170.648,19.326,160.717,8.25,132.977,0H93.093c54.538,3.697,67.265,28.518,105.986,20.481l-23.006,62.976l-17.363,7.109
		l2.935,23.104l-9.274,4.337l-0.158,4.768l-3.462,7.226c1.145,1.394,1.82,3.999,1.718,5.999h7.653
		C158.225,134,157.833,131.376,156.838,129.1z"/>
	<path fill="#DA2128" d="M26.429,2.552C17.397,3.832,8.639,5.436,0.038,7.25C0.015,7.497,0,7.747,0,8v17.766
		c10.457-2.082,20.434-3.713,29.99-4.278L26.429,2.552z"/>
	<path fill="#002A5C" d="M148.75,130.001l3.462-7.326l0.158-4.716l9.274-4.312l-2.935-23.092l17.363-7.104l23.006-62.973
		C160.355,28.515,147.631,3.697,93.093,0H50.86c-7.145,0.476-14.091,1.176-20.877,2.066l3.113,19.277
		c12.766-0.438,24.779,1.184,36.182,6.371c-12.537-0.776-23.812,0.263-34.817,2.304l2.764,16.539
		c17.577-1.89,33.08-1.289,49.977,9.014c-35.241-3.824-52.499,5.82-74.464,8.008C75.752,80.114,106.331,112,125.904,136h7.441
		c-9.074-12-19.351-24.671-36.253-36.506c5.689-6.801,13.156-2.385,20.271,3.773l7.908,11.53l-2.488-14.394l-19.251-15.766
		c3.5-11.185,28.301-10.519,33.39-3.391c-9.074-1.155-13.852,1.979-16.921,8.934l21.808,1.285c1.767-7.031,5.854-9.58,10.717-8.986
		l3.537,27.397l-12.304-0.767l-2.284,2.5l6.651,3.186l-0.242,3.706l-6.509-0.381l-8.553,5.854l8.433-1.521l7.486,0.44l-2.765,4.803
		l-6.021-0.355l5.292,6.316c0.484,0.604,0.716,1.34,0.695,2.34h4.523C150.57,134,149.895,131.395,148.75,130.001z M152.997,55.129
		l-18.789,4.426l11.61-13.521l-9.575-12.685l16.036,5.503l9.341-9.813l1.548,13.76l15.489,5.814l-14.529,3.641l1.435,18.551
		L152.997,55.129z"/>
	<path fill="#DA2128" d="M31.718,30.579C20.977,32.724,10.605,35.705,0,38.637v12.63c12.782-1.199,24.097-3.196,34.664-4.441
		L31.718,30.579z"/>
	<path fill="#B0B7BC" d="M145.249,133.66l-5.292-6.416l6.021,0.404l2.764-4.776l-7.486-0.429l-8.432,1.527l8.552-5.852l6.509,0.383
		l0.242-3.706l-6.652-3.187l2.285-2.5l12.303,0.768l-3.535-27.396c-4.863-0.594-8.952,1.955-10.719,8.986L120,90.186
		c3.068-6.955,7.846-10.086,16.921-8.931c-5.089-7.127-29.89-7.787-33.39,3.396l19.251,15.779l2.489,14.418l-7.91-11.479
		c-7.112-6.158-14.58-10.674-20.27-3.874C113.996,111.329,124.271,124,133.346,136h12.598
		C145.965,135,145.732,134.266,145.249,133.66z"/>
	<polygon fill="#FFFFFF" points="164.128,52.254 178.657,48.613 163.168,42.799 161.62,29.039 152.279,38.853 136.243,33.349 
		145.818,46.034 134.208,59.555 152.997,55.129 165.562,70.805 	"/>
</g>
</svg>
