<?xml version="1.0" encoding="utf-8"?>
<!-- Generator: Adobe Illustrator 19.2.1, SVG Export Plug-In . SVG Version: 6.00 Build 0)  -->
<svg version="1.1" id="Layer_1" xmlns="http://www.w3.org/2000/svg" xmlns:xlink="http://www.w3.org/1999/xlink" x="0px" y="0px"
	 viewBox="0 0 60 60" style="enable-background:new 0 0 60 60;" xml:space="preserve">
<style type="text/css">
	.st0{fill:#FFFFFF;}
	.st1{fill:none;stroke:#000000;stroke-linecap:round;stroke-linejoin:round;stroke-miterlimit:10;}
	.st2{fill:#D1D1D1;}
	.st3{fill:none;stroke:#000000;stroke-width:1.5;stroke-linecap:round;stroke-linejoin:round;stroke-miterlimit:10;}
	.st4{fill:none;stroke:#000000;stroke-width:1.5;stroke-linejoin:round;stroke-miterlimit:10;}
</style>
<g>
	<path d="M13.223,29.01c0.083,0.03,0.168,0.045,0.251,0.045c0.296,0,0.575-0.183,0.684-0.476c0.03-0.084,3.189-8.389,11.911-9.816
		c7.804-1.276,12.143,3.334,12.323,3.531c0.273,0.296,0.733,0.316,1.029,0.045c0.296-0.271,0.318-0.73,0.047-1.027
		c-0.202-0.221-5.03-5.393-13.634-3.986c-9.577,1.567-12.906,10.378-13.043,10.752C12.653,28.454,12.846,28.871,13.223,29.01z"/>
	<path d="M39.538,42.09c-0.315,0.248-0.371,0.704-0.124,1.02c0.144,0.184,0.358,0.28,0.575,0.28c0.156,0,0.314-0.05,0.447-0.154
		c0.181-0.141,4.419-3.543,3.661-11.289c-0.008-0.106-0.193-2.623-1.356-5.521c-0.15-0.374-0.575-0.555-0.947-0.405
		c-0.374,0.15-0.555,0.574-0.405,0.947c1.073,2.675,1.253,5.057,1.257,5.1C43.323,38.997,39.692,41.967,39.538,42.09z"/>
	<path d="M32.947,37.474c-1.21,0.398-2.375,0.244-3.196-0.423c-0.672-0.547-1.001-1.362-0.903-2.239
		c0.046-0.4-0.242-0.76-0.642-0.805c-0.391-0.044-0.76,0.242-0.805,0.642c-0.155,1.379,0.366,2.667,1.431,3.532
		c1.215,0.987,2.88,1.233,4.571,0.676c2.829-0.933,3.699-4.663,2.907-7.729c-0.859-3.316-3.922-6.797-9.707-5.697
		c-5.16,0.979-7.709,6.763-7.191,11.789c0.493,4.788,3.821,9.851,11.611,9.85c0.109,0,0.219-0.001,0.329-0.003
		c0.016,0.001,0.108,0.006,0.265,0.006c0.585,0,2.071-0.075,3.898-0.729c0.378-0.136,0.575-0.552,0.44-0.931
		c-0.136-0.379-0.552-0.575-0.931-0.44c-2.019,0.723-3.566,0.641-3.639,0.639c-0.098,0.002-0.195,0.003-0.292,0.003
		c-6.889,0-9.806-4.391-10.233-8.545c-0.45-4.372,1.676-9.386,6.014-10.209c4.802-0.912,7.293,1.795,8.025,4.631
		C35.601,34.205,34.725,36.888,32.947,37.474z"/>
	<path d="M27.129,53.328C10.895,49.46,13.05,34.227,13.149,33.58c0.061-0.397-0.21-0.769-0.608-0.831
		c-0.399-0.056-0.769,0.21-0.831,0.607c-0.027,0.172-2.477,17.205,15.081,21.389c0.057,0.014,0.114,0.02,0.17,0.02
		c0.329,0,0.628-0.225,0.707-0.559C27.761,53.814,27.52,53.421,27.129,53.328z"/>
	<path d="M40.842,50.369c-3.511,3.23-9.107,3.12-9.166,3.12c-0.397-0.018-0.737,0.306-0.747,0.708
		c-0.011,0.402,0.305,0.736,0.706,0.748c0.022,0.001,0.082,0.002,0.178,0.002c1.057,0,6.39-0.172,10.014-3.506
		c0.296-0.272,0.315-0.733,0.043-1.029C41.6,50.116,41.139,50.096,40.842,50.369z"/>
	<path d="M39.625,33.532c-0.383-0.034-0.747,0.279-0.772,0.681c-0.194,3.077-1.552,5.431-3.823,6.628
		c-2.309,1.218-5.331,1.092-7.698-0.318c-2.58-1.538-2.986-4.308-2.551-6.214c0.447-1.96,1.764-3.318,3.355-3.459
		c1.018-0.087,1.816,0.126,2.361,0.641c0.994,0.94,0.949,2.616,0.949,2.633c-0.015,0.401,0.297,0.739,0.698,0.755
		c0.392,0.018,0.741-0.296,0.757-0.698c0.004-0.095,0.077-2.337-1.393-3.738c-0.863-0.821-2.037-1.172-3.5-1.043
		c-2.232,0.198-4.055,1.998-4.646,4.585c-0.544,2.382-0.026,5.851,3.226,7.788c1.507,0.899,3.244,1.353,4.956,1.353
		c1.46,0,2.901-0.33,4.166-0.997c2.737-1.443,4.37-4.222,4.596-7.824C40.331,33.903,40.027,33.557,39.625,33.532z"/>
	<path d="M32.132,21.7c-0.38-0.119-0.791,0.096-0.911,0.48c-0.119,0.384,0.096,0.792,0.481,0.911
		c6.175,1.915,6.827,7.127,6.852,7.346c0.04,0.374,0.356,0.652,0.723,0.652c0.026,0,0.051-0.001,0.078-0.004
		c0.399-0.043,0.689-0.401,0.648-0.801C39.974,30.024,39.249,23.906,32.132,21.7z"/>
	<path d="M28.489,12.931c-9.508,0-14.972,6.681-15.199,6.965c-0.251,0.314-0.201,0.776,0.112,1.027s0.772,0.212,1.024-0.101
		c0.051-0.064,5.273-6.399,14.064-6.399c10.298,0,17.983,7.875,18.273,18.673c0.01,0.395,0.335,0.785,0.728,0.785
		c0.007,0,0.013,0,0.02,0c0.402,0,0.719-0.421,0.708-0.823C47.905,21.44,39.608,12.931,28.489,12.931z"/>
	<path d="M46.58,39.214c-0.371-0.152-0.796,0.026-0.949,0.399c-1.484,3.633-3.926,5.776-3.96,5.805
		c-4.159,3.714-8.76,4.358-11.862,4.249c-1.875-0.067-4.988-0.806-7.589-2.665c-3.519-2.516-5.303-6.385-5.303-11.5
		c0-7.299,4.152-10.574,7.649-12.042c0.01-0.005,1.077-0.471,2.639-0.688c0.398-0.055,0.676-0.423,0.621-0.821
		c-0.056-0.398-0.42-0.674-0.822-0.621c-1.779,0.247-2.981,0.777-3.016,0.793c-3.185,1.337-8.528,4.854-8.528,13.379
		c0,11.949,9.352,15.443,14.296,15.62c0.227,0.008,0.46,0.013,0.701,0.013c3.348,0,7.967-0.864,12.175-4.622
		c0.111-0.095,2.726-2.378,4.348-6.349C47.131,39.791,46.953,39.366,46.58,39.214z"/>
	<path d="M16.868,14.005c0.043-0.037,4.43-3.749,12.522-3.749c7.346,0,13.334,3.17,17.797,9.422
		c0.142,0.199,0.366,0.305,0.593,0.305c0.146,0,0.294-0.044,0.422-0.136c0.327-0.234,0.404-0.688,0.17-1.015
		C43.619,12.176,37.233,8.8,29.39,8.8c-8.671,0-13.286,3.939-13.479,4.106c-0.302,0.264-0.334,0.722-0.07,1.026
		C16.102,14.234,16.562,14.268,16.868,14.005z"/>
	<path d="M20.298,8.193c0.051-0.025,5.27-2.455,12.584-1.61c7.146,0.824,10.944,4.344,10.982,4.379
		c0.14,0.133,0.32,0.199,0.501,0.199c0.192,0,0.385-0.076,0.528-0.227c0.276-0.292,0.265-0.751-0.026-1.028
		C44.7,9.748,40.708,6.02,33.048,5.136C25.328,4.245,19.9,6.77,19.672,6.878c-0.363,0.173-0.518,0.607-0.345,0.97
		C19.501,8.211,19.932,8.367,20.298,8.193z"/>
</g>
</svg>
