<?xml version="1.0" encoding="utf-8"?>
<!-- Generator: Adobe Illustrator 19.2.1, SVG Export Plug-In . SVG Version: 6.00 Build 0)  -->
<svg version="1.1" id="Layer_1" xmlns="http://www.w3.org/2000/svg" xmlns:xlink="http://www.w3.org/1999/xlink" x="0px" y="0px"
	 viewBox="0 0 60 60" style="enable-background:new 0 0 60 60;" xml:space="preserve">
<style type="text/css">
	.st0{fill:#FFFFFF;}
	.st1{fill:none;stroke:#000000;stroke-linecap:round;stroke-linejoin:round;stroke-miterlimit:10;}
	.st2{fill:#D1D1D1;}
	.st3{fill:none;stroke:#000000;stroke-width:1.5;stroke-linecap:round;stroke-linejoin:round;stroke-miterlimit:10;}
	.st4{fill:none;stroke:#000000;stroke-width:1.5;stroke-linejoin:round;stroke-miterlimit:10;}
</style>
<g>
	<g>
		<g>
			<g>
				<g>
					<path d="M14.019,43.815V30.319h2.172c0,0,0,0.541,0,0.991c0.3-0.482,0.885-0.827,1.344-0.98
						c0.459-0.153,0.937-0.231,1.42-0.231c1.203,0,2.488,0.406,3.53,1.49c0.964,1.002,1.473,2.221,1.473,3.662
						c0,0.66-0.128,1.312-0.381,1.938c-0.243,0.628-0.593,1.179-1.042,1.64c-0.474,0.496-1.014,0.874-1.606,1.126
						c-0.593,0.252-1.147,0.38-1.873,0.38c-0.526,0-1.038-0.084-1.521-0.248c-0.473-0.155-1.139-0.536-1.378-0.95v4.676H14.019z
						 M18.887,32.013c-0.793,0-1.483,0.248-2.05,0.831c-0.58,0.606-0.804,1.469-0.804,2.328c0,0.918,0.218,1.81,0.785,2.415
						c0.569,0.607,1.27,0.82,2.087,0.82c0.828,0,1.501-0.338,2.011-0.855c0.588-0.596,0.866-1.408,0.866-2.28
						c0-0.954-0.279-1.8-0.849-2.404C20.443,32.348,19.737,32.013,18.887,32.013z"/>
					<polygon points="38.861,43.815 40.697,39.558 36.488,30.319 38.779,30.319 41.771,37.254 44.529,30.319 46.832,30.319 
						41.112,43.815 					"/>
				</g>
			</g>
		</g>
		<path d="M33.039,40.156c0,0,0-0.729,0-1.018c-0.239,0.414-0.904,0.795-1.378,0.95c-0.483,0.164-0.995,0.248-1.521,0.248
			c-0.726,0-1.279-0.128-1.873-0.38c-0.592-0.252-1.132-0.631-1.606-1.126c-0.449-0.46-0.8-1.011-1.042-1.64
			c-0.253-0.626-0.381-1.278-0.381-1.938c0-1.441,0.509-2.66,1.473-3.662c1.043-1.083,2.328-1.49,3.53-1.49
			c0.483,0,0.961,0.078,1.42,0.231c0.459,0.153,1.044,0.498,1.344,0.98c0-0.451,0-0.991,0-0.991h2.172v9.837H33.039z M28.264,32.867
			c-0.57,0.604-0.849,1.451-0.849,2.404c0,0.872,0.279,1.685,0.866,2.28c0.51,0.517,1.183,0.855,2.011,0.855
			c0.817,0,1.519-0.213,2.087-0.82c0.567-0.605,0.785-1.497,0.785-2.415c0-0.86-0.224-1.722-0.804-2.328
			c-0.568-0.583-1.257-0.831-2.05-0.831C29.459,32.013,28.754,32.348,28.264,32.867z"/>
	</g>
	<g>
		<polygon points="49.01,23.989 48.897,17.452 50.962,17.452 50.962,25.698 47.995,25.698 45.942,18.929 45.89,18.929 
			46.006,25.698 43.96,25.698 43.96,17.452 47.048,17.452 48.967,23.989 		"/>
		<polygon points="11.539,18.219 10.398,25.777 8.151,25.777 9.692,17.452 13.402,17.452 14.941,25.777 12.698,25.777 
			11.588,18.219 		"/>
		<polygon points="21.248,23.819 22.278,17.452 25.672,17.452 25.859,25.777 23.773,25.777 23.717,18.289 23.674,18.289 
			22.284,25.777 20.174,25.777 18.777,18.289 18.731,18.289 18.679,25.777 16.598,25.777 16.785,17.452 20.183,17.452 
			21.204,23.819 		"/>
		<path d="M38.711,24.526c0.582,0,0.76-0.395,0.802-0.598c0.016-0.09,0.018-0.21,0.018-0.318v-6.158h2.113v5.967
			c0,0.156-0.017,0.468-0.026,0.552c-0.141,1.553-1.375,2.053-2.907,2.053c-1.533,0-2.76-0.5-2.902-2.053
			c-0.01-0.083-0.022-0.395-0.02-0.552v-5.967h2.108v6.158c-0.007,0.108,0.005,0.228,0.016,0.318
			C37.953,24.131,38.132,24.526,38.711,24.526"/>
		<g>
			<path d="M4.644,23.425c0.081,0.204,0.055,0.462,0.018,0.618c-0.069,0.276-0.255,0.562-0.813,0.562
				c-0.519,0-0.833-0.303-0.833-0.756L3.01,23.041H0.779v0.642c0,1.86,1.459,2.417,3.022,2.417c1.512,0,2.75-0.51,2.946-1.899
				c0.104-0.722,0.029-1.193-0.004-1.368c-0.353-1.748-3.515-2.26-3.751-3.237c-0.041-0.173-0.032-0.343-0.009-0.436
				c0.06-0.271,0.242-0.563,0.761-0.563c0.492,0,0.776,0.306,0.776,0.753v0.52h2.077v-0.585c0-1.815-1.63-2.099-2.812-2.099
				c-1.478,0-2.686,0.493-2.91,1.852c-0.056,0.366-0.064,0.698,0.019,1.117C1.255,21.861,4.219,22.351,4.644,23.425"/>
			<path d="M31.72,23.415c0.085,0.198,0.051,0.453,0.018,0.609c-0.066,0.274-0.257,0.549-0.804,0.549
				c-0.517,0-0.828-0.293-0.828-0.744v-0.802h-2.214v0.639c0,1.842,1.447,2.392,2.999,2.392c1.487,0,2.715-0.507,2.913-1.884
				c0.099-0.71,0.026-1.178-0.012-1.357c-0.347-1.723-3.476-2.234-3.704-3.205c-0.042-0.163-0.03-0.336-0.013-0.428
				c0.058-0.263,0.238-0.554,0.752-0.554c0.489,0,0.769,0.298,0.769,0.742v0.513h2.053v-0.575c0-1.795-1.612-2.077-2.776-2.077
				c-1.466,0-2.667,0.479-2.882,1.831c-0.065,0.361-0.073,0.69,0.019,1.11C28.367,21.861,31.296,22.344,31.72,23.415"/>
			<path d="M56.08,24.442c0.6,0,0.811-0.375,0.849-0.605c0.015-0.091,0.022-0.208,0.021-0.315v-1.203h-0.852v-1.223h2.947v2.238
				c0,0.156-0.006,0.271-0.026,0.548c-0.14,1.51-1.456,2.056-2.935,2.056c-1.473,0-2.782-0.545-2.92-2.056
				c-0.029-0.277-0.03-0.392-0.03-0.548v-3.503c0-0.151,0.017-0.414,0.037-0.547c0.181-1.564,1.441-2.056,2.914-2.056
				c1.478,0,2.777,0.487,2.925,2.056c0.03,0.258,0.018,0.547,0.018,0.547l0.003,0.272h-2.099v-0.466c0,0,0-0.199-0.026-0.317
				c-0.038-0.181-0.198-0.603-0.834-0.603c-0.599,0-0.779,0.4-0.827,0.603c-0.027,0.108-0.032,0.259-0.032,0.392v3.809
				c0,0.107,0.005,0.225,0.014,0.315C55.267,24.067,55.476,24.442,56.08,24.442"/>
		</g>
	</g>
</g>
</svg>
