<?xml version="1.0" encoding="utf-8"?>
<!-- Generator: Adobe Illustrator 19.2.1, SVG Export Plug-In . SVG Version: 6.00 Build 0)  -->
<svg version="1.1" id="Layer_1" xmlns="http://www.w3.org/2000/svg" xmlns:xlink="http://www.w3.org/1999/xlink" x="0px" y="0px"
	 viewBox="0 0 60 60" style="enable-background:new 0 0 60 60;" xml:space="preserve">
<style type="text/css">
	.st0{fill:#FFFFFF;}
	.st1{fill:none;stroke:#000000;stroke-linecap:round;stroke-linejoin:round;stroke-miterlimit:10;}
	.st2{fill:#D1D1D1;}
	.st3{fill:none;stroke:#000000;stroke-width:1.5;stroke-linecap:round;stroke-linejoin:round;stroke-miterlimit:10;}
	.st4{fill:none;stroke:#000000;stroke-width:1.5;stroke-linejoin:round;stroke-miterlimit:10;}
</style>
<g>
	<path d="M47.675,55.75c-0.32,0-0.616-0.206-0.716-0.527c-0.666-2.143-2.646-3.697-4.707-3.697h-24.83
		c-2.139,0-4.089,1.468-4.743,3.57c-0.062,0.199-0.204,0.363-0.393,0.454c-0.189,0.09-0.406,0.097-0.599,0.021
		c-2.362-0.933-3.808-3.327-3.516-5.822l4.744-40.504c0.333-2.848,2.746-4.994,5.612-4.994h22.943c2.866,0,5.279,2.146,5.612,4.994
		l4.744,40.504c0.312,2.664-1.342,5.175-3.933,5.969C47.821,55.739,47.748,55.75,47.675,55.75z M17.422,50.025h24.83
		c2.49,0,4.799,1.608,5.855,3.996c1.516-0.763,2.431-2.388,2.23-4.1L45.594,9.418c-0.245-2.091-2.017-3.668-4.122-3.668H18.528
		c-2.105,0-3.877,1.577-4.122,3.668L9.663,49.922c-0.184,1.57,0.578,3.086,1.899,3.912C12.621,51.555,14.921,50.025,17.422,50.025z"
		/>
</g>
</svg>
