<?xml version="1.0" encoding="utf-8"?>
<!-- Generator: Adobe Illustrator 18.0.0, SVG Export Plug-In . SVG Version: 6.00 Build 0)  -->
<!DOCTYPE svg PUBLIC "-//W3C//DTD SVG 1.1//EN" "http://www.w3.org/Graphics/SVG/1.1/DTD/svg11.dtd">
<svg version="1.1" xmlns="http://www.w3.org/2000/svg" xmlns:xlink="http://www.w3.org/1999/xlink" x="0px" y="0px"
	 viewBox="0 0 80 36" enable-background="new 0 0 80 36" xml:space="preserve">
<g id="color_logo">
</g>
<g id="color_countries_copy">
	<g>
		<path fill="#8E8E98" d="M77.3,25.8h-0.4c-0.1,0-0.1,0-0.1-0.1c0-0.1,0-0.1,0.1-0.1h1c0.1,0,0.1,0,0.1,0.1c0,0.1,0,0.1-0.1,0.1
			h-0.4V27c0,0.1,0,0.1-0.1,0.1c-0.1,0-0.1,0-0.1-0.1V25.8z M78.3,25.7c0-0.1,0-0.1,0.1-0.1h0c0,0,0.1,0,0.1,0.1l0.5,0.8l0.5-0.8
			c0,0,0.1-0.1,0.1-0.1h0c0.1,0,0.1,0,0.1,0.1V27c0,0.1,0,0.1-0.1,0.1c-0.1,0-0.1,0-0.1-0.1v-1l-0.4,0.7c0,0-0.1,0.1-0.1,0.1
			c0,0-0.1,0-0.1-0.1L78.5,26v1c0,0.1,0,0.1-0.1,0.1c-0.1,0-0.1,0-0.1-0.1V25.7z"/>
		<path fill-rule="evenodd" clip-rule="evenodd" fill="#FEAA26" d="M73.9,3.5c-1,0-1.7,0.4-2.2,1.2c-0.6,0.9-0.9,1.9-0.9,3
			c0,1.4,0.4,2.6,1.1,3.6c0.3,0.4,0.7,0.9,1,1.3c0.2,0.2,0.3,0.7,0.3,1c0,1.5-0.9,12.2-0.9,12.3c0,0.2,0,0.6,0,0.7
			c0.2,0.7,0.8,1.2,1.6,1.2v0c0.7,0,1.4-0.5,1.6-1.2c0.1-0.2,0.1-0.5,0-0.7c0,0-1-10.8-0.9-12.3c0-0.4,0.2-0.8,0.3-1
			c0.3-0.4,0.7-0.8,1-1.3c0.7-1,1.1-2.2,1.1-3.6c0-1.1-0.3-2.1-0.9-3C75.6,3.9,74.9,3.5,73.9,3.5L73.9,3.5z"/>
		<path fill="#FF6600" d="M41.1,26.1c0,0.5-0.4,0.8-0.7,1c-0.6,0.3-1.7,0.8-2.5,0.7c-1-0.1-1.7-0.4-2.4-1.3
			c-0.8-0.9-1.2-2.9-1.2-5.4v0v0c0-2.5,0.5-4.5,1.2-5.4c0.8-0.9,1.4-1.2,2.4-1.3c0.8-0.1,1.9,0.3,2.5,0.7c0.3,0.1,0.7,0.5,0.7,1
			c0,0.6-0.5,1-1,1c-0.2,0-0.4,0-0.5-0.1c-1.2-0.8-2.2-0.7-2.8,0.4c-0.4,0.7-0.6,2.2-0.6,3.8c0,1.7,0.2,3.1,0.6,3.8
			c0.6,1,1.6,1.2,2.8,0.4c0.1-0.1,0.3-0.1,0.5-0.1C40.6,25.1,41.1,25.6,41.1,26.1z M20.1,27.8c0.6,0,1-0.5,1-1l0-7.6
			c0-0.7,0.2-1.3,0.7-1.9c0.4-0.5,1.1-0.9,2.1-0.9c0.1,0,0.2,0,0.4,0c0.1,0,0.1,0,0.2,0l0.1,0h0c0.5,0,1-0.5,1-1c0-0.5-0.4-1-1-1
			c-1.4,0-2.7,0.6-3.4,1.6v-0.6c0-0.6-0.5-1-1-1c-0.6,0-1,0.5-1,1v11.4C19,27.3,19.5,27.8,20.1,27.8z M44.7,11.1
			c0-0.6-0.5-1.1-1.1-1.1c-0.6,0-1.1,0.5-1.1,1.1c0,0.6,0.5,1.1,1.1,1.1C44.2,12.2,44.7,11.7,44.7,11.1z M6.2,21.1
			c0,2.7-0.4,4.9-1.8,4.9c-1.4,0-1.8-2.2-1.8-4.9c0-2.7,0.5-4.9,1.8-4.9C6,16.2,6.2,18.4,6.2,21.1z M8.2,26.7V15.4c0-0.6-0.5-1-1-1
			c-0.6,0-1,0.5-1,1v0.5c-0.6-1-1.6-1.5-2.5-1.5c-0.2,0-0.4,0-0.6,0c-0.5,0.1-1.3,0.6-1.9,1.7c-0.6,1-0.9,2.7-0.9,5
			c0,2.3,0.3,4,0.9,5c0.6,1.1,1.5,1.8,2.4,1.8c1.1,0,2-0.4,2.7-1.4l0,0.3c0,0.3,0.1,0.5,0.3,0.7c0.2,0.2,0.5,0.3,0.7,0.3
			C7.8,27.8,8.2,27.3,8.2,26.7z M12.7,6.9c0-0.6-0.5-1.1-1.1-1.1c-0.6,0-1.1,0.5-1.1,1.1v19.8c0,0.6,0.5,1.1,1.1,1.1
			c0.6,0,1.1-0.5,1.1-1.1V6.9z M17,6.9c0-0.6-0.5-1.1-1.1-1.1c-0.6,0-1.1,0.5-1.1,1.1v19.8c0,0.6,0.5,1.1,1.1,1.1
			c0.6,0,1.1-0.5,1.1-1.1V6.9z M44.7,15.5c0-0.6-0.5-1.1-1.1-1.1c-0.6,0-1.1,0.5-1.1,1.1v11.2c0,0.6,0.5,1.1,1.1,1.1
			c0.6,0,1.1-0.5,1.1-1.1V15.5z M52.5,21.1c0-2.7-0.5-4.9-1.8-4.9c-1.6,0-1.8,2.2-1.8,4.9c0,2.7,0.4,4.9,1.8,4.9
			C52,26,52.5,23.8,52.5,21.1z M54.7,21c0,2.3-0.3,4-0.9,5c-0.6,1.1-1.5,1.8-2.4,1.8c-1.1,0-2-0.4-2.7-1.4c0,0.2,0,5.3,0,5.3
			c0,0.6-0.5,1-1,1c-0.6,0-1-0.5-1-1V15.4c0-0.6,0.5-1,1-1c0.6,0,1,0.5,1,1v0.5c0.6-1,1.6-1.5,2.5-1.5c0.2,0,0.4,0,0.6,0
			c0.5,0.1,1.3,0.6,1.9,1.7C54.4,17.1,54.7,18.8,54.7,21z M27.5,20.1c0-1.9,0.4-3.8,1.7-3.8c1.3,0,1.9,1.9,1.9,3.8L27.5,20.1z
			 M33.1,21.1c0-3.1-0.5-6.8-3.8-6.8c-2.2,0-2.9,1.4-3.3,2.4c-0.4,1.1-0.7,2.5-0.7,4.3c0,1.6,0.2,3.8,1,5.1c0.8,1.2,1.8,1.8,3,1.8
			c1.9,0,3.2-1.1,3.5-2.8c0.3-1.5-1.7-1.6-1.9-0.5c-0.1,0.7-0.6,1.5-1.6,1.5c-0.9,0-1.4-0.9-1.5-1.4c-0.3-0.8-0.4-2.1-0.4-3.1h5.3
			C32.9,21.5,33.1,21.3,33.1,21.1z M57.9,20.1c0-1.9,0.4-3.8,1.7-3.8s1.9,1.9,1.9,3.8L57.9,20.1z M63.6,21.1c0-3.1-0.5-6.8-3.8-6.8
			c-2.2,0-2.9,1.4-3.3,2.4c-0.4,1.1-0.7,2.5-0.7,4.3c0,1.6,0.2,3.8,1,5.1c0.8,1.2,1.8,1.8,3,1.8c1.9,0,3.2-1.1,3.5-2.8
			c0.3-1.5-1.7-1.6-1.9-0.5c-0.1,0.7-0.6,1.5-1.6,1.5c-0.9,0-1.4-0.9-1.5-1.4c-0.3-0.8-0.4-2.1-0.4-3.1h5.3
			C63.4,21.5,63.6,21.3,63.6,21.1z M69.1,20.5c-0.8-0.7-1.7-1.2-2.2-1.9c-0.7-0.9-0.2-2.2,0.7-2.4c0.5-0.1,1,0,1.5,0.3
			c0.1,0.1,0.3,0.1,0.5,0.1c0.6,0,1-0.5,1-1c0-0.4-0.2-0.8-0.6-0.9l0,0c-1.4-0.6-3.1-0.8-4.4,0.6c-1.3,1.4-1.2,3.6,0.1,4.9
			c0.7,0.7,2.3,1.8,2.8,2.5c1.3,1.9-0.4,3.8-2.4,2.7h0c-0.2-0.1-0.3-0.2-0.5-0.2c-0.5,0-1,0.4-1,1c0,0.1,0,0.2,0,0.2
			c0,0.2,0.2,0.4,0.3,0.5c0,0,0.1,0.1,0.1,0.1c1.2,0.8,3,0.9,4.3-0.1C71.3,25.5,71.2,22.4,69.1,20.5z"/>
	</g>
	<g>
		<path fill-rule="evenodd" clip-rule="evenodd" fill="#FEAA26" d="M73.9,3.5c-1,0-1.7,0.4-2.2,1.2c-0.6,0.9-0.9,1.9-0.9,3
			c0,1.4,0.4,2.6,1.1,3.6c0.3,0.4,0.7,0.9,1,1.3c0.2,0.2,0.3,0.7,0.3,1c0,1.5-0.9,12.2-0.9,12.3c0,0.2,0,0.6,0,0.7
			c0.2,0.7,0.8,1.2,1.6,1.2v0c0.7,0,1.4-0.5,1.6-1.2c0.1-0.2,0.1-0.5,0-0.7c0,0-1-10.8-0.9-12.3c0-0.4,0.2-0.8,0.3-1
			c0.3-0.4,0.7-0.8,1-1.3c0.7-1,1.1-2.2,1.1-3.6c0-1.1-0.3-2.1-0.9-3C75.6,3.9,74.9,3.5,73.9,3.5L73.9,3.5z"/>
	</g>
	<g id="canada_13_">
		<path fill="#8E8E98" d="M42.9,5.3L42.9,5.3c0-1.1,0.8-2,2-2c0.6,0,1,0.2,1.3,0.4c0.1,0.1,0.1,0.1,0.1,0.3c0,0.2-0.1,0.3-0.3,0.3
			c-0.1,0-0.2,0-0.2-0.1c-0.3-0.2-0.5-0.3-0.9-0.3c-0.7,0-1.3,0.6-1.3,1.3v0c0,0.7,0.5,1.3,1.3,1.3c0.4,0,0.7-0.1,0.9-0.4
			c0,0,0.1-0.1,0.2-0.1c0.2,0,0.3,0.1,0.3,0.3c0,0.1,0,0.2-0.1,0.2c-0.4,0.3-0.8,0.5-1.4,0.5C43.7,7.2,42.9,6.4,42.9,5.3z"/>
		<path fill="#8E8E98" d="M46.9,6.8l1.4-3.1c0.1-0.2,0.2-0.3,0.4-0.3h0c0.2,0,0.3,0.1,0.4,0.3l1.4,3.1c0,0,0,0.1,0,0.1
			c0,0.2-0.1,0.3-0.3,0.3c-0.2,0-0.3-0.1-0.3-0.2l-0.3-0.7h-1.8L47.4,7c-0.1,0.1-0.2,0.2-0.3,0.2c-0.2,0-0.3-0.1-0.3-0.3
			C46.8,6.9,46.8,6.8,46.9,6.8z M49.3,5.7l-0.7-1.5L48,5.7H49.3z"/>
		<path fill="#8E8E98" d="M51.3,3.7c0-0.2,0.1-0.3,0.3-0.3h0.1c0.2,0,0.3,0.1,0.3,0.2L54,6V3.7c0-0.2,0.1-0.3,0.3-0.3
			c0.2,0,0.3,0.1,0.3,0.3v3.2c0,0.2-0.1,0.3-0.3,0.3h0c-0.2,0-0.3-0.1-0.3-0.2L52,4.5v2.4c0,0.2-0.1,0.3-0.3,0.3
			c-0.2,0-0.3-0.1-0.3-0.3V3.7z"/>
		<path fill="#8E8E98" d="M55.4,6.8l1.4-3.1c0.1-0.2,0.2-0.3,0.4-0.3h0c0.2,0,0.3,0.1,0.4,0.3l1.4,3.1c0,0,0,0.1,0,0.1
			c0,0.2-0.1,0.3-0.3,0.3c-0.2,0-0.3-0.1-0.3-0.2l-0.3-0.7h-1.8L56,7c-0.1,0.1-0.2,0.2-0.3,0.2c-0.2,0-0.3-0.1-0.3-0.3
			C55.4,6.9,55.4,6.8,55.4,6.8z M57.9,5.7l-0.7-1.5l-0.7,1.5H57.9z"/>
		<path fill="#8E8E98" d="M59.9,3.7c0-0.2,0.1-0.3,0.3-0.3h1.1c1.2,0,2,0.8,2,1.9v0c0,1.1-0.8,1.9-2,1.9h-1.1
			c-0.2,0-0.3-0.1-0.3-0.3V3.7z M61.3,6.6c0.8,0,1.3-0.5,1.3-1.3v0c0-0.7-0.5-1.3-1.3-1.3h-0.7v2.6H61.3z"/>
		<path fill="#8E8E98" d="M63.8,6.8l1.4-3.1c0.1-0.2,0.2-0.3,0.4-0.3h0c0.2,0,0.3,0.1,0.4,0.3l1.4,3.1c0,0,0,0.1,0,0.1
			c0,0.2-0.1,0.3-0.3,0.3c-0.2,0-0.3-0.1-0.3-0.2l-0.3-0.7h-1.8L64.3,7c-0.1,0.1-0.2,0.2-0.3,0.2c-0.2,0-0.3-0.1-0.3-0.3
			C63.7,6.9,63.7,6.8,63.8,6.8z M66.2,5.7l-0.7-1.5l-0.7,1.5H66.2z"/>
	</g>
</g>
</svg>
