<?xml version="1.0" encoding="utf-8"?>
<!-- Generator: Adobe Illustrator 16.0.4, SVG Export Plug-In . SVG Version: 6.00 Build 0)  -->
<!DOCTYPE svg PUBLIC "-//W3C//DTD SVG 1.1//EN" "http://www.w3.org/Graphics/SVG/1.1/DTD/svg11.dtd">
<svg version="1.1" id="Layer_1" xmlns="http://www.w3.org/2000/svg" xmlns:xlink="http://www.w3.org/1999/xlink" x="0px" y="0px"
	 width="23px" height="23.006px" viewBox="-1.503 -1.503 23 23.006" enable-background="new -1.503 -1.503 23 23.006"
	 xml:space="preserve">
<g>
	<path fill="#999999" d="M8.423,18.361c-2.651,0-5.151-1.032-7.024-2.908c-3.87-3.874-3.87-10.174,0-14.046
		c1.874-1.878,4.374-2.91,7.024-2.91c2.653,0,5.145,1.032,7.024,2.909c1.875,1.876,2.908,4.371,2.908,7.024
		c0,2.652-1.033,5.148-2.908,7.025C13.568,17.328,11.076,18.361,8.423,18.361z M8.423,1.786c-1.773,0-3.443,0.689-4.699,1.944
		c-2.588,2.59-2.588,6.805,0,9.395c1.255,1.256,2.925,1.948,4.699,1.948c1.777,0,3.443-0.692,4.694-1.948
		c1.258-1.254,1.95-2.922,1.95-4.695c0-1.775-0.693-3.443-1.945-4.699C11.866,2.476,10.2,1.786,8.423,1.786z"/>
	<path fill="#999999" d="M19.854,21.503c-0.423,0-0.845-0.163-1.166-0.484l-4.98-4.98c-0.645-0.645-0.645-1.684,0-2.327
		c0.642-0.642,1.683-0.642,2.326,0l4.981,4.983c0.644,0.646,0.644,1.684,0,2.324C20.691,21.342,20.271,21.503,19.854,21.503z"/>
</g>
</svg>
