<svg width="68" height="18" viewBox="0 0 68 18" xmlns="http://www.w3.org/2000/svg" xmlns:sketch="http://www.bohemiancoding.com/sketch/ns"><title>PayPal</title><g sketch:type="MSShapeGroup" fill="none"><path d="M61.224 5h.882v-3.168h1.074v-.744h-3.036v.744h1.08v3.168zm2.562 0h.816v-1.434c0-.384-.072-.954-.114-1.332h.024l.312.906.6 1.518h.354l.606-1.518.318-.906h.024c-.042.378-.114.948-.114 1.332v1.434h.828v-3.912h-.936l-.636 1.758-.234.684h-.024l-.234-.684-.654-1.758h-.936v3.912zm-8.638-3.717l-1.82 12.231c-.035.237.138.451.365.451h1.831c.303 0 .561-.233.608-.549l1.795-12.011c.035-.237-.138-.451-.365-.451h-2.048c-.182 0-.337.14-.365.33m-15.245 4.057c-.242 1.681-1.458 1.681-2.634 1.681h-.669l.469-3.139c.028-.19.183-.329.365-.329h.307c.8 0 1.556 0 1.946.482.233.288.304.715.216 1.306zm-.512-4.387h-4.435c-.303 0-.561.233-.608.549l-1.793 12.011c-.035.237.138.451.365.451h2.275c.212 0 .393-.163.426-.385l.509-3.405c.047-.316.305-.549.608-.549h1.403c2.921 0 4.607-1.493 5.047-4.453.198-1.294.008-2.311-.566-3.023-.631-.783-1.748-1.197-3.232-1.197zm10.295 8.699c-.205 1.282-1.168 2.142-2.397 2.142-.616 0-1.109-.209-1.426-.605-.314-.393-.432-.952-.333-1.576.191-1.27 1.17-2.158 2.38-2.158.603 0 1.093.211 1.416.611.325.403.453.966.36 1.586zm2.959-4.366h-2.123c-.182 0-.337.14-.365.33l-.093.627-.148-.227c-.46-.705-1.485-.941-2.508-.941-2.346 0-4.35 1.878-4.74 4.512-.203 1.314.085 2.569.79 3.446.648.805 1.573 1.14 2.674 1.14 1.891 0 2.94-1.283 2.94-1.283l-.095.623c-.036.237.138.452.365.452h1.912c.303 0 .561-.233.609-.549l1.148-7.678c.035-.237-.138-.451-.365-.451z" fill="#2790C3"/><path d="M32.326 5.286h-2.134c-.204 0-.395.107-.51.285l-2.944 4.58-1.248-4.401c-.078-.275-.318-.464-.59-.464h-2.098c-.253 0-.432.263-.35.516l2.35 7.287-2.21 3.295c-.174.259.002.616.302.616h2.132c.202 0 .391-.105.506-.28l7.098-10.821c.17-.259-.006-.613-.304-.613m-24.052.054c-.242 1.681-1.458 1.681-2.634 1.681h-.669l.469-3.139c.029-.19.183-.329.365-.329h.307c.8 0 1.557 0 1.946.482.233.288.304.715.216 1.306zm-.512-4.387h-4.435c-.303 0-.561.233-.608.549l-1.793 12.011c-.035.237.138.451.365.451h2.117c.303 0 .561-.233.609-.549l.484-3.24c.047-.316.305-.549.608-.549h1.403c2.921 0 4.607-1.493 5.047-4.453.198-1.294.008-2.311-.566-3.023-.631-.783-1.748-1.197-3.232-1.197zm10.295 8.699c-.205 1.282-1.168 2.142-2.397 2.142-.616 0-1.109-.209-1.426-.605-.314-.393-.432-.952-.333-1.576.191-1.27 1.17-2.158 2.38-2.158.603 0 1.093.211 1.416.611.325.403.453.966.36 1.586zm2.959-4.366h-2.123c-.182 0-.337.14-.365.33l-.093.627-.148-.227c-.46-.705-1.485-.941-2.508-.941-2.346 0-4.35 1.878-4.74 4.512-.203 1.314.085 2.569.79 3.446.648.805 1.573 1.14 2.674 1.14 1.891 0 2.94-1.283 2.94-1.283l-.095.623c-.035.237.138.452.365.452h1.912c.303 0 .561-.233.608-.549l1.148-7.678c.035-.237-.138-.451-.365-.451z" fill="#27346A"/></g></svg>