<?xml version="1.0" encoding="utf-8"?>
<!-- Generator: Adobe Illustrator 18.1.1, SVG Export Plug-In . SVG Version: 6.00 Build 0)  -->
<!DOCTYPE svg PUBLIC "-//W3C//DTD SVG 1.1//EN" "http://www.w3.org/Graphics/SVG/1.1/DTD/svg11.dtd">
<svg version="1.1" id="Laag_1" xmlns="http://www.w3.org/2000/svg" xmlns:xlink="http://www.w3.org/1999/xlink" x="0px" y="0px"
	 viewBox="464 264 32 32" enable-background="new 464 264 32 32" xml:space="preserve">
<g>
	<path fill="#007398" d="M471,275.9h4v12.9h-4V275.9L471,275.9z M473,269.5c1.3,0,2.3,1,2.3,2.3c0,1.3-1,2.3-2.3,2.3s-2.3-1-2.3-2.3
		C470.7,270.5,471.7,269.5,473,269.5"/>
	<path fill="#007398" d="M477.6,275.9h3.9v1.8h0.1c0.5-1,1.8-2.1,3.8-2.1c4.1,0,4.8,2.7,4.8,6.2v7.1h-4v-6.3c0-1.5,0-3.4-2.1-3.4
		c-2.1,0-2.4,1.6-2.4,3.3v6.4h-4L477.6,275.9L477.6,275.9z"/>
</g>
</svg>
