<?xml version="1.0" encoding="iso-8859-1"?>
<!-- Generator: Adobe Illustrator 18.0.0, SVG Export Plug-In . SVG Version: 6.00 Build 0)  -->
<!DOCTYPE svg PUBLIC "-//W3C//DTD SVG 1.1//EN" "http://www.w3.org/Graphics/SVG/1.1/DTD/svg11.dtd">
<svg version="1.1" xmlns="http://www.w3.org/2000/svg" xmlns:xlink="http://www.w3.org/1999/xlink" x="0px" y="0px"
	 viewBox="0 0 23.99 23.99" style="enable-background:new 0 0 23.99 23.99;" xml:space="preserve">
<g id="Linkedin">
	<g>
		<defs>
			<rect id="SVGID_1_" y="0" width="23.99" height="23.99"/>
		</defs>
		<clipPath id="SVGID_2_">
			<use xlink:href="#SVGID_1_"  style="overflow:visible;"/>
		</clipPath>
		<path style="clip-path:url(#SVGID_2_);fill:#FFFFFF;" d="M11.995,21.385c5.186,0,9.389-4.204,9.389-9.389
			c0-5.186-4.203-9.39-9.389-9.39c-5.185,0-9.389,4.204-9.389,9.39C2.606,17.181,6.81,21.385,11.995,21.385"/>
		<path style="clip-path:url(#SVGID_2_);fill:#067CB6;" d="M19.486,17.804h-2.993v-6.486c0-0.761-0.219-1.295-1.148-1.295
			c-1.554,0-1.854,1.295-1.854,1.295v6.486h-2.993V7.305h2.993V8.31c0.433-0.323,1.501-0.997,3.002-0.997
			c0.973,0,2.993,0.579,2.993,4.093V17.804z M7.592,6.67c-0.776,0-1.406-0.63-1.406-1.413c0-0.776,0.63-1.406,1.406-1.406
			c0.775,0.008,1.405,0.637,1.405,1.406C8.997,6.04,8.367,6.67,7.592,6.67 M8.997,17.804H5.995V7.305h3.002V17.804z M11.99,0
			C5.373,0,0,5.373,0,11.99c0,6.627,5.373,12,11.99,12c6.627,0,12-5.373,12-12C23.99,5.365,18.617,0,11.99,0"/>
	</g>
</g>
<g id="Layer_1">
</g>
</svg>
