<?xml version="1.0" encoding="iso-8859-1"?>
<!-- Generator: Adobe Illustrator 18.0.0, SVG Export Plug-In . SVG Version: 6.00 Build 0)  -->
<!DOCTYPE svg PUBLIC "-//W3C//DTD SVG 1.1//EN" "http://www.w3.org/Graphics/SVG/1.1/DTD/svg11.dtd">
<svg version="1.1" xmlns="http://www.w3.org/2000/svg" xmlns:xlink="http://www.w3.org/1999/xlink" x="0px" y="0px"
	 viewBox="0 0 74 17.928" style="enable-background:new 0 0 74 17.928;" xml:space="preserve">
<g id="Paypal">
	<g>
		<defs>
			<rect id="SVGID_1_" y="0.001" width="74" height="17.928"/>
		</defs>
		<clipPath id="SVGID_2_">
			<use xlink:href="#SVGID_1_"  style="overflow:visible;"/>
		</clipPath>
		<path style="clip-path:url(#SVGID_2_);fill:#00AEEF;" d="M6.457,4.219h5.057c2.715,0,3.737,1.374,3.58,3.397
			c-0.261,3.334-2.277,5.178-4.95,5.178h-1.35c-0.367,0-0.613,0.242-0.713,0.9l-0.579,3.822c-0.038,0.249-0.168,0.394-0.364,0.412
			H3.967c-0.299,0-0.405-0.228-0.327-0.723L5.577,4.944C5.654,4.453,5.923,4.219,6.457,4.219"/>
		<path style="clip-path:url(#SVGID_2_);fill:#03428E;" d="M43.614,7.761h-1.69c-0.35,0-0.493,0.256-0.381,0.582l2.106,6.17
			l-2.076,2.934c-0.173,0.245-0.039,0.469,0.205,0.469h1.908c0.284,0,0.423-0.073,0.566-0.278l6.479-9.295
			c0.2-0.286,0.106-0.585-0.221-0.586l-1.804-0.002c-0.309,0-0.433,0.123-0.611,0.38l-2.703,3.921L44.19,8.128
			C44.116,7.886,43.939,7.761,43.614,7.761 M35.195,13.506c-1.111,0-1.885-0.886-1.724-1.972c0.162-1.086,1.2-1.972,2.311-1.972
			s1.885,0.886,1.723,1.972C37.344,12.62,36.306,13.506,35.195,13.506 M36.595,14.501c0.172-0.156,0.348-0.238,0.322-0.045
			l-0.061,0.462c-0.032,0.241,0.064,0.37,0.289,0.37h1.673c0.282,0,0.419-0.114,0.489-0.55l1.031-6.472
			c0.051-0.325-0.027-0.484-0.274-0.484h-1.84c-0.166,0-0.246,0.093-0.29,0.346l-0.068,0.399c-0.035,0.208-0.131,0.244-0.219,0.034
			c-0.312-0.739-1.108-1.07-2.225-1.047c-2.581,0.053-4.321,2.012-4.507,4.524c-0.144,1.942,1.248,3.468,3.083,3.468
			C35.329,15.506,35.925,15.109,36.595,14.501 M25.342,9.334h1.534c0.959-0.036,1.597-0.7,1.661-1.898
			c0.04-0.741-0.46-1.27-1.256-1.267l-1.444,0.007L25.342,9.334z M28.41,3.993c1.707,0,3.281,0.925,3.065,3.232
			c-0.255,2.735-1.729,4.259-4.048,4.265h-2.022c-0.292,0-0.432,0.237-0.508,0.725l-0.391,2.489
			c-0.059,0.376-0.251,0.562-0.537,0.562h-1.883c-0.301,0-0.405-0.192-0.338-0.622l1.557-9.978c0.076-0.49,0.264-0.673,0.597-0.673
			H28.41z"/>
		<path style="clip-path:url(#SVGID_2_);fill:#00AEEF;" d="M71.977,15.3h-1.931c-0.154,0-0.26-0.121-0.237-0.267l1.698-10.75
			c0.023-0.147,0.168-0.267,0.321-0.267h1.932c0.153,0,0.26,0.12,0.236,0.267l-1.698,10.75C72.275,15.179,72.13,15.3,71.977,15.3
			 M64.259,13.506c-1.111,0-1.885-0.886-1.724-1.972c0.162-1.086,1.2-1.972,2.311-1.972s1.885,0.886,1.723,1.972
			C66.408,12.62,65.37,13.506,64.259,13.506 M65.659,14.501c0.172-0.156,0.348-0.238,0.322-0.045l-0.061,0.462
			c-0.032,0.241,0.064,0.37,0.289,0.37h1.673c0.282,0,0.419-0.114,0.489-0.55l1.031-6.472c0.051-0.325-0.027-0.484-0.274-0.484
			h-1.84c-0.166,0-0.246,0.093-0.29,0.346L66.93,8.527c-0.035,0.208-0.131,0.244-0.219,0.034c-0.312-0.739-1.108-1.07-2.225-1.047
			c-2.581,0.053-4.321,2.012-4.507,4.524c-0.144,1.942,1.248,3.468,3.083,3.468C64.393,15.506,64.989,15.109,65.659,14.501
			 M54.406,9.334h1.534c0.959-0.036,1.597-0.7,1.661-1.898c0.04-0.741-0.46-1.27-1.256-1.267l-1.444,0.007L54.406,9.334z
			 M57.474,3.993c1.707,0,3.281,0.925,3.065,3.232c-0.255,2.735-1.729,4.259-4.048,4.265h-2.022c-0.292,0-0.432,0.237-0.508,0.725
			l-0.391,2.489c-0.059,0.376-0.251,0.562-0.537,0.562H51.15c-0.301,0-0.405-0.192-0.338-0.622l1.557-9.978
			c0.076-0.49,0.264-0.673,0.597-0.673H57.474z"/>
		<path style="clip-path:url(#SVGID_2_);fill:#03428E;" d="M3.295,0h5.062c1.426,0,3.117,0.046,4.248,1.044
			c0.756,0.666,1.152,1.728,1.061,2.868c-0.311,3.866-2.623,6.031-5.723,6.031H5.446c-0.425,0-0.707,0.281-0.826,1.044l-0.697,4.432
			c-0.045,0.287-0.17,0.457-0.398,0.477H0.407c-0.346,0-0.469-0.264-0.378-0.838L2.274,0.841C2.364,0.271,2.676,0,3.295,0"/>
	</g>
</g>
<g id="Layer_1">
</g>
</svg>
