<svg xmlns="http://www.w3.org/2000/svg" width="114" height="14" viewBox="0 0 114 14"><g fill="#fff"><path d="M11.5 3.5c.4.6.5 1.9.5 2.7v3.6c0 3.1 0 3 1.1 3.3.3.1.6.1.6.3 0 .2-.2.2-.5.2s-1.7-.1-2.4-.1-2.2.1-2.6.1c-.4 0-.6 0-.6-.1 0-.2.5-.2.9-.3.5-.2.8-.3.9-1s.1-1.6.1-3.5c0-2.4 0-3.7-.5-4.3-.6-.7-1.1-.9-2.1-.9s-1.8.7-2.1 1.1c-.5.8-.5 2.4-.5 4 0 2.1 0 3 .1 3.7.1.3.3.6.8.8.3.1.8.1.8.3 0 .2-.3.2-.6.2s-2.1-.1-2.5-.1-2.3.1-2.6.1c-.3 0-.4 0-.4-.2s.3-.3.8-.3c.6-.1.8-.2.9-.8.1-.8.1-2.4.1-4.6 0-1.5 0-2.6-.2-2.8 0-.1-.2-.3-.5-.3-.2-.2-.4-.2-.4-.4s0-.2.2-.2c1.1-.3 2.1-1 3.1-1.9 0-.1.2-.2.3-.2.2 0 .3.3.3.6v1.2s.1.3.2.3c.4 0 1.4-2 3.9-2 1.4 0 2.2.6 2.9 1.5M19.3 7.9c-.3 0-3.1 1.3-3.1 3.2 0 1 .8 1.5 1.4 1.5s1.1-.3 1.5-1c.5-.7.6-1.9.6-3.2 0-.4-.1-.5-.4-.5m.2 4.1c-.6.8-1.7 1.9-3.2 1.9s-2.2-1.2-2.2-2.1c0-1.9 1.9-2.8 3.4-3.5 2.3-1.2 2.4-.8 2.4-3.4 0-.7.1-1.2-.1-1.6-.3-.6-.8-.8-1.4-.8-1.7 0-2.2 1.5-2.6 2.8-.2.4-.9.7-1.3.7-.3 0-.6-.2-.6-.6 0-1.1 1.9-3.5 5-3.5 1.4 0 3.2.3 3.2 2.3 0 1.5-.2 5.8-.2 6.7 0 .8.1 1.5.9 1.5s1.2-.7 1.4-.7c.1 0 .1.1.1.2 0 .4-1 1.9-2.6 1.9-1 0-1.8-.7-2.1-1.5.1-.3 0-.4-.1-.3M28 .3c0 .5-.1 1.2-.1 1.8 0 .3.1.3.3.3l5.6-.2c.5 0 .6.1.6.6 0 1-.1 2.1-.1 7.1 0 1.2.6 2.1 2.3 2.1 1 0 2-.4 2.3-1.2.3-.5.3-2.1.3-3.4 0-2.8 0-4-.3-4.3-.3 0-.6-.1-1.1-.1-.5-.1-.7-.1-.7-.3 0-.1.1-.2.4-.3l3.7-.1c.3-.1.4.1.4.4 0 .9-.2 4-.2 6.4 0 1.5 0 2.6.2 2.8.1.2.3.3.9.3.2 0 .6-.1.7-.1s.2.1.2.2-.1.2-.4.3c-.5.1-2.5.6-3.3.9-.1.1-.3.1-.4.1-.2 0-.2-.1-.2-.4 0-.3.1-.7.1-1.2 0-.2-.1-.4-.2-.4-.3 0-1.7 1.9-3.9 1.9-1.3 0-3.2-.8-3.2-3.3 0-1.2.1-5.5.1-6 0-1-.1-1-2.1-1-.7 0-1.2 0-1.7.1-.3 0-.4.1-.4.6-.1 1-.1 2.4-.1 5.4 0 1.2 0 2.1.3 2.6.3.4.6.6 1.2.6.8 0 1.8-.4 1.9-.4.1 0 .1.1.1.1 0 .2-1.7 1.8-3.5 1.8-2 0-2.4-1.5-2.4-3.5 0-1 .1-5.7.1-6 0-.3 0-.7-.6-.7h-.8c-.1 0-.2-.1-.2-.1 0-.2.2-.3.6-.5.8-.6 2.2-1.6 2.8-2.6.2-.4.3-.6.5-.6s.3.1.3.3M44 4.4c-.1 0-.3-.1-.3-.1 0-.1.1-.2.5-.3.3-.1 1.9-1 2.6-1.7.3-.3.5-.3.6-.3.1 0 .3.1.3.4v1.3c0 .2.1.3.1.3.3 0 1.2-2 3-2 1 0 1.7.7 1.7 1.5s-.6 1.4-1.4 1.4c-1 0-1.2-1-2.1-1-.4 0-.6.3-.8.5-.5.5-.5 1.9-.5 4 0 2-.1 3.5.2 3.9.3.4 1.4.6 1.8.7.3.1.5.1.5.3s-.3.2-.6.2c-.2 0-2.1-.1-3-.1-.8 0-2.6.1-2.8.1-.2 0-.5 0-.5-.2s.4-.3.7-.3c.2-.1 1-.2 1.2-.7.1-.4.2-1.4.2-4.5-.1-3-.1-3.3-1.4-3.4M57.6 2.4c-2.1 0-3 1.8-3 2.6 0 .3.3.4 1.7.4s3.5-.1 3.5-1.4c-.2-.5-.8-1.6-2.2-1.6m3.3 3.8c-1.5 0-3.5-.1-5.8-.1-.6 0-.8 0-.8 1.1 0 2.7 1.1 4.9 4.1 4.9 2.3 0 3.2-1.5 3.4-1.5l.2.1c0 .4-2.1 3-5 3-3 0-5.4-2.2-5.4-5.8 0-3.7 2.8-6.2 6.1-6.2 2.4 0 4.3 1.9 4.3 3.7-.1.8-.4.8-1.1.8"/></g><path fill="#fff" d="M64.8 12.2c0-1 .7-1.7 1.7-1.7s1.7.8 1.7 1.7-.6 1.5-1.7 1.5c-.9 0-1.7-.6-1.7-1.5zM80.4 2.2c.2.2.4.6.4 1.1s-.3 1-.6 1c-.1 0-.3-.1-.4-.2-.6-.8-1.7-1.5-2.8-1.5-2 0-3.9 1.5-3.9 4.6 0 2.2 1.5 4.9 4.6 4.9 1.7 0 2.5-.7 3.2-1.7.2-.1.5.1.5.4-1 2.1-3.1 2.9-4.7 2.9-1.4 0-2.9-.5-3.9-1.5s-1.7-2.4-1.7-4.2c0-3.1 2.2-6.4 6.9-6.4.5.1 1.6.3 2.4.6zM93.6 7.6c0 3.5-2.5 6.2-6 6.2-3.2 0-5.9-2.4-5.9-5.9 0-3.6 2.7-6.2 6.1-6.2 3.2 0 5.8 2.4 5.8 5.9zm-6.1-5c-1.9 0-3.2 1.8-3.2 4.9 0 2.6 1.2 5.4 3.7 5.4s3.2-2.6 3.2-4.8c0-2.5-1-5.5-3.7-5.5zM110 6c0-1.9-.4-3-2.3-3-1 0-2 .5-2.3 1-.4.4-.4.7-.4 1.7v4.3c0 2.1.1 2.4 1 2.5l.6.1c.2.1.1.6-.1.7-.8-.1-1.7-.1-2.7-.1-1 0-1.8 0-2.6.1-.2-.1-.3-.6-.1-.7l.5-.1c1-.1 1-.4 1-2.5v-4c0-1.9-.8-3-2.6-3-1.2 0-2 .5-2.4 1-.3.3-.4.7-.4 1.6v4.4c0 2.1.1 2.4 1 2.5l.5.1c.2.1.1.6-.1.7-.8-.1-1.7-.1-2.6-.1-1 0-1.9 0-2.8.1-.2-.1-.3-.6-.1-.7l.7-.1c1-.1 1-.4 1-2.5v-4.9c0-1.1 0-1.2-.8-1.8l-.1-.1c-.1-.1-.1-.4 0-.5.6-.2 2.3-1 2.8-1.4.1 0 .3.1.3.2-.1.6-.1 1-.1 1.3 0 .1.1.3.3.3 1-.8 2.4-1.5 3.8-1.5s2.2.5 3 1.7c.3.1.4-.1.7-.2 1.1-.8 2.6-1.5 3.9-1.5 2.3 0 3.4 1.5 3.4 3.5v4.9c0 2.1.1 2.4 1 2.5l.7.1c.2.1.1.6-.1.7-.9-.1-1.8-.1-2.8-.1-1 0-1.8 0-2.6.1-.2-.1-.3-.6-.1-.7l.5-.1c1-.1 1-.4 1-2.5l.4-4z"/></svg>