<?xml version="1.0" encoding="UTF-8" standalone="no"?>
<svg width="720px" height="670px" viewBox="0 0 720 670" version="1.1" xmlns="http://www.w3.org/2000/svg" xmlns:xlink="http://www.w3.org/1999/xlink">
    <!-- Generator: Sketch 40.1 (33804) - http://www.bohemiancoding.com/sketch -->
    <title>zomato_header_logo</title>
    <desc>Created with Sketch.</desc>
    <defs></defs>
    <g id="Page-1" stroke="none" stroke-width="1" fill="none" fill-rule="evenodd">
        <g id="zomato_header_logo">
            <g id="Group">
                <rect id="Rectangle-2" fill="#CB202D" x="0" y="0" width="720" height="670" rx="28.7999992"></rect>
                <path d="M143.616338,376.152046 L143.616338,360.326874 L91.8392979,360.326874 L143.616338,301.811455 L143.616338,288.541411 L68.7738855,288.541411 L68.7740986,304.36978 L118.77704,304.36978 L67,362.885198 L67,376.152046 L143.616338,376.152046 Z M200.456751,378.06999 C227.563699,378.06999 247.563597,357.448891 247.563597,332.508156 L247.563597,332.188498 C247.563597,307.086868 227.723527,286.783296 200.787064,286.783296 C173.690772,286.783296 153.684481,307.56742 153.684481,332.508156 L153.684481,332.827813 C153.684481,357.768549 173.520288,378.06999 200.456751,378.06999 L200.456751,378.06999 Z M200.787064,361.285846 C184.65502,361.285846 173.040802,348.17563 173.040802,332.508156 L173.040802,332.188498 C173.040802,316.679787 183.845222,303.569571 200.456751,303.569571 C216.588795,303.569571 228.203014,316.839615 228.203014,332.508156 L228.203014,332.827813 C228.203014,348.335459 217.398593,361.285846 200.787064,361.285846 L200.787064,361.285846 Z M264.729199,376.152046 L284.079127,376.152046 L284.079127,326.752191 C284.079127,313.002661 292.145149,304.36978 303.759368,304.36978 C315.373586,304.36978 322.150323,312.043689 322.150323,325.953048 L322.150323,376.152046 L341.66008,376.152046 L341.66008,326.592363 C341.66008,312.203518 349.88593,304.36978 361.180492,304.36978 C372.794711,304.36978 379.731276,312.043689 379.731276,326.272705 L379.731276,376.152046 L399.091859,376.152046 L399.091859,320.516741 C399.091859,299.093302 387.307157,286.783296 367.957229,286.783296 C354.243926,286.783296 345.048448,293.01768 337.952054,302.290942 C333.274401,293.01768 324.249407,286.783296 311.345903,286.783296 C297.632601,286.783296 289.886236,294.137547 284.079127,302.131113 L284.079127,288.541411 L264.729199,288.541411 L264.729199,376.152046 L264.729199,376.152046 Z M451.089463,363.84417 C441.25467,363.84417 433.348477,358.88735 433.348477,350.09464 L433.348477,349.774983 C433.348477,340.501722 441.25467,334.745757 454.63766,334.745757 C463.023339,334.745757 470.130389,336.34511 475.447357,338.26412 L475.447357,344.658333 C475.447357,356.010433 464.962594,363.84417 451.089463,363.84417 L451.089463,363.84417 Z M445.932324,377.910162 C459.645626,377.910162 469.000933,372.156328 474.967871,364.962971 L474.967871,376.152046 L493.838313,376.152046 L493.838313,324.034038 C493.838313,312.523175 490.92943,303.409742 484.483006,297.175358 C478.185755,290.939907 468.350963,287.42261 455.28763,287.42261 C441.25467,287.42261 431.739535,290.300592 422.053916,294.617033 L427.221711,309.645193 C435.287732,306.287725 442.703784,304.209951 452.709061,304.209951 C467.221506,304.209951 475.127699,311.084717 475.127699,323.874209 L475.127699,326.112877 C468.191134,323.874209 460.934911,322.435751 450.929634,322.435751 C429.320794,322.435751 414.318207,331.709012 414.318207,350.574126 L414.318207,350.893784 C414.318207,368.480268 429.320794,377.910162 445.932324,377.910162 L445.932324,377.910162 Z M543.587659,377.590504 C551.003711,377.590504 556.491163,375.992217 561.488474,373.275129 L561.488474,357.448891 C557.46079,359.367901 553.422452,360.486702 548.904627,360.486702 C541.808233,360.486702 537.620721,357.129234 537.620721,349.135668 L537.620721,305.168924 L561.808131,305.168924 L561.808131,288.541411 L537.620721,288.541411 L537.620721,264.23999 L518.260138,264.23999 L518.260138,288.541411 L506.805748,288.541411 L506.805748,305.168924 L518.260138,305.168924 L518.260138,352.173479 C518.260138,371.197356 528.744901,377.590504 543.587659,377.590504 L543.587659,377.590504 Z M663.270576,332.508156 L663.270576,332.188498 C663.270576,307.086868 643.430507,286.783296 616.494043,286.783296 C589.397751,286.783296 569.397853,307.56742 569.397853,332.508156 L569.397853,332.827813 C569.397853,357.768549 589.237922,378.06999 616.174386,378.06999 C643.270678,378.06999 663.270576,357.448891 663.270576,332.508156 Z M616.494043,361.285846 C600.362,361.285846 588.747781,348.17563 588.747781,332.508156 L588.747781,332.188498 C588.747781,316.679787 599.562856,303.569571 616.174386,303.569571 C632.306429,303.569571 643.909993,316.839615 643.909993,332.508156 L643.909993,332.827813 C643.909993,348.335459 633.105573,361.285846 616.494043,361.285846 L616.494043,361.285846 Z" id="Shape" fill="#FFFFFF"></path>
            </g>
        </g>
    </g>
</svg>