<svg id="Layer_1" data-name="Layer 1" xmlns="http://www.w3.org/2000/svg" viewBox="0 0 110 25.53"><defs><style>.cls-1{fill:#231f20;}.cls-2{fill:#0080c5;}</style></defs><title>webmd_110x26</title><path class="cls-1" d="M105.57,2.66c-3.18-2.51-9.21-2.38-9.21-2.38H86c-1.21,0-1.63.08-1.55,0.6a0.79,0.79,0,0,0,.65.41,1.52,1.52,0,0,1,1.33,1.36c0,0.86.13,3.56,0.13,4.5v7.68c0,1,0,2.74,0,3.77l0,4.77a1.89,1.89,0,0,0,1.88,1.89h6.18a21.53,21.53,0,0,0,7.68-1.49,12.37,12.37,0,0,0,7.61-11.61A12,12,0,0,0,105.57,2.66ZM95.11,23.07H94.87c-1.44,0-2.93,0-3.71-.77a2.44,2.44,0,0,1-.59-1.81V9c0-2.37-.06-3.48,0-6.14a29.88,29.88,0,0,1,4.3-.29c2.73,0,5.58.37,8,3a10.09,10.09,0,0,1,2.42,7C105.28,19,101.29,23.07,95.11,23.07Zm-10.7,1.25a2.21,2.21,0,0,1-1.33-1.59c0-.45-0.47-20.49-0.47-20.49,0-1,0-1.79-.25-1.89a11.8,11.8,0,0,0-2.13-.1,3.58,3.58,0,0,0-1.74.17,9.27,9.27,0,0,0-.87,1.89L75.79,6.38,74,9.8l-2.78,5.39a0.91,0.91,0,0,1-1.77,0L66.57,9.88,64.77,6.57l-2-4.3A10.93,10.93,0,0,0,61.92.39,5,5,0,0,0,60,.24H57.54c-1.21,0-1.76,0-1.68.52a0.78,0.78,0,0,0,.65.41,1.69,1.69,0,0,1,1,1.58c0,0.45,0,18.71-.1,19.51,0,0.13,0,.27-0.07.41a0.06,0.06,0,0,0,0,0A1.88,1.88,0,0,1,56,24.32a0.78,0.78,0,0,0-.65.41c-0.08.51,0.48,0.53,1.69,0.53h4c1.21,0,1.77,0,1.7-.53a0.78,0.78,0,0,0-.65-0.41,1.91,1.91,0,0,1-1.33-1.59h0a11.79,11.79,0,0,1-.19-1.38c0-1-.06-2.74-0.05-3.77V17.23c0-1,0-2.74.06-3.77l0.1-4.09c0-1,.45-1.14.94-0.23l2.7,5c0.49,0.91,3.08,5.81,3.54,6.73A1.43,1.43,0,0,0,69.56,22c1.36,0,1.36-.36,1.92-1.56,0.41-.88,6.2-12.27,6.2-12.27,0.47-.92.88-0.83,0.91,0.2,0,0,.07,13.88,0,14.51l0,0.21a1.79,1.79,0,0,1-1.23,1.23,0.79,0.79,0,0,0-.65.41c-0.08.51,0.48,0.53,1.69,0.53h5c1.22,0,1.77,0,1.7-.53A0.82,0.82,0,0,0,84.41,24.32Z" transform="translate(0 -0.24)"/><path class="cls-2" d="M30,2.79a3.13,3.13,0,0,1,1.08-1.57A1.27,1.27,0,0,0,32,.71c0.09-.37-0.24-0.47-1.56-0.47h-4c-1.21,0-1.77,0-1.69.53a0.79,0.79,0,0,0,.65.41c1.15,0.32,1.92.91,1.56,2.11s-5.36,15.91-5.36,15.91c-0.19.53-.68,0.68-0.83-0.11L18.18,6.71c-0.22-1-.46-2.32-0.55-2.89A1.1,1.1,0,0,0,16.52,3a1.17,1.17,0,0,0-1.09.67c-0.33.69-1,2-1.46,2.95L7.38,19.28c-0.27.47-.61,0.33-0.66-0.23L5.9,6.22c0-1-.1-3-0.09-3.32A1.77,1.77,0,0,1,7.16,1.19,0.85,0.85,0,0,0,7.84.75c0.08-.51-0.51-0.5-1.72-0.5h-5C0.32,0.27-.06.36,0,0.78a0.79,0.79,0,0,0,.65.41,1.75,1.75,0,0,1,1.15,1A5.53,5.53,0,0,1,2,2.73l0,0.1L2,2.9A0.87,0.87,0,0,0,2,3a28.72,28.72,0,0,1,.49,3.45L3.58,22.13a12.1,12.1,0,0,0,.35,3.19c0.31,0.65,1.77.61,2.35-.26,0.16-.25,8.39-15.7,8.39-15.7,0.48-.92,1-0.84,1.25.18L18.5,22.27a20.92,20.92,0,0,0,.67,2.8c0.35,0.92,2.11.76,2.58-.14A24.49,24.49,0,0,0,23,22.1S29.72,3.6,30,2.79Zm21.69,6c-3.21,0-6.14,2.93-8.07,5.15a11.32,11.32,0,0,1,.47-1.88l3-10A1.33,1.33,0,0,0,45.76.25H43.23c-1.21,0-1.77,0-1.7.53a0.79,0.79,0,0,0,.65.41c1.2,0.34,1.6,1.68,1.28,3.14,0-.12-3,11.88-3,11.88a7.92,7.92,0,0,1-1.89,3.15s-3.63,4.43-7.29,4.43A2.66,2.66,0,0,1,28.36,21a11.33,11.33,0,0,1,.28-2.67c3.82-.36,10.66-2.12,10.66-7,0-2-1.89-2.54-3.5-2.54-5.18,0-10.29,6.32-10.29,12,0,2.39,1.11,4.82,4.4,4.82,6.18,0,9.54-6,9.73-6.23a16.58,16.58,0,0,0-.3,2.41c0,2.61,1.9,3.82,4.25,3.82a10.4,10.4,0,0,0,5.23-1.64,15.38,15.38,0,0,0,3.6-3,12.15,12.15,0,0,0,3.35-7.65C55.76,10.66,54.58,8.83,51.72,8.83ZM35,10a1.39,1.39,0,0,1,1.47,1.54c0,3.9-4.32,5.61-7.61,5.83C29.39,15,32.22,10,35,10Zm16.28,8.48a16.94,16.94,0,0,1-3,4.28,6.09,6.09,0,0,1-4.06,2c-1.64,0-2.18-1.57-2.18-3,0-4,4.36-11.44,8.79-11.44,1.64,0,2.14,1.14,2.14,2.5A13.69,13.69,0,0,1,51.25,18.46Z" transform="translate(0 -0.24)"/><path class="cls-1" d="M107.24,1.78a1.23,1.23,0,1,1,2.46,0A1.23,1.23,0,1,1,107.24,1.78Zm1.23,1.52a1.51,1.51,0,1,0-1.54-1.52A1.51,1.51,0,0,0,108.47,3.29Zm-0.32-1.4h0.3l0.46,0.76h0.3l-0.5-.77a0.45,0.45,0,0,0,.45-0.48,0.49,0.49,0,0,0-.62-0.5h-0.66V2.65h0.27V1.9Zm0-.22V1.13h0.36c0.19,0,.38,0,0.38.26s-0.2.28-.43,0.28h-0.31Z" transform="translate(0 -0.24)"/></svg>