<?xml version="1.0" encoding="utf-8"?>
<!-- Generator: Adobe Illustrator 18.1.1, SVG Export Plug-In . SVG Version: 6.00 Build 0)  -->
<!DOCTYPE svg PUBLIC "-//W3C//DTD SVG 1.1//EN" "http://www.w3.org/Graphics/SVG/1.1/DTD/svg11.dtd">
<svg version="1.1" id="Laag_1" xmlns="http://www.w3.org/2000/svg" xmlns:xlink="http://www.w3.org/1999/xlink" x="0px" y="0px"
	 viewBox="464 264 32 32" enable-background="new 464 264 32 32" xml:space="preserve">
<path fill="#007398" d="M489.4,274.2c-0.7,0.3-1.4,0.5-2.2,0.6c0.8-0.5,1.4-1.2,1.7-2.1c-0.7,0.4-1.6,0.8-2.4,0.9
	c-0.7-0.7-1.7-1.2-2.8-1.2c-2.1,0-3.8,1.7-3.8,3.8c0,0.3,0.1,0.6,0.1,0.9c-3.2-0.2-6-1.7-7.9-4c-0.3,0.6-0.5,1.2-0.5,1.9
	c0,1.4,0.7,2.5,1.7,3.2c-0.6,0-1.2-0.2-1.7-0.5c0,0,0,0,0,0c0,1.8,1.3,3.4,3.1,3.8c-0.3,0.1-0.7,0.1-1,0.1c-0.2,0-0.5,0-0.7-0.1
	c0.5,1.5,1.9,2.7,3.6,2.7c-1.3,1-3,1.7-4.8,1.7c-0.3,0-0.6,0-0.9-0.1c1.7,1.1,3.8,1.7,5.9,1.7c7.1,0,11-5.9,11-10.9
	c0-0.2,0-0.3,0-0.5C488.2,275.7,488.9,275,489.4,274.2L489.4,274.2z"/>
</svg>
