<?xml version="1.0" encoding="utf-8"?>
<!-- Generator: Adobe Illustrator 18.1.1, SVG Export Plug-In . SVG Version: 6.00 Build 0)  -->
<!DOCTYPE svg PUBLIC "-//W3C//DTD SVG 1.1//EN" "http://www.w3.org/Graphics/SVG/1.1/DTD/svg11.dtd">
<svg version="1.1" id="Laag_1" xmlns="http://www.w3.org/2000/svg" xmlns:xlink="http://www.w3.org/1999/xlink" x="0px" y="0px"
	 viewBox="0 0 162 35" enable-background="new 0 0 162 35" xml:space="preserve">
<g>
	<path fill="#FF8300" d="M15.8,17.5c4.9,0,10.9-1.2,10.9-5.9c0-3.4-3.4-4.6-6.6-4.6C15.3,7,6.5,9.6,6.5,19.1c0,4.8,3.6,7.5,9.4,7.5
		c6.1,0,10.5-3.9,11.8-9.3c-3.6,6.1-8.1,8.1-11.8,8.1c-4.6,0-6.3-3.4-6.3-6.3c0-8.4,6.5-11.2,10.6-11.2c2.8,0,4.4,1.8,4.4,3.7
		c0,5.4-7.7,5.2-11.3,5.2c-0.4,0-1.5,0-1.7,0l-0.7,0.8c1.6,0.2,3.9,0.7,6.3,1.9c5,2.5,9.8,9.3,16.1,9.3c2.3,0,2.9-0.7,3.3-1.3
		c-3.1,2-8.2-1.4-11-4.1C23.1,21.3,21.1,18.8,15.8,17.5"/>
	<path fill="#646569" d="M46.7,26.6c-0.2,0-0.3-0.1-0.4-0.2l-3.1-6.5h-2.8c-0.1,0-0.1,0-0.1,0.1v6.4c0,0.1-0.1,0.2-0.2,0.2h-2.3
		c-0.1,0-0.2-0.1-0.2-0.2V10.1c0-0.1,0.1-0.2,0.2-0.2H44c3,0,5.2,2,5.2,5c0,2.2-1.2,3.9-3.1,4.6l3.4,6.8c0.1,0.2,0,0.3-0.2,0.3H46.7
		z M46.4,14.8c0-1.5-1-2.4-2.5-2.4h-3.5c-0.1,0-0.1,0-0.1,0.1V17c0,0.1,0,0.1,0.1,0.1h3.5C45.4,17.2,46.4,16.3,46.4,14.8"/>
	<path fill="#646569" d="M52,10.1c0-0.1,0.1-0.2,0.2-0.2h9.8c0.1,0,0.2,0.1,0.2,0.2v2.1c0,0.1-0.1,0.2-0.2,0.2h-7.1
		c-0.1,0-0.1,0-0.1,0.1v4.1c0,0.1,0,0.1,0.1,0.1h5.7c0.1,0,0.2,0.1,0.2,0.2v2.1c0,0.1-0.1,0.2-0.2,0.2h-5.7c-0.1,0-0.1,0-0.1,0.1
		v4.2c0,0.1,0,0.1,0.1,0.1h7.1c0.1,0,0.2,0.1,0.2,0.2v2.1c0,0.1-0.1,0.2-0.2,0.2h-9.8c-0.1,0-0.2-0.1-0.2-0.2V10.1z"/>
	<path fill="#646569" d="M64.9,10.1c0-0.1,0.1-0.2,0.2-0.2h2.3c0.1,0,0.2,0.1,0.2,0.2v13.8c0,0.1,0,0.1,0.1,0.1h6.6
		c0.1,0,0.2,0.1,0.2,0.2v2.1c0,0.1-0.1,0.2-0.2,0.2h-9.4c-0.1,0-0.2-0.1-0.2-0.2V10.1z"/>
	<path fill="#646569" d="M94.5,18.2c0-2.9,0.2-4,0.5-4.9c0.8-2.5,2.6-3.8,5.3-3.8c2.6,0,4.3,1.4,5.1,3.1c0,0.1,0,0.2-0.1,0.3
		l-0.8,0.4c-0.1,0-0.2,0-0.3-0.1c-0.8-1.5-2-2.4-3.9-2.4c-2,0-3.4,1-4,2.8c-0.2,0.6-0.4,1.7-0.4,4.5s0.2,3.8,0.4,4.5
		c0.6,1.9,2,2.8,4,2.8c2,0,3.4-1,4-2.8c0.2-0.6,0.4-1.6,0.4-3.2c0-0.1,0-0.1-0.1-0.1h-3.7c-0.1,0-0.2-0.1-0.2-0.2v-0.8
		c0-0.1,0.1-0.2,0.2-0.2h4.9c0.1,0,0.2,0.1,0.2,0.2v1c0,1.7-0.2,3-0.4,3.7c-0.8,2.5-2.6,3.8-5.2,3.8c-2.6,0-4.5-1.3-5.3-3.8
		C94.7,22.2,94.5,21.1,94.5,18.2"/>
	<path fill="#646569" d="M108.5,26.6c-0.1,0-0.2-0.1-0.2-0.2V15.1c0-0.1,0.1-0.2,0.2-0.2h0.8c0.1,0,0.2,0.1,0.2,0.2v1.5h0
		c0.4-1.2,1.5-2,3.1-2c0.9,0,1.7,0.3,2.3,0.8c0.1,0.1,0.1,0.2,0,0.3l-0.5,0.7c-0.1,0.1-0.2,0.1-0.4,0c-0.5-0.3-1.1-0.6-1.8-0.6
		c-2,0-2.8,1.8-2.8,4v6.5c0,0.1-0.1,0.2-0.2,0.2H108.5z"/>
	<path fill="#646569" d="M116.1,23.8c-0.2-0.8-0.4-1.7-0.4-3.1c0-1.4,0.1-2.3,0.4-3.1c0.6-1.9,2.2-3.1,4.2-3.1
		c2.1,0,3.7,1.1,4.3,3.1c0.2,0.8,0.4,1.7,0.4,3.1c0,1.4-0.1,2.3-0.4,3.1c-0.6,1.9-2.2,3.1-4.3,3.1C118.3,26.8,116.8,25.7,116.1,23.8
		 M123.4,23.4c0.2-0.7,0.3-1.4,0.3-2.7c0-1.3-0.1-2-0.3-2.6c-0.5-1.4-1.6-2.2-3-2.2c-1.5,0-2.6,0.8-3,2.2c-0.2,0.7-0.3,1.4-0.3,2.6
		c0,1.3,0.1,2,0.3,2.7c0.5,1.4,1.6,2.2,3,2.2C121.9,25.6,123,24.8,123.4,23.4"/>
	<path fill="#646569" d="M134.6,26.6c-0.1,0-0.2-0.1-0.2-0.2V25h0c-0.6,1.2-1.8,1.9-3.3,1.9c-2.5,0-3.9-1.6-3.9-4.5v-7.3
		c0-0.1,0.1-0.2,0.2-0.2h0.8c0.1,0,0.2,0.1,0.2,0.2v7c0,2.4,1,3.5,2.9,3.5c1.7,0,3.1-1.2,3.1-3.3v-7.2c0-0.1,0.1-0.2,0.2-0.2h0.8
		c0.1,0,0.2,0.1,0.2,0.2v11.3c0,0.1-0.1,0.2-0.2,0.2H134.6z"/>
	<path fill="#646569" d="M138.3,31c-0.1,0-0.2-0.1-0.2-0.2V15.1c0-0.1,0.1-0.2,0.2-0.2h0.8c0.1,0,0.2,0.1,0.2,0.2v1.4h0
		c0.5-1.1,1.6-1.9,3.5-1.9c2,0,3.3,0.9,3.9,2.8c0.3,1,0.4,2,0.4,3.3c0,1.3-0.1,2.3-0.4,3.3c-0.6,1.9-1.9,2.8-3.9,2.8
		c-1.9,0-2.9-0.8-3.5-1.9h0v5.9c0,0.1-0.1,0.2-0.2,0.2H138.3z M145.5,23.5c0.2-0.7,0.3-1.7,0.3-2.8c0-1.1-0.1-2-0.3-2.8
		c-0.4-1.3-1.4-2.1-2.9-2.1c-1.4,0-2.5,0.7-2.9,2.1c-0.2,0.6-0.3,1.5-0.3,2.8c0,1.3,0.1,2.1,0.3,2.8c0.4,1.4,1.5,2.1,2.9,2.1
		C144.1,25.6,145.1,24.8,145.5,23.5"/>
	<path fill="#646569" d="M86.4,26.6c-0.2,0-0.3-0.1-0.4-0.2l-3.3-5.7h0l-3.3,5.7c-0.1,0.2-0.2,0.2-0.4,0.2h-2.6
		c-0.2,0-0.2-0.1-0.1-0.3l4.8-8.4l-4.5-7.8c-0.1-0.2,0-0.3,0.1-0.3h2.6c0.2,0,0.3,0.1,0.4,0.2l2.9,5.1h0l2.9-5.1
		c0.1-0.2,0.2-0.2,0.4-0.2h2.6c0.2,0,0.2,0.1,0.1,0.3l-4.5,7.8l4.8,8.4c0.1,0.2,0,0.3-0.1,0.3H86.4z"/>
	<path fill="#646569" d="M148.8,15.5C148.7,15.5,148.7,15.5,148.8,15.5l-0.1-4.8c0,0,0-0.1,0-0.1h-1.4c0,0-0.1,0-0.1-0.1V9.9
		c0,0,0-0.1,0.1-0.1h3.9c0.1,0,0.1,0,0.1,0.1v0.7c0,0.1,0,0.1-0.1,0.1h-1.4c0,0,0,0,0,0.1v4.7c0,0.1,0,0.1-0.1,0.1H148.8z"/>
	<path fill="#646569" d="M152.2,9.9C152.2,9.9,152.2,9.8,152.2,9.9l0.8-0.1c0.1,0,0.1,0,0.1,0.1l1.5,3.5h0l1.5-3.5
		c0-0.1,0.1-0.1,0.1-0.1h0.7c0,0,0.1,0,0.1,0.1v5.5c0,0,0,0.1-0.1,0.1h-0.7c0,0-0.1,0-0.1-0.1V12h0l-1.2,2.7c0,0.1-0.1,0.1-0.2,0.1
		h-0.5c-0.1,0-0.1,0-0.2-0.1l-1.2-2.7h0v3.5c0,0,0,0.1-0.1,0.1h-0.7c0,0-0.1,0-0.1-0.1V9.9z"/>
</g>
</svg>
