<?xml version="1.0" encoding="utf-8"?>
<!-- Generator: Adobe Illustrator 16.0.4, SVG Export Plug-In . SVG Version: 6.00 Build 0)  -->
<!DOCTYPE svg PUBLIC "-//W3C//DTD SVG 1.1//EN" "http://www.w3.org/Graphics/SVG/1.1/DTD/svg11.dtd">
<svg version="1.1" id="Layer_1" xmlns="http://www.w3.org/2000/svg" xmlns:xlink="http://www.w3.org/1999/xlink" x="0px" y="0px"
	 width="200px" height="200px" viewBox="0 0 200 200" enable-background="new 0 0 200 200" xml:space="preserve">
<g id="GP_Icon_Rev">
	<g>
		<g>
			
				<linearGradient id="SVGID_1_" gradientUnits="userSpaceOnUse" x1="349.1826" y1="-170.5449" x2="349.1826" y2="-221.1107" gradientTransform="matrix(1 0 0 -1 -206 -95)">
				<stop  offset="0" style="stop-color:#0080C6"/>
				<stop  offset="1" style="stop-color:#003B75"/>
			</linearGradient>
			<polygon fill="url(#SVGID_1_)" points="157.861,99.22 135.734,81.12 128.506,75.21 128.506,88.17 142.021,99.22 128.506,110.989 
				128.506,124.792 135.734,118.501 			"/>
		</g>
		
			<linearGradient id="SVGID_2_" gradientUnits="userSpaceOnUse" x1="268.8545" y1="-169.5" x2="268.8545" y2="-220.4995" gradientTransform="matrix(1 0 0 -1 -206 -95)">
			<stop  offset="0" style="stop-color:#E6F2FB"/>
			<stop  offset="0.2105" style="stop-color:#DCE9F2"/>
			<stop  offset="0.5702" style="stop-color:#C1D0D9"/>
			<stop  offset="1" style="stop-color:#98ABB5"/>
		</linearGradient>
		<path fill="url(#SVGID_2_)" d="M64.379,105.809h8.57v6.942c-2.26,1.349-5.594,2.411-10.265,2.411
			c-7.797,0-9.068-3.971-9.068-8.995V93.838c0-5.028,1.271-8.992,10.128-8.992c6.23,0,10.981,1.488,15.297,3.818l4.324-9.561
			C77.626,75.919,72.949,74.5,63.95,74.5c-16.92,0-21.812,7.012-21.812,18.42v14.167c0,11.401,4.961,18.412,19.484,18.412
			c4.953,0,9.915-1.769,12.319-3.963v3.255h9.631V96.957H64.379V105.809z"/>
		
			<linearGradient id="SVGID_3_" gradientUnits="userSpaceOnUse" x1="312.3223" y1="-170.21" x2="312.3223" y2="-219.7935" gradientTransform="matrix(1 0 0 -1 -206 -95)">
			<stop  offset="0" style="stop-color:#E6F2FB"/>
			<stop  offset="0.2105" style="stop-color:#DCE9F2"/>
			<stop  offset="0.5702" style="stop-color:#C1D0D9"/>
			<stop  offset="1" style="stop-color:#98ABB5"/>
		</linearGradient>
		<path fill="url(#SVGID_3_)" d="M108.309,75.21c12.041,0,16.783,6.089,16.783,16.712v0.146c0,10.625-4.742,16.72-16.783,16.72H99.1
			v16.005H87.555V75.21H108.309z M106.887,84.911H99.1v14.314h7.787c4.754,0,6.312-2.128,6.312-7.157
			C113.197,87.04,111.641,84.911,106.887,84.911z"/>
	</g>
</g>
</svg>
