<svg xmlns="http://www.w3.org/2000/svg" width="180px" height="116px" viewBox="0 0 180 116" version="1.1"><title>180x116</title><desc>Created with Sketch.</desc><defs><filter x="-50%" y="-50%" width="200%" height="200%" filterUnits="objectBoundingBox" id="filter-1"><feOffset dx="0" dy="1" in="SourceAlpha" result="shadowOffsetOuter1"/><feGaussianBlur stdDeviation="0" in="shadowOffsetOuter1" result="shadowBlurOuter1"/><feColorMatrix values="0 0 0 0 1   0 0 0 0 1   0 0 0 0 1  0 0 0 0.7 0" in="shadowBlurOuter1" type="matrix" result="shadowMatrixOuter1"/><feOffset dx="0" dy="1" in="SourceAlpha" result="shadowOffsetInner1"/><feGaussianBlur stdDeviation="0.4" in="shadowOffsetInner1" result="shadowBlurInner1"/><feComposite in="shadowBlurInner1" in2="SourceAlpha" operator="arithmetic" k2="-1" k3="1" result="shadowInnerInner1"/><feColorMatrix values="0 0 0 0 0   0 0 0 0 0   0 0 0 0 0  0 0 0 0.105 0" in="shadowInnerInner1" type="matrix" result="shadowMatrixInner1"/><feMerge><feMergeNode in="shadowMatrixOuter1"/><feMergeNode in="SourceGraphic"/><feMergeNode in="shadowMatrixInner1"/></feMerge></filter><filter x="-50%" y="-50%" width="200%" height="200%" filterUnits="objectBoundingBox" id="filter-2"><feOffset dx="0" dy="1" in="SourceAlpha" result="shadowOffsetOuter1"/><feGaussianBlur stdDeviation="0" in="shadowOffsetOuter1" result="shadowBlurOuter1"/><feColorMatrix values="0 0 0 0 1   0 0 0 0 1   0 0 0 0 1  0 0 0 0.7 0" in="shadowBlurOuter1" type="matrix" result="shadowMatrixOuter1"/><feOffset dx="0" dy="1" in="SourceAlpha" result="shadowOffsetInner1"/><feGaussianBlur stdDeviation="0.4" in="shadowOffsetInner1" result="shadowBlurInner1"/><feComposite in="shadowBlurInner1" in2="SourceAlpha" operator="arithmetic" k2="-1" k3="1" result="shadowInnerInner1"/><feColorMatrix values="0 0 0 0 0   0 0 0 0 0   0 0 0 0 0  0 0 0 0.105 0" in="shadowInnerInner1" type="matrix" result="shadowMatrixInner1"/><feMerge><feMergeNode in="shadowMatrixOuter1"/><feMergeNode in="SourceGraphic"/><feMergeNode in="shadowMatrixInner1"/></feMerge></filter><filter x="-50%" y="-50%" width="200%" height="200%" filterUnits="objectBoundingBox" id="filter-3"><feOffset dx="0" dy="1" in="SourceAlpha" result="shadowOffsetOuter1"/><feGaussianBlur stdDeviation="0" in="shadowOffsetOuter1" result="shadowBlurOuter1"/><feColorMatrix values="0 0 0 0 1   0 0 0 0 1   0 0 0 0 1  0 0 0 0.7 0" in="shadowBlurOuter1" type="matrix" result="shadowMatrixOuter1"/><feOffset dx="0" dy="1" in="SourceAlpha" result="shadowOffsetInner1"/><feGaussianBlur stdDeviation="0.4" in="shadowOffsetInner1" result="shadowBlurInner1"/><feComposite in="shadowBlurInner1" in2="SourceAlpha" operator="arithmetic" k2="-1" k3="1" result="shadowInnerInner1"/><feColorMatrix values="0 0 0 0 0   0 0 0 0 0   0 0 0 0 0  0 0 0 0.105 0" in="shadowInnerInner1" type="matrix" result="shadowMatrixInner1"/><feMerge><feMergeNode in="shadowMatrixOuter1"/><feMergeNode in="SourceGraphic"/><feMergeNode in="shadowMatrixInner1"/></feMerge></filter></defs><g id="Page-1" stroke="none" stroke-width="1" fill="none" fill-rule="evenodd"><g id="180x116"><rect id="Rectangle-1" fill="#F6F6F6" x="0" y="0" width="180" height="116"/><g id="Fill-18-+-Fill-16-+-Fill-2" transform="translate(54.500000, 46.000000)" fill="#E1E1E1"><path d="M66.2775457 7.51315694C66.1125438 6.42881627 65.2210272 4.58858928 62.3817922 4.58858928 60.4340738 4.58858928 59.1789831 5.80437474 59.1789831 7.08572498 59.1789831 8.20316325 59.8725609 9.02461435 61.4905923 9.32060153L64.6265772 9.91194545C69.0841603 10.7337118 71.3948194 13.5923994 71.3948194 16.9113014 71.3948194 20.558973 68.3243918 24.2718942 62.7450496 24.2718942 56.2735573 24.2718942 53.5005131 20.0990739 53.1701927 16.8123238L57.9574628 15.6624184C58.1560351 17.7986325 59.6084312 19.6716419 62.8112404 19.6716419 64.8580865 19.6716419 66.1125438 18.6856484 66.1125438 17.2397558 66.1125438 16.0570679 65.1548365 15.2025192 63.6036292 14.9068473L60.4008201 14.3151881C56.4388759 13.5593018 54.0287723 10.9304061 54.0287723 7.48037455 54.0287723 3.07681665 57.9245258-0.0122933971 62.4147292-0.0122933971 68.2582011-0.0119781818 70.4706825 3.47146622 70.965688 6.19870909L66.2775457 7.51315694M46.2705467 23.7792126L46.2705467 8.33429282 40.1626285 23.7785822 35.9368714 23.7785822 29.8289532 8.53130239 29.8289532 23.7785822 24.8766813 23.7785822 24.8766813 0.480388134 31.6778605 0.480388134 38.1157824 16.2209799 44.2240172 0.480388134 51.3884538 0.480703349 51.3884538 23.7792126 46.2705467 23.7792126M18.7528859 23.7785822L18.4228823 21.4125761C17.3989841 22.8912511 15.1871361 24.2715789 11.8525789 24.2715789 5.34846634 24.2715789 0 19.5064691 0 12.1458764 0 4.81838124 5.57965893-0.0126086124 12.1828993-0.0126086124 18.8849507-0.0126086124 21.9883154 3.93041971 23.0118968 7.18438737L17.9934341 8.92532153C17.6304934 7.47974411 16.0786528 4.85084842 12.1828993 4.85084842 9.01334392 4.85084842 5.28259229 6.95396498 5.28259229 12.1458764 5.28259229 17.0096486 8.51770501 19.5395667 12.3149641 19.5395667 16.1774638 19.5395667 17.7951785 17.042431 18.0925619 15.7279832L11.0601901 15.7279832 11.0601901 11.3244253 22.9789598 11.3244253 22.9789598 23.7785822 18.7528859 23.7785822" id="Fill-18" filter="url(#filter-1)"/></g></g></g></svg>