<svg xmlns="http://www.w3.org/2000/svg" width="234.001" height="274.704" viewBox="-37 0 234.001 274.704"><path d="M51.296 95.485c-1.478.664-.754.894 0 .937.517.029 6.162 1.018 8.304 4.803-2.468-.392-4.573.134-5.127.388-1.092.5-.181.5.482.5.429 0 3.308.006 6.255 1.972.457 1.211.749 2.488.954 3.659.329 1.887.712 1.943 1.274.076 1.047-3.484-.034-6.235-1.676-8.761-2.211-3.404-7.53-4.893-10.466-3.574m58.194-31.78c-.633-.26-1.239-.319-1.771-.218-1.412.266-4.767 2.875-3.32 11.234 1.23 7.101 4.229 9.585 6.326 10.012-.35.172-.719.324-1.134.43-4.681 1.192-9.276-4.485-10.609-10.783-1.155-5.461-1.474-12.25 3.29-13.872 2.892-.985 5.352.561 7.218 3.197m1.973 11.978c-1.532.426-2.554-4.282-1.021-4.623 1.532-.34 2.552 4.198 1.021 4.623m.29-7.57c-.524-.544-1.132-.807-1.822-.626-1.421.37-2.554 3.063-1.616 7.234.96 4.274 2.553 6.552 4.425 6.212.331-.061.596-.215.812-.444.01.782-.471 2.418-1.479 2.822-2.013.806-5.56-2.195-6.502-8.846-.808-5.705.205-9.02 2.319-9.701 1.451-.47 3.422 1.668 3.863 3.349m-10.091-9.441c-4.354 1.491-7.062 7.244-4.329 16.898 2.896 10.231 8.771 12.46 13.023 11.149 4.864-1.5 6.724-6.638 3.915-16.766-2.962-10.681-8.275-12.764-12.609-11.281m63.84 212.294c-.982.402-3.744-.501-5.226-1.341 7.388-10.989 23.411-44.175 27.995-56.264 1.346.486 4.328 2.008 4.406 2.855.625 6.694-12.537 28.65-20.721 36.414-.271.255-.439.86.148 1.037.341.342 2.553 1.352 2.531 1.809-.112 2.383-6.637 14.468-9.133 15.49m-8.34-1.589c-1.721 1.95-11.523.499-14.218-6.786 3.392-2.415 7.515-8.741 11.405-24.306 4.51-18.047 3.279-26.049 1.115-29.765 4-9.022 13.485-11.597 19.569-10.687 8.34 1.248 11.938 10.223 11.233 12.766-3.629 13.106-23.997 52.991-29.104 58.778m-18.807-10.241c-3.434-.767-4-3.716-4.085-5.787-16.708-12.794-39.516-18.977-55.174-25.274-17.059-6.86-21.9-10.099-26.734-17.182-4.834-7.084-6.683-16.41-6.002-24.348.836-9.756 5.208-16.622 7.326-24.94 2.605 2.421 13.982 11.565 14.8 11.72.841.157 18.084-9.454 22.773-12.147 3.273 18.136 8.992 20.916 15.58 20.771 5.013-.11 10.13-4.981 8.711-14.973.438-3.694-.271-7.89-2.065-11.107 1.525.009 3.501.163 4.798.272 4.734 14.715 4.103 30.189.646 39.799-4.375-1.494-8.878-2.508-13.167-2.531-1.48-.008-.732.577-.171.795 14.694 5.674 27.175 11.403 37.616 18.212.85-1.532 3.971-4.492 7.223-3.374 3.84 1.32 4.804 11.771.29 28.563-4.99 18.557-8.933 22.297-12.365 21.531m-75.201-9.843c-5.348 1.07-14.241 1.758-30.695-6.695-1.528 1.765-4.368 3.234-6.565 2.682-2.317-.582-9.184-6.029-5.723-24.865 3.462-18.836 10.286-22.604 13.651-22.183 3.177.397 3.211 5.265 3.551 6.229 2.123.965 6.631 2.295 8.39 2.742a35.56 35.56 0 0 0 3.661 6.461c6.42 8.955 15.962 13.304 28.142 17.98 2.354.904 4.787 1.811 7.285 2.742-9.241 9.716-15.335 13.634-21.697 14.907M2.705 263.571c-8.423-.407-12.9-8.978-12.454-11.579 2.303-13.402 18.584-55.123 23.086-61.393 1.507-2.098 11.296-1.65 14.761 5.212-4.005 2.5-8.539 8.807-11.286 23.604-3.554 19.145 1.802 26.316 5.853 28.799-3.433 11.847-13.735 15.66-19.96 15.357m-19.393-16.526c-1.291-6.599 9.612-29.761 16.979-38.304.242-.28.352-.899-.252-1.017-.373-.305-2.675-1.091-2.699-1.547-.125-2.382 5.159-15.059 7.541-16.324.938-.498 3.777.124 5.334.812-6.252 11.672-18.88 46.293-22.232 58.779-1.389-.348-4.507-1.564-4.671-2.399m48.922-91.288c.98-11.599-1.9-20.342-6.654-26.798 9.148-2.929 33.341-5.517 50.766-1.3.231.143.46.291.692.429 7.112 5.468 11.699 17.922 13.58 29.228-4.34 2.896-20.682 11.997-21.734 12.208-1.049.209-12.116-9.641-14.422-11.732.04-.262.075-.526.108-.793 6.618-.207 13.471.033 19.193 1.036l.426-3.574c-3.785-1.087-25.615-2.458-41.955 1.296m-3.327-1.773c-.203 5.363-2.15 8.502-6.369 8.25.595-3.328.516-6.664-.474-9.674-.746-2.269-1.095-1.508-1.122-.285-.397 18.723-12.084 27.573-17.474 26.553-4.223-.8-4.534-4.98-4.509-6.928 1.784-.573 3.58-.955 5.077-.988v-2.637c-5.22-.002-10.61 2.1-13.787 5.1l1.588 2.112c.867-.733 2.142-1.497 3.594-2.188-.001 1.281.378 2.965 1.122 4.566-4.855 3.723-12.828 2.206-15.438-.513-1.706-1.777-5.616-6.298-2.893-13.39.328-.854.398-1.02-.397-.396-2.249 1.76-3.304 4.254-3.406 6.855-4.098-1.002-8.51-8.213-.341-18.341 1.308-1.62.958-1.614-.508-.702-3.072 1.914-5.134 3.967-6.419 6.03-1.269-2.557-1.292-8.876 6.022-15.856 1.239-1.182 1.647-1.475 0-.852-1.522.578-3.078 1.516-4.502 2.715-.086-3.852 3.729-9.676 11.906-13.55 13.781-6.529 26.738-1.851 31.402 1.787 1.793 1.398 2.341.914 1.095-1.046-.759-1.194-1.873-2.296-3.266-3.266 2.011-1.93 6.152-2.473 9.445.227 7.278 5.969 9.997 17.311 9.654 26.417m14.106-37.394c.738-.011 1.078-.057 0-.625-.894-.47-3.166-2.347-4.667-5.366.942-1.48 1.938-3.006 2.741-4.247.683 2.022 1.587 3.803 2.636 5.13 8.089 10.246 18.978 10.298 23.659 8.851.75.796 1.519 1.537 2.296 2.253-8.045-.981-20.117-1.234-31.05-.011-2.825-2.33-1.34-5.905 4.385-5.985m-8.855-7.378c-12.688-3.699-21.362-13.637-19.774-24.278 1.025-6.877 6.835-10.648 11.148-13.149-.01.718-.011 1.433.006 2.144.134 5.785 1.119 3.687 1.793-.286 4.377-25.78 22.39-66.411 51.878-69.07 3.257-.293 6.24.47 8.912 1.906-12.57 3.293-11.895 26.207.76 33.663-16.323 16.251-32.098 37.103-36.635 43.045-10.848-.498-13.162 9.94-12.364 17.571-1.315 1.881-4.211 6.069-5.724 8.454M99.089 18.51c-2.908-1.884-7.754-5.004-8.051-5.063-.425-.085-3.314 18.527-3.144 19.292.137.617 4.626 1.8 6.372 2.239a180.196 180.196 0 0 0-3.806 3.608c-11.855-8.774-11.407-28.334.162-30.517 3.562 2.666 6.43 6.514 8.467 10.441m3.315 9.556c-2.432 1.874-4.919 3.983-7.426 6.261.091-2.955.4-12.945.4-13.307 0-.353 4.563 2.979 6.413 4.274.27.972.477 1.903.613 2.772m3.811 2.082c14.983-10.093 27.381-10.226 28.857-7.843 1.774 2.867-2.743 17.583-20.277 29.304-1.311-2.68-2.522-5.001-3.367-6.411 4.752-5.06 9.743-10.048 14.304-12.746 1.68-.995 1.733-1.45-.454-1.022-6.399 1.254-14.606 9.656-20.99 16.271-2.483-2.624-5.754-4.519-9.477-3.562-5.802 1.491-6.637 8.226-5.843 12.481.305 1.632.292 1.451.964.681 1.085-1.242 3.899-4.1 6.752-4.766a9.892 9.892 0 0 1 3.099-.234c-.283.278-.562.549-.829.802-7.817 7.401-18.884 10.773-23.362 6.877 10.485-12.198 22.219-24.17 30.623-29.832M81.011 98.591c-3.175 1.95-7.674-.724-12.289-5.382-3.473-3.506-7.607-7.281-11.968-9.03 2.136-3.159 4.774-6.773 7.748-10.622 1.886 2.907 6.344 7.353 12.325 7.12 6.552-.256 8.937 5.275 2.939 8.595 1.041.747 6.096 6.34 1.245 9.319m39.335-25.068c.155.37.312.557.645.139 5.992-7.12 17.746-11.839 24.77-9.666 9.803 3.035 12.889 19.081 5.105 26.972-6.524 6.615-18.676 9.579-28.424.176l-2.951 2.354c.193.259.397.506.605.752-7.691 1.84-19.055-5.05-21.568-7.958-.402-.464-.575-.825-1.276 0-5.872 6.893-4.341 18.297 8.085 17.787 1.176 9.021 10.297 11.318 16.595 6.297 2.359 2.245 5.269 3.271 8.033 3.188.451 2.595-1.185 6.403-5.311 6.599-1.616 4.766-5.364 9.348-12.084 10.979-8.767 2.127-33.871-.34-43.913-14.808-1.958 1.702-14.127 3.745-22.212-6.553-5.656-7.204-5.021-22.638 4.851-23.488 6.192-.534 10.809 4.338 15.452 8.875 4.644 4.538 9.313 8.741 15.61 6.869 3.903-1.161 5.528-7.744 1.277-12.233 4.251-2.745 4.251-11.681-6.808-11.681-5.111 0-8.401-4.194-10.04-7.482a345.65 345.65 0 0 1 6.649-8.129c4.714 5.599 18.349 1.832 25.857-4.757 1.363-1.197 2.846-2.665 4.411-4.291 2.249 1.161 3.837 2.853 4.667 3.61.949.867.918.411.852-.454-.09-1.157-1.072-3.647-2.721-6.122.781-.839 1.575-1.698 2.381-2.568 2.717 4.497 8.351 16.065 11.463 25.593m-7.95 100.481c-.698 3.061-2.338 4.762-5.842 4.938-3.404.17-9.889-.727-13.105-21.956-1.479-9.766-5.027-19.755-9.315-25.451 4.194 1.619 8.347 2.553 12.169 3.061 3.615 3.885 8.075 11.711 9.984 16.068a9.183 9.183 0 0 0-1.984.024c-11.646 1.388-9.718 26.607 4.691 24.849a6.164 6.164 0 0 0 3.402-1.533m-4.082-.968c-9.248 1.702-12.54-18.554-3.121-19.853 8.227-1.134 10.706 18.458 3.121 19.853m8.718-20.414c-1.613-.157-4.892-.317-6.642-.379l-.143-.101c-1.932-5.463-7.028-13.655-9.761-17.137 2.202.136 4.22.139 5.997.073 4.689 5.255 8.132 11.278 10.549 17.544m26.741-12.317c6.356 4.493-.15 12.427-9.548 14.496-1.981-3.543-4.503-5.783-7.085-7.035.463-1.656 1.9-4.141 3.697-5.135 1.088-.602 1.531-.794-.113-.794-1.219 0-5.124 1.23-6.121 5.009-2.186-.543-4.301-.451-6.055.086a69.011 69.011 0 0 0-1.467-2.89c9.385-6.251 22.452-6.734 26.692-3.737m4.756 8.612c2.185 1.454 3.032 5.21 2.337 7.223-1.401 4.059-6.071 9.37-14.165 7.7.11-1.724-.184-3.771-1.111-6.152 6.101-1.356 10.803-4.852 12.939-8.771m.2 23.404c-4.84 3.503-10.505 2.427-11.934.266-1.365-2.065-.736-4.221-.021-5.636 5.561 1.188 12.075-1.127 15.299-6.306 3.776 4.085.157 9.141-3.344 11.676m-3.083 10.421c-6.468 1.713-10.024-2.441-8-6.067 3.338 1.368 8.427 1.853 15.016-3.869 1.084 3.229-1.01 8.346-7.016 9.936m-20.654 3.815c.829-5.378.865-10.814.287-16.109 1.649 1.013 5.344 2.254 7.949-.025.041 1.121.406 3.392 2.049 4.771-1.582 2.396-1.33 6.864 1.963 9.209-2.542 2.48-9.281 2.738-12.248 2.154m-5.352-37.24c4.908-1.444 10.157 2.7 12.503 7.497 2.353 4.812 2.07 9.982-.624 11.461-2.341 1.285-4.979.193-6.651-.901a74.33 74.33 0 0 0-5.228-18.057m56.472 103.097c9.758-8.057 21.899-30.751 20.821-37.729-.234-1.517-5.937-4.686-7.598-5.503-.006-3.938-2.139-12.62-13.508-14.864-12.606-2.489-20.701 7.517-23.18 11.388-2.778-1.713-6.719-1.29-10.01 1.943-4.118-2.232-11.844-7.074-20.426-10.491a51.656 51.656 0 0 0 2.229-7.595c6.005 1.033 12.651.173 16.478-3.76 1.41.202 3.068.159 5.01-.223 10.614-2.092 10.817-12.562 8.875-15.524 2.694-4.571 2.498-10.322-1.271-12.694 1.377-5.74-1.342-10.038-3.945-11.217.66-3.004-.26-6.022-3.262-8.336-4.448-3.429-18.945-4.972-31.039 3.112-1.398-2.279-2.873-4.352-4.391-6.172a39.066 39.066 0 0 0 2.013-.286c6.662-1.145 12.511-5.787 14.553-11.318 3.497-.557 6.93-5.44 5.556-10.153 4.039-1.456 7.056-5.611 6.3-12.107 5.847-.677 11.509-3.34 15.208-8.037 8.51-10.808 5.445-27.976-7.915-32.657-8.077-2.83-20.013 3.219-24.719 8.006-.86-2.856-3.124-8.156-5.429-13.092 14.318-7.144 25.695-26.513 23.26-33.82-2.734-8.205-22.098-3.509-33.716 4.172C103.884 17.939 96.832.001 79.775.001c-25.577 0-51.226 35.505-54.001 67.044-3.988 1.807-14.08 7.27-15.689 16.882-2.595 15.496 11.977 26.431 24.842 28.88.655.897 1.483 1.812 2.32 2.421-3.868.963-4.668 5.315-2.46 7.851-4.395.659-8.479 1.588-11.894 2.84-6.765-5.981-14.151-3.708-16.307-.357-6.709-2.939-16.92-3.453-26.861.986-7.078 3.16-16.651 10.474-14.817 21.265-2.369 3.979-2.94 8.949.668 13.563-1.276 6.915 4.863 12.979 9.399 13.034.655 2.062 1.854 3.986 3.473 5.438 6.675 5.986 16.96 3.514 20.095.989 1.046 1.084 2.347 1.871 3.896 2.056 7.876.937 16.059-7.464 19.17-16.983 4.286.862 7.749-1.617 9.542-6.068 3.704-1.072 11.086-2.176 19.324-2.659-1.267 9.696-7.494 17.231-8.201 29.248-.233 3.963-.039 9.617 1.627 15.546-1.363-.391-3.41-1.004-3.721-1.236-.245-.713-1.423-5.119-5.054-6.141a8.085 8.085 0 0 0-3.415-.174c-6.339-9.574-15.795-9.507-19.129-7.145-1.656-.625-6.281-1.758-9.081-.938-3.268.955-10.272 18.08-9.921 21.01.096.797.881 1.394 2.597 2.02-8.904 8.992-18.717 32.785-16.947 39.621.385 1.485 6.374 4.068 8.109 4.715.399 3.92 3.391 12.344 14.926 13.441 14.167 1.348 22.475-12.605 24.296-17.737 2.234-.071 4.416-1.28 5.115-2.05 8.748 3.264 18.667 8.583 32.497 5.957 11.909-2.262 22.252-13.815 24.937-17.337 12.784 4.823 26.992 10.611 40.988 20.288.454 3.404 3.973 6.695 6.128 7.205.657.155 1.753.562 3.147.471 5.369 9.963 14.682 10.812 18.209 8.809 1.581.786 6.069 2.376 8.939 1.841 3.348-.624 12.028-16.964 11.971-19.914-.013-.802-.734-1.475-2.38-2.269m-68.13-83.138c-2.344-1.333-4.018-4.377-4.656-7.181-.123-.545-.655-1.702-.714 1.215-.093 4.624 3.733 8.369 5.883 7.112.919-.535.065-.818-.513-1.146M.489 147.652c-.75.227-5.06 1.318-6.382 2.936-.915 1.119-1.234 2.894 0 3.744 1.234.852 3.109.34 4.001-.553 1.572-1.574 2.722-4.894 2.977-5.531.255-.639.113-.811-.596-.596m-2.978-6.765c-.785-.188-4.808-1.362-7.262-.504-1.727.604-2.525 2.035-2.057 3.354s2.298 1.829 3.574 1.361c1.277-.468 5.234-2.979 5.745-3.319s1.04-.644 0-.892m-9.021-5.475c1.49-.127 5.361-.907 5.83-1.12s.721-.382 0-.766c-.47-.251-4.298-2.34-6.084-2.468-1.788-.127-3.319 1.234-3.064 2.468.255 1.234 1.829 2.014 3.318 1.886" opacity=".1"/></svg>
