<?xml version="1.0" encoding="utf-8"?><!-- Generator: Adobe Illustrator 18.1.1, SVG Export Plug-In . SVG Version: 6.00 Build 0)  --><svg version="1.1" id="Layer_1" xmlns="http://www.w3.org/2000/svg" xmlns:xlink="http://www.w3.org/1999/xlink" x="0px" y="0px" viewBox="-528 662 578 130" enable-background="new -528 662 578 130" xml:space="preserve"><title>NIH: NIDDK</title><g><g><path fill="#646569" d="M-383.6,698.1v58h-10.1l0,0v-26.3h-26.6v26.3h-10.1v-58h10.1v23.2h26.6v-23.2l0,0H-383.6z M-440.6,756.4 L-440.6,756.4h-10.1v-58h10.1V756.4z M-460.7,756.4L-460.7,756.4h-10.8l-26.6-42.8h-0.3v42.8h-9.8l0,0v-58l0,0h10.8l0,0l26.6,42.8 h0.3v-42.8h9.8V756.4z M-347.7,727l-35.9-65h-132.6c-6.7,0-11.9,5.4-11.9,11.9v106c0,6.7,5.4,11.9,11.9,11.9h132.3L-347.7,727z"/><path fill="#71963E" d="M-374.5,792l36.1-65l-35.9-65h9c4.9,0,10.8,3.6,13.2,7.7l31.5,57.3l-31.7,57.3c-2.3,4.4-8.3,7.7-13.4,7.7 H-374.5z"/></g><g><path fill="#616365" d="M-293.8,689.1h13.7l33.5,54.2h0.3v-54.2h12.4v73.8h-13.7l-33.5-54.2h-0.3v54.2h-12.4V689.1z"/>
<path fill="#616365" d="M-218.7,689.1h12.9v73.8h-12.9V689.1z"/><path fill="#616365" d="M-190.1,689.1h30.7c5.7,0,10.6,1,14.7,2.8c4.1,1.8,7.5,4.6,10.1,8s4.6,7.2,5.9,11.6 c1.3,4.4,1.8,9.3,1.8,14.4s-0.5,9.8-1.8,14.4c-1.3,4.4-3.1,8.3-5.9,11.6c-2.6,3.4-5.9,5.9-10.1,8c-4.1,1.8-9,2.8-14.7,2.8h-30.4 v-73.8L-190.1,689.1L-190.1,689.1z M-177.2,752.3h12.6c4.9,0,9-0.8,12.4-2.1c3.1-1.3,5.7-3.1,7.5-5.7c1.8-2.3,3.1-5.2,3.6-8.3 c0.8-3.1,1-6.7,1-10.3c0-3.6-0.3-7.2-1-10.3s-1.8-5.9-3.6-8.3s-4.4-4.1-7.5-5.7c-3.1-1.3-7.2-2.1-12.4-2.1h-12.6V752.3z"/><path fill="#616365" d="M-115.6,689.1h30.4c5.7,0,10.6,1,14.7,2.8c4.1,1.8,7.5,4.6,10.1,8s4.6,7.2,5.9,11.6s1.8,9.3,1.8,14.4 s-0.5,9.8-1.8,14.4c-1.3,4.4-3.1,8.3-5.9,11.6c-2.6,3.4-5.9,5.9-10.1,8c-4.1,1.8-9,2.8-14.7,2.8h-30.4V689.1z M-102.7,752.3H-90 c4.9,0,9-0.8,12.4-2.1c3.1-1.3,5.7-3.1,7.5-5.7c1.8-2.3,3.1-5.2,3.6-8.3c0.8-3.1,1-6.7,1-10.3c0-3.6-0.3-7.2-1-10.3 s-1.8-5.9-3.6-8.3c-1.8-2.3-4.4-4.1-7.5-5.7c-3.1-1.3-7.2-2.1-12.4-2.1h-12.6V752.3z"/>
<path fill="#616365" d="M-41,689.1h12.9v33.5l32.8-33.5h16l-29.4,29.4l31.5,44.4h-16l-24.2-35.1l-10.6,10.3v24.8H-41L-41,689.1 L-41,689.1z"/></g></g></svg>